ISO-10303-21;
HEADER;
/* Generated by software containing ST-Developer
 * from STEP Tools, Inc. (www.steptools.com) 
 */

FILE_DESCRIPTION(
/* description */ (''),
/* implementation_level */ '2;1');

FILE_NAME(
/* name */ 'Nivel_1_N.step',
/* time_stamp */ '2026-01-03T11:39:58-04:00',
/* author */ (''),
/* organization */ (''),
/* preprocessor_version */ 'ST-DEVELOPER v20.1',
/* originating_system */ 'Autodesk Translation Framework v14.21.0.0',
/* authorisation */ '');

FILE_SCHEMA (('AUTOMOTIVE_DESIGN { 1 0 10303 214 3 1 1 }'));
ENDSEC;

DATA;
#10=MECHANICAL_DESIGN_GEOMETRIC_PRESENTATION_REPRESENTATION('',(#13),#1145);
#11=SHAPE_REPRESENTATION_RELATIONSHIP('SRR','None',#1152,#12);
#12=ADVANCED_BREP_SHAPE_REPRESENTATION('',(#14),#1144);
#13=STYLED_ITEM('',(#1162),#14);
#14=MANIFOLD_SOLID_BREP('Body1',#693);
#15=FACE_BOUND('',#101,.T.);
#16=FACE_BOUND('',#104,.T.);
#17=FACE_BOUND('',#110,.T.);
#18=FACE_BOUND('',#111,.T.);
#19=FACE_BOUND('',#112,.T.);
#20=FACE_BOUND('',#113,.T.);
#21=FACE_BOUND('',#114,.T.);
#22=FACE_BOUND('',#115,.T.);
#23=FACE_BOUND('',#116,.T.);
#24=FACE_BOUND('',#117,.T.);
#25=FACE_BOUND('',#118,.T.);
#26=FACE_BOUND('',#119,.T.);
#27=FACE_BOUND('',#120,.T.);
#28=FACE_BOUND('',#121,.T.);
#29=FACE_BOUND('',#122,.T.);
#30=FACE_BOUND('',#123,.T.);
#31=FACE_BOUND('',#125,.T.);
#32=FACE_BOUND('',#126,.T.);
#33=FACE_BOUND('',#127,.T.);
#34=FACE_BOUND('',#128,.T.);
#35=FACE_BOUND('',#129,.T.);
#36=FACE_BOUND('',#130,.T.);
#37=FACE_BOUND('',#131,.T.);
#38=FACE_BOUND('',#132,.T.);
#39=FACE_BOUND('',#133,.T.);
#40=FACE_BOUND('',#134,.T.);
#41=FACE_BOUND('',#135,.T.);
#42=FACE_BOUND('',#136,.T.);
#43=FACE_BOUND('',#137,.T.);
#44=FACE_BOUND('',#138,.T.);
#45=PLANE('',#710);
#46=PLANE('',#715);
#47=PLANE('',#729);
#48=PLANE('',#736);
#49=PLANE('',#745);
#50=PLANE('',#746);
#51=PLANE('',#747);
#52=PLANE('',#748);
#53=PLANE('',#749);
#54=PLANE('',#750);
#55=PLANE('',#751);
#56=PLANE('',#752);
#57=PLANE('',#756);
#58=PLANE('',#757);
#59=PLANE('',#758);
#60=PLANE('',#759);
#61=PLANE('',#761);
#62=PLANE('',#762);
#63=PLANE('',#763);
#64=PLANE('',#764);
#65=FACE_OUTER_BOUND('',#99,.T.);
#66=FACE_OUTER_BOUND('',#100,.T.);
#67=FACE_OUTER_BOUND('',#102,.T.);
#68=FACE_OUTER_BOUND('',#103,.T.);
#69=FACE_OUTER_BOUND('',#105,.T.);
#70=FACE_OUTER_BOUND('',#106,.T.);
#71=FACE_OUTER_BOUND('',#107,.T.);
#72=FACE_OUTER_BOUND('',#108,.T.);
#73=FACE_OUTER_BOUND('',#109,.T.);
#74=FACE_OUTER_BOUND('',#124,.T.);
#75=FACE_OUTER_BOUND('',#139,.T.);
#76=FACE_OUTER_BOUND('',#140,.T.);
#77=FACE_OUTER_BOUND('',#141,.T.);
#78=FACE_OUTER_BOUND('',#142,.T.);
#79=FACE_OUTER_BOUND('',#143,.T.);
#80=FACE_OUTER_BOUND('',#144,.T.);
#81=FACE_OUTER_BOUND('',#145,.T.);
#82=FACE_OUTER_BOUND('',#146,.T.);
#83=FACE_OUTER_BOUND('',#147,.T.);
#84=FACE_OUTER_BOUND('',#148,.T.);
#85=FACE_OUTER_BOUND('',#149,.T.);
#86=FACE_OUTER_BOUND('',#150,.T.);
#87=FACE_OUTER_BOUND('',#151,.T.);
#88=FACE_OUTER_BOUND('',#152,.T.);
#89=FACE_OUTER_BOUND('',#153,.T.);
#90=FACE_OUTER_BOUND('',#154,.T.);
#91=FACE_OUTER_BOUND('',#155,.T.);
#92=FACE_OUTER_BOUND('',#156,.T.);
#93=FACE_OUTER_BOUND('',#157,.T.);
#94=FACE_OUTER_BOUND('',#158,.T.);
#95=FACE_OUTER_BOUND('',#159,.T.);
#96=FACE_OUTER_BOUND('',#160,.T.);
#97=FACE_OUTER_BOUND('',#161,.T.);
#98=FACE_OUTER_BOUND('',#162,.T.);
#99=EDGE_LOOP('',(#465,#466,#467,#468));
#100=EDGE_LOOP('',(#469));
#101=EDGE_LOOP('',(#470));
#102=EDGE_LOOP('',(#471,#472,#473,#474));
#103=EDGE_LOOP('',(#475));
#104=EDGE_LOOP('',(#476));
#105=EDGE_LOOP('',(#477,#478,#479,#480));
#106=EDGE_LOOP('',(#481,#482,#483,#484));
#107=EDGE_LOOP('',(#485,#486,#487,#488));
#108=EDGE_LOOP('',(#489,#490,#491,#492));
#109=EDGE_LOOP('',(#493,#494,#495,#496,#497,#498,#499,#500));
#110=EDGE_LOOP('',(#501));
#111=EDGE_LOOP('',(#502));
#112=EDGE_LOOP('',(#503));
#113=EDGE_LOOP('',(#504));
#114=EDGE_LOOP('',(#505));
#115=EDGE_LOOP('',(#506));
#116=EDGE_LOOP('',(#507));
#117=EDGE_LOOP('',(#508,#509,#510,#511));
#118=EDGE_LOOP('',(#512));
#119=EDGE_LOOP('',(#513));
#120=EDGE_LOOP('',(#514,#515,#516,#517));
#121=EDGE_LOOP('',(#518));
#122=EDGE_LOOP('',(#519));
#123=EDGE_LOOP('',(#520));
#124=EDGE_LOOP('',(#521,#522,#523,#524,#525,#526,#527,#528));
#125=EDGE_LOOP('',(#529));
#126=EDGE_LOOP('',(#530));
#127=EDGE_LOOP('',(#531));
#128=EDGE_LOOP('',(#532));
#129=EDGE_LOOP('',(#533));
#130=EDGE_LOOP('',(#534));
#131=EDGE_LOOP('',(#535));
#132=EDGE_LOOP('',(#536,#537,#538,#539));
#133=EDGE_LOOP('',(#540,#541,#542,#543));
#134=EDGE_LOOP('',(#544));
#135=EDGE_LOOP('',(#545));
#136=EDGE_LOOP('',(#546));
#137=EDGE_LOOP('',(#547));
#138=EDGE_LOOP('',(#548));
#139=EDGE_LOOP('',(#549,#550,#551,#552));
#140=EDGE_LOOP('',(#553,#554,#555,#556));
#141=EDGE_LOOP('',(#557,#558,#559,#560));
#142=EDGE_LOOP('',(#561,#562,#563,#564));
#143=EDGE_LOOP('',(#565,#566,#567,#568));
#144=EDGE_LOOP('',(#569,#570,#571,#572));
#145=EDGE_LOOP('',(#573,#574,#575,#576));
#146=EDGE_LOOP('',(#577,#578,#579,#580));
#147=EDGE_LOOP('',(#581,#582,#583,#584));
#148=EDGE_LOOP('',(#585,#586,#587,#588));
#149=EDGE_LOOP('',(#589,#590,#591,#592));
#150=EDGE_LOOP('',(#593,#594,#595,#596));
#151=EDGE_LOOP('',(#597,#598,#599,#600));
#152=EDGE_LOOP('',(#601,#602,#603,#604));
#153=EDGE_LOOP('',(#605,#606,#607,#608));
#154=EDGE_LOOP('',(#609,#610,#611,#612));
#155=EDGE_LOOP('',(#613,#614,#615,#616));
#156=EDGE_LOOP('',(#617,#618,#619,#620));
#157=EDGE_LOOP('',(#621,#622,#623,#624));
#158=EDGE_LOOP('',(#625,#626,#627,#628));
#159=EDGE_LOOP('',(#629,#630,#631,#632));
#160=EDGE_LOOP('',(#633,#634,#635,#636));
#161=EDGE_LOOP('',(#637,#638,#639,#640));
#162=EDGE_LOOP('',(#641,#642,#643,#644));
#163=LINE('',#962,#225);
#164=LINE('',#971,#226);
#165=LINE('',#980,#227);
#166=LINE('',#986,#228);
#167=LINE('',#992,#229);
#168=LINE('',#998,#230);
#169=LINE('',#1003,#231);
#170=LINE('',#1005,#232);
#171=LINE('',#1007,#233);
#172=LINE('',#1009,#234);
#173=LINE('',#1011,#235);
#174=LINE('',#1013,#236);
#175=LINE('',#1015,#237);
#176=LINE('',#1016,#238);
#177=LINE('',#1021,#239);
#178=LINE('',#1023,#240);
#179=LINE('',#1025,#241);
#180=LINE('',#1026,#242);
#181=LINE('',#1033,#243);
#182=LINE('',#1035,#244);
#183=LINE('',#1037,#245);
#184=LINE('',#1038,#246);
#185=LINE('',#1048,#247);
#186=LINE('',#1050,#248);
#187=LINE('',#1052,#249);
#188=LINE('',#1054,#250);
#189=LINE('',#1056,#251);
#190=LINE('',#1058,#252);
#191=LINE('',#1060,#253);
#192=LINE('',#1061,#254);
#193=LINE('',#1070,#255);
#194=LINE('',#1072,#256);
#195=LINE('',#1074,#257);
#196=LINE('',#1075,#258);
#197=LINE('',#1078,#259);
#198=LINE('',#1080,#260);
#199=LINE('',#1082,#261);
#200=LINE('',#1083,#262);
#201=LINE('',#1095,#263);
#202=LINE('',#1096,#264);
#203=LINE('',#1098,#265);
#204=LINE('',#1100,#266);
#205=LINE('',#1102,#267);
#206=LINE('',#1104,#268);
#207=LINE('',#1106,#269);
#208=LINE('',#1108,#270);
#209=LINE('',#1111,#271);
#210=LINE('',#1113,#272);
#211=LINE('',#1115,#273);
#212=LINE('',#1117,#274);
#213=LINE('',#1118,#275);
#214=LINE('',#1120,#276);
#215=LINE('',#1122,#277);
#216=LINE('',#1125,#278);
#217=LINE('',#1127,#279);
#218=LINE('',#1128,#280);
#219=LINE('',#1130,#281);
#220=LINE('',#1132,#282);
#221=LINE('',#1135,#283);
#222=LINE('',#1137,#284);
#223=LINE('',#1139,#285);
#224=LINE('',#1141,#286);
#225=VECTOR('',#775,3.5);
#226=VECTOR('',#786,3.5);
#227=VECTOR('',#797,1.5);
#228=VECTOR('',#804,1.5);
#229=VECTOR('',#811,1.5);
#230=VECTOR('',#818,1.5);
#231=VECTOR('',#823,35.3553390593275);
#232=VECTOR('',#824,100.);
#233=VECTOR('',#825,35.3553390593272);
#234=VECTOR('',#826,100.);
#235=VECTOR('',#827,35.355339059327);
#236=VECTOR('',#828,100.);
#237=VECTOR('',#829,35.3553390593275);
#238=VECTOR('',#830,99.9999999999995);
#239=VECTOR('',#833,13.);
#240=VECTOR('',#834,6.00000000000001);
#241=VECTOR('',#835,13.);
#242=VECTOR('',#836,6.00000000000001);
#243=VECTOR('',#841,13.);
#244=VECTOR('',#842,6.00000000000001);
#245=VECTOR('',#843,13.);
#246=VECTOR('',#844,6.00000000000001);
#247=VECTOR('',#853,35.3553390593275);
#248=VECTOR('',#854,99.9999999999995);
#249=VECTOR('',#855,35.3553390593275);
#250=VECTOR('',#856,100.);
#251=VECTOR('',#857,35.355339059327);
#252=VECTOR('',#858,100.);
#253=VECTOR('',#859,35.3553390593272);
#254=VECTOR('',#860,100.);
#255=VECTOR('',#867,6.00000000000001);
#256=VECTOR('',#868,13.);
#257=VECTOR('',#869,6.00000000000001);
#258=VECTOR('',#870,13.);
#259=VECTOR('',#871,6.00000000000001);
#260=VECTOR('',#872,13.);
#261=VECTOR('',#873,6.00000000000001);
#262=VECTOR('',#874,13.);
#263=VECTOR('',#887,3.);
#264=VECTOR('',#888,3.);
#265=VECTOR('',#891,3.);
#266=VECTOR('',#894,3.);
#267=VECTOR('',#897,3.);
#268=VECTOR('',#900,3.);
#269=VECTOR('',#903,3.);
#270=VECTOR('',#906,3.);
#271=VECTOR('',#911,1.75);
#272=VECTOR('',#914,1.75);
#273=VECTOR('',#917,1.75);
#274=VECTOR('',#920,3.);
#275=VECTOR('',#921,3.);
#276=VECTOR('',#924,3.);
#277=VECTOR('',#927,3.);
#278=VECTOR('',#932,1.75);
#279=VECTOR('',#935,3.);
#280=VECTOR('',#936,3.);
#281=VECTOR('',#939,3.);
#282=VECTOR('',#942,3.);
#283=VECTOR('',#947,1.675);
#284=VECTOR('',#950,1.675);
#285=VECTOR('',#953,1.675);
#286=VECTOR('',#956,1.675);
#287=CIRCLE('',#708,3.5);
#288=CIRCLE('',#709,3.5);
#289=CIRCLE('',#711,1.675);
#290=CIRCLE('',#713,3.5);
#291=CIRCLE('',#714,3.5);
#292=CIRCLE('',#716,1.675);
#293=CIRCLE('',#718,1.5);
#294=CIRCLE('',#719,1.5);
#295=CIRCLE('',#721,1.5);
#296=CIRCLE('',#722,1.5);
#297=CIRCLE('',#724,1.5);
#298=CIRCLE('',#725,1.5);
#299=CIRCLE('',#727,1.5);
#300=CIRCLE('',#728,1.5);
#301=CIRCLE('',#730,1.75);
#302=CIRCLE('',#731,1.675);
#303=CIRCLE('',#732,1.675);
#304=CIRCLE('',#733,1.75);
#305=CIRCLE('',#734,1.75);
#306=CIRCLE('',#735,1.75);
#307=CIRCLE('',#737,1.675);
#308=CIRCLE('',#738,1.675);
#309=CIRCLE('',#739,1.75);
#310=CIRCLE('',#740,1.675);
#311=CIRCLE('',#741,1.675);
#312=CIRCLE('',#742,1.75);
#313=CIRCLE('',#743,1.75);
#314=CIRCLE('',#744,1.75);
#315=VERTEX_POINT('',#959);
#316=VERTEX_POINT('',#961);
#317=VERTEX_POINT('',#965);
#318=VERTEX_POINT('',#968);
#319=VERTEX_POINT('',#970);
#320=VERTEX_POINT('',#974);
#321=VERTEX_POINT('',#977);
#322=VERTEX_POINT('',#979);
#323=VERTEX_POINT('',#983);
#324=VERTEX_POINT('',#985);
#325=VERTEX_POINT('',#989);
#326=VERTEX_POINT('',#991);
#327=VERTEX_POINT('',#995);
#328=VERTEX_POINT('',#997);
#329=VERTEX_POINT('',#1001);
#330=VERTEX_POINT('',#1002);
#331=VERTEX_POINT('',#1004);
#332=VERTEX_POINT('',#1006);
#333=VERTEX_POINT('',#1008);
#334=VERTEX_POINT('',#1010);
#335=VERTEX_POINT('',#1012);
#336=VERTEX_POINT('',#1014);
#337=VERTEX_POINT('',#1017);
#338=VERTEX_POINT('',#1019);
#339=VERTEX_POINT('',#1020);
#340=VERTEX_POINT('',#1022);
#341=VERTEX_POINT('',#1024);
#342=VERTEX_POINT('',#1027);
#343=VERTEX_POINT('',#1029);
#344=VERTEX_POINT('',#1031);
#345=VERTEX_POINT('',#1032);
#346=VERTEX_POINT('',#1034);
#347=VERTEX_POINT('',#1036);
#348=VERTEX_POINT('',#1039);
#349=VERTEX_POINT('',#1041);
#350=VERTEX_POINT('',#1043);
#351=VERTEX_POINT('',#1046);
#352=VERTEX_POINT('',#1047);
#353=VERTEX_POINT('',#1049);
#354=VERTEX_POINT('',#1051);
#355=VERTEX_POINT('',#1053);
#356=VERTEX_POINT('',#1055);
#357=VERTEX_POINT('',#1057);
#358=VERTEX_POINT('',#1059);
#359=VERTEX_POINT('',#1062);
#360=VERTEX_POINT('',#1064);
#361=VERTEX_POINT('',#1066);
#362=VERTEX_POINT('',#1068);
#363=VERTEX_POINT('',#1069);
#364=VERTEX_POINT('',#1071);
#365=VERTEX_POINT('',#1073);
#366=VERTEX_POINT('',#1076);
#367=VERTEX_POINT('',#1077);
#368=VERTEX_POINT('',#1079);
#369=VERTEX_POINT('',#1081);
#370=VERTEX_POINT('',#1084);
#371=VERTEX_POINT('',#1086);
#372=VERTEX_POINT('',#1088);
#373=VERTEX_POINT('',#1090);
#374=VERTEX_POINT('',#1092);
#375=EDGE_CURVE('',#315,#315,#287,.T.);
#376=EDGE_CURVE('',#315,#316,#163,.T.);
#377=EDGE_CURVE('',#316,#316,#288,.T.);
#378=EDGE_CURVE('',#317,#317,#289,.T.);
#379=EDGE_CURVE('',#318,#318,#290,.T.);
#380=EDGE_CURVE('',#318,#319,#164,.T.);
#381=EDGE_CURVE('',#319,#319,#291,.T.);
#382=EDGE_CURVE('',#320,#320,#292,.T.);
#383=EDGE_CURVE('',#321,#321,#293,.T.);
#384=EDGE_CURVE('',#321,#322,#165,.T.);
#385=EDGE_CURVE('',#322,#322,#294,.T.);
#386=EDGE_CURVE('',#323,#323,#295,.T.);
#387=EDGE_CURVE('',#323,#324,#166,.T.);
#388=EDGE_CURVE('',#324,#324,#296,.T.);
#389=EDGE_CURVE('',#325,#325,#297,.T.);
#390=EDGE_CURVE('',#325,#326,#167,.T.);
#391=EDGE_CURVE('',#326,#326,#298,.T.);
#392=EDGE_CURVE('',#327,#327,#299,.T.);
#393=EDGE_CURVE('',#327,#328,#168,.T.);
#394=EDGE_CURVE('',#328,#328,#300,.T.);
#395=EDGE_CURVE('',#329,#330,#169,.T.);
#396=EDGE_CURVE('',#331,#329,#170,.T.);
#397=EDGE_CURVE('',#332,#331,#171,.T.);
#398=EDGE_CURVE('',#333,#332,#172,.T.);
#399=EDGE_CURVE('',#334,#333,#173,.T.);
#400=EDGE_CURVE('',#335,#334,#174,.T.);
#401=EDGE_CURVE('',#336,#335,#175,.T.);
#402=EDGE_CURVE('',#330,#336,#176,.T.);
#403=EDGE_CURVE('',#337,#337,#301,.T.);
#404=EDGE_CURVE('',#338,#339,#177,.T.);
#405=EDGE_CURVE('',#340,#339,#178,.T.);
#406=EDGE_CURVE('',#341,#340,#179,.T.);
#407=EDGE_CURVE('',#341,#338,#180,.T.);
#408=EDGE_CURVE('',#342,#342,#302,.T.);
#409=EDGE_CURVE('',#343,#343,#303,.T.);
#410=EDGE_CURVE('',#344,#345,#181,.T.);
#411=EDGE_CURVE('',#345,#346,#182,.T.);
#412=EDGE_CURVE('',#347,#346,#183,.T.);
#413=EDGE_CURVE('',#344,#347,#184,.T.);
#414=EDGE_CURVE('',#348,#348,#304,.T.);
#415=EDGE_CURVE('',#349,#349,#305,.F.);
#416=EDGE_CURVE('',#350,#350,#306,.F.);
#417=EDGE_CURVE('',#351,#352,#185,.T.);
#418=EDGE_CURVE('',#352,#353,#186,.T.);
#419=EDGE_CURVE('',#353,#354,#187,.T.);
#420=EDGE_CURVE('',#354,#355,#188,.T.);
#421=EDGE_CURVE('',#355,#356,#189,.T.);
#422=EDGE_CURVE('',#356,#357,#190,.T.);
#423=EDGE_CURVE('',#357,#358,#191,.T.);
#424=EDGE_CURVE('',#358,#351,#192,.T.);
#425=EDGE_CURVE('',#359,#359,#307,.T.);
#426=EDGE_CURVE('',#360,#360,#308,.F.);
#427=EDGE_CURVE('',#361,#361,#309,.F.);
#428=EDGE_CURVE('',#362,#363,#193,.T.);
#429=EDGE_CURVE('',#362,#364,#194,.T.);
#430=EDGE_CURVE('',#364,#365,#195,.T.);
#431=EDGE_CURVE('',#363,#365,#196,.T.);
#432=EDGE_CURVE('',#366,#367,#197,.T.);
#433=EDGE_CURVE('',#367,#368,#198,.T.);
#434=EDGE_CURVE('',#369,#368,#199,.T.);
#435=EDGE_CURVE('',#366,#369,#200,.T.);
#436=EDGE_CURVE('',#370,#370,#310,.T.);
#437=EDGE_CURVE('',#371,#371,#311,.T.);
#438=EDGE_CURVE('',#372,#372,#312,.T.);
#439=EDGE_CURVE('',#373,#373,#313,.F.);
#440=EDGE_CURVE('',#374,#374,#314,.T.);
#441=EDGE_CURVE('',#329,#351,#201,.T.);
#442=EDGE_CURVE('',#330,#352,#202,.T.);
#443=EDGE_CURVE('',#331,#358,#203,.T.);
#444=EDGE_CURVE('',#332,#357,#204,.T.);
#445=EDGE_CURVE('',#333,#356,#205,.T.);
#446=EDGE_CURVE('',#334,#355,#206,.T.);
#447=EDGE_CURVE('',#335,#354,#207,.T.);
#448=EDGE_CURVE('',#336,#353,#208,.T.);
#449=EDGE_CURVE('',#374,#337,#209,.T.);
#450=EDGE_CURVE('',#373,#350,#210,.T.);
#451=EDGE_CURVE('',#361,#349,#211,.T.);
#452=EDGE_CURVE('',#362,#339,#212,.T.);
#453=EDGE_CURVE('',#364,#338,#213,.T.);
#454=EDGE_CURVE('',#363,#340,#214,.T.);
#455=EDGE_CURVE('',#365,#341,#215,.T.);
#456=EDGE_CURVE('',#372,#348,#216,.T.);
#457=EDGE_CURVE('',#367,#345,#217,.T.);
#458=EDGE_CURVE('',#368,#344,#218,.T.);
#459=EDGE_CURVE('',#366,#346,#219,.T.);
#460=EDGE_CURVE('',#369,#347,#220,.T.);
#461=EDGE_CURVE('',#360,#320,#221,.T.);
#462=EDGE_CURVE('',#359,#317,#222,.T.);
#463=EDGE_CURVE('',#371,#343,#223,.T.);
#464=EDGE_CURVE('',#370,#342,#224,.T.);
#465=ORIENTED_EDGE('',*,*,#375,.F.);
#466=ORIENTED_EDGE('',*,*,#376,.T.);
#467=ORIENTED_EDGE('',*,*,#377,.F.);
#468=ORIENTED_EDGE('',*,*,#376,.F.);
#469=ORIENTED_EDGE('',*,*,#375,.T.);
#470=ORIENTED_EDGE('',*,*,#378,.T.);
#471=ORIENTED_EDGE('',*,*,#379,.F.);
#472=ORIENTED_EDGE('',*,*,#380,.T.);
#473=ORIENTED_EDGE('',*,*,#381,.F.);
#474=ORIENTED_EDGE('',*,*,#380,.F.);
#475=ORIENTED_EDGE('',*,*,#379,.T.);
#476=ORIENTED_EDGE('',*,*,#382,.T.);
#477=ORIENTED_EDGE('',*,*,#383,.F.);
#478=ORIENTED_EDGE('',*,*,#384,.T.);
#479=ORIENTED_EDGE('',*,*,#385,.F.);
#480=ORIENTED_EDGE('',*,*,#384,.F.);
#481=ORIENTED_EDGE('',*,*,#386,.F.);
#482=ORIENTED_EDGE('',*,*,#387,.T.);
#483=ORIENTED_EDGE('',*,*,#388,.F.);
#484=ORIENTED_EDGE('',*,*,#387,.F.);
#485=ORIENTED_EDGE('',*,*,#389,.F.);
#486=ORIENTED_EDGE('',*,*,#390,.T.);
#487=ORIENTED_EDGE('',*,*,#391,.F.);
#488=ORIENTED_EDGE('',*,*,#390,.F.);
#489=ORIENTED_EDGE('',*,*,#392,.F.);
#490=ORIENTED_EDGE('',*,*,#393,.T.);
#491=ORIENTED_EDGE('',*,*,#394,.F.);
#492=ORIENTED_EDGE('',*,*,#393,.F.);
#493=ORIENTED_EDGE('',*,*,#395,.F.);
#494=ORIENTED_EDGE('',*,*,#396,.F.);
#495=ORIENTED_EDGE('',*,*,#397,.F.);
#496=ORIENTED_EDGE('',*,*,#398,.F.);
#497=ORIENTED_EDGE('',*,*,#399,.F.);
#498=ORIENTED_EDGE('',*,*,#400,.F.);
#499=ORIENTED_EDGE('',*,*,#401,.F.);
#500=ORIENTED_EDGE('',*,*,#402,.F.);
#501=ORIENTED_EDGE('',*,*,#377,.T.);
#502=ORIENTED_EDGE('',*,*,#381,.T.);
#503=ORIENTED_EDGE('',*,*,#385,.T.);
#504=ORIENTED_EDGE('',*,*,#388,.T.);
#505=ORIENTED_EDGE('',*,*,#391,.T.);
#506=ORIENTED_EDGE('',*,*,#394,.T.);
#507=ORIENTED_EDGE('',*,*,#403,.F.);
#508=ORIENTED_EDGE('',*,*,#404,.T.);
#509=ORIENTED_EDGE('',*,*,#405,.F.);
#510=ORIENTED_EDGE('',*,*,#406,.F.);
#511=ORIENTED_EDGE('',*,*,#407,.T.);
#512=ORIENTED_EDGE('',*,*,#408,.T.);
#513=ORIENTED_EDGE('',*,*,#409,.T.);
#514=ORIENTED_EDGE('',*,*,#410,.T.);
#515=ORIENTED_EDGE('',*,*,#411,.T.);
#516=ORIENTED_EDGE('',*,*,#412,.F.);
#517=ORIENTED_EDGE('',*,*,#413,.F.);
#518=ORIENTED_EDGE('',*,*,#414,.F.);
#519=ORIENTED_EDGE('',*,*,#415,.T.);
#520=ORIENTED_EDGE('',*,*,#416,.T.);
#521=ORIENTED_EDGE('',*,*,#417,.T.);
#522=ORIENTED_EDGE('',*,*,#418,.T.);
#523=ORIENTED_EDGE('',*,*,#419,.T.);
#524=ORIENTED_EDGE('',*,*,#420,.T.);
#525=ORIENTED_EDGE('',*,*,#421,.T.);
#526=ORIENTED_EDGE('',*,*,#422,.T.);
#527=ORIENTED_EDGE('',*,*,#423,.T.);
#528=ORIENTED_EDGE('',*,*,#424,.T.);
#529=ORIENTED_EDGE('',*,*,#425,.F.);
#530=ORIENTED_EDGE('',*,*,#426,.T.);
#531=ORIENTED_EDGE('',*,*,#383,.T.);
#532=ORIENTED_EDGE('',*,*,#386,.T.);
#533=ORIENTED_EDGE('',*,*,#389,.T.);
#534=ORIENTED_EDGE('',*,*,#392,.T.);
#535=ORIENTED_EDGE('',*,*,#427,.T.);
#536=ORIENTED_EDGE('',*,*,#428,.F.);
#537=ORIENTED_EDGE('',*,*,#429,.T.);
#538=ORIENTED_EDGE('',*,*,#430,.T.);
#539=ORIENTED_EDGE('',*,*,#431,.F.);
#540=ORIENTED_EDGE('',*,*,#432,.T.);
#541=ORIENTED_EDGE('',*,*,#433,.T.);
#542=ORIENTED_EDGE('',*,*,#434,.F.);
#543=ORIENTED_EDGE('',*,*,#435,.F.);
#544=ORIENTED_EDGE('',*,*,#436,.F.);
#545=ORIENTED_EDGE('',*,*,#437,.F.);
#546=ORIENTED_EDGE('',*,*,#438,.F.);
#547=ORIENTED_EDGE('',*,*,#439,.T.);
#548=ORIENTED_EDGE('',*,*,#440,.F.);
#549=ORIENTED_EDGE('',*,*,#417,.F.);
#550=ORIENTED_EDGE('',*,*,#441,.F.);
#551=ORIENTED_EDGE('',*,*,#395,.T.);
#552=ORIENTED_EDGE('',*,*,#442,.T.);
#553=ORIENTED_EDGE('',*,*,#424,.F.);
#554=ORIENTED_EDGE('',*,*,#443,.F.);
#555=ORIENTED_EDGE('',*,*,#396,.T.);
#556=ORIENTED_EDGE('',*,*,#441,.T.);
#557=ORIENTED_EDGE('',*,*,#423,.F.);
#558=ORIENTED_EDGE('',*,*,#444,.F.);
#559=ORIENTED_EDGE('',*,*,#397,.T.);
#560=ORIENTED_EDGE('',*,*,#443,.T.);
#561=ORIENTED_EDGE('',*,*,#422,.F.);
#562=ORIENTED_EDGE('',*,*,#445,.F.);
#563=ORIENTED_EDGE('',*,*,#398,.T.);
#564=ORIENTED_EDGE('',*,*,#444,.T.);
#565=ORIENTED_EDGE('',*,*,#421,.F.);
#566=ORIENTED_EDGE('',*,*,#446,.F.);
#567=ORIENTED_EDGE('',*,*,#399,.T.);
#568=ORIENTED_EDGE('',*,*,#445,.T.);
#569=ORIENTED_EDGE('',*,*,#420,.F.);
#570=ORIENTED_EDGE('',*,*,#447,.F.);
#571=ORIENTED_EDGE('',*,*,#400,.T.);
#572=ORIENTED_EDGE('',*,*,#446,.T.);
#573=ORIENTED_EDGE('',*,*,#419,.F.);
#574=ORIENTED_EDGE('',*,*,#448,.F.);
#575=ORIENTED_EDGE('',*,*,#401,.T.);
#576=ORIENTED_EDGE('',*,*,#447,.T.);
#577=ORIENTED_EDGE('',*,*,#418,.F.);
#578=ORIENTED_EDGE('',*,*,#442,.F.);
#579=ORIENTED_EDGE('',*,*,#402,.T.);
#580=ORIENTED_EDGE('',*,*,#448,.T.);
#581=ORIENTED_EDGE('',*,*,#440,.T.);
#582=ORIENTED_EDGE('',*,*,#449,.T.);
#583=ORIENTED_EDGE('',*,*,#403,.T.);
#584=ORIENTED_EDGE('',*,*,#449,.F.);
#585=ORIENTED_EDGE('',*,*,#439,.F.);
#586=ORIENTED_EDGE('',*,*,#450,.T.);
#587=ORIENTED_EDGE('',*,*,#416,.F.);
#588=ORIENTED_EDGE('',*,*,#450,.F.);
#589=ORIENTED_EDGE('',*,*,#427,.F.);
#590=ORIENTED_EDGE('',*,*,#451,.T.);
#591=ORIENTED_EDGE('',*,*,#415,.F.);
#592=ORIENTED_EDGE('',*,*,#451,.F.);
#593=ORIENTED_EDGE('',*,*,#452,.T.);
#594=ORIENTED_EDGE('',*,*,#404,.F.);
#595=ORIENTED_EDGE('',*,*,#453,.F.);
#596=ORIENTED_EDGE('',*,*,#429,.F.);
#597=ORIENTED_EDGE('',*,*,#428,.T.);
#598=ORIENTED_EDGE('',*,*,#454,.T.);
#599=ORIENTED_EDGE('',*,*,#405,.T.);
#600=ORIENTED_EDGE('',*,*,#452,.F.);
#601=ORIENTED_EDGE('',*,*,#431,.T.);
#602=ORIENTED_EDGE('',*,*,#455,.T.);
#603=ORIENTED_EDGE('',*,*,#406,.T.);
#604=ORIENTED_EDGE('',*,*,#454,.F.);
#605=ORIENTED_EDGE('',*,*,#453,.T.);
#606=ORIENTED_EDGE('',*,*,#407,.F.);
#607=ORIENTED_EDGE('',*,*,#455,.F.);
#608=ORIENTED_EDGE('',*,*,#430,.F.);
#609=ORIENTED_EDGE('',*,*,#438,.T.);
#610=ORIENTED_EDGE('',*,*,#456,.T.);
#611=ORIENTED_EDGE('',*,*,#414,.T.);
#612=ORIENTED_EDGE('',*,*,#456,.F.);
#613=ORIENTED_EDGE('',*,*,#457,.T.);
#614=ORIENTED_EDGE('',*,*,#410,.F.);
#615=ORIENTED_EDGE('',*,*,#458,.F.);
#616=ORIENTED_EDGE('',*,*,#433,.F.);
#617=ORIENTED_EDGE('',*,*,#459,.T.);
#618=ORIENTED_EDGE('',*,*,#411,.F.);
#619=ORIENTED_EDGE('',*,*,#457,.F.);
#620=ORIENTED_EDGE('',*,*,#432,.F.);
#621=ORIENTED_EDGE('',*,*,#435,.T.);
#622=ORIENTED_EDGE('',*,*,#460,.T.);
#623=ORIENTED_EDGE('',*,*,#412,.T.);
#624=ORIENTED_EDGE('',*,*,#459,.F.);
#625=ORIENTED_EDGE('',*,*,#434,.T.);
#626=ORIENTED_EDGE('',*,*,#458,.T.);
#627=ORIENTED_EDGE('',*,*,#413,.T.);
#628=ORIENTED_EDGE('',*,*,#460,.F.);
#629=ORIENTED_EDGE('',*,*,#426,.F.);
#630=ORIENTED_EDGE('',*,*,#461,.T.);
#631=ORIENTED_EDGE('',*,*,#382,.F.);
#632=ORIENTED_EDGE('',*,*,#461,.F.);
#633=ORIENTED_EDGE('',*,*,#425,.T.);
#634=ORIENTED_EDGE('',*,*,#462,.T.);
#635=ORIENTED_EDGE('',*,*,#378,.F.);
#636=ORIENTED_EDGE('',*,*,#462,.F.);
#637=ORIENTED_EDGE('',*,*,#437,.T.);
#638=ORIENTED_EDGE('',*,*,#463,.T.);
#639=ORIENTED_EDGE('',*,*,#409,.F.);
#640=ORIENTED_EDGE('',*,*,#463,.F.);
#641=ORIENTED_EDGE('',*,*,#436,.T.);
#642=ORIENTED_EDGE('',*,*,#464,.T.);
#643=ORIENTED_EDGE('',*,*,#408,.F.);
#644=ORIENTED_EDGE('',*,*,#464,.F.);
#645=CYLINDRICAL_SURFACE('',#707,3.5);
#646=CYLINDRICAL_SURFACE('',#712,3.5);
#647=CYLINDRICAL_SURFACE('',#717,1.5);
#648=CYLINDRICAL_SURFACE('',#720,1.5);
#649=CYLINDRICAL_SURFACE('',#723,1.5);
#650=CYLINDRICAL_SURFACE('',#726,1.5);
#651=CYLINDRICAL_SURFACE('',#753,1.75);
#652=CYLINDRICAL_SURFACE('',#754,1.75);
#653=CYLINDRICAL_SURFACE('',#755,1.75);
#654=CYLINDRICAL_SURFACE('',#760,1.75);
#655=CYLINDRICAL_SURFACE('',#765,1.675);
#656=CYLINDRICAL_SURFACE('',#766,1.675);
#657=CYLINDRICAL_SURFACE('',#767,1.675);
#658=CYLINDRICAL_SURFACE('',#768,1.675);
#659=ADVANCED_FACE('',(#65),#645,.T.);
#660=ADVANCED_FACE('',(#66,#15),#45,.F.);
#661=ADVANCED_FACE('',(#67),#646,.T.);
#662=ADVANCED_FACE('',(#68,#16),#46,.F.);
#663=ADVANCED_FACE('',(#69),#647,.F.);
#664=ADVANCED_FACE('',(#70),#648,.F.);
#665=ADVANCED_FACE('',(#71),#649,.F.);
#666=ADVANCED_FACE('',(#72),#650,.F.);
#667=ADVANCED_FACE('',(#73,#17,#18,#19,#20,#21,#22,#23,#24,#25,#26,#27,
#28,#29,#30),#47,.F.);
#668=ADVANCED_FACE('',(#74,#31,#32,#33,#34,#35,#36,#37,#38,#39,#40,#41,
#42,#43,#44),#48,.T.);
#669=ADVANCED_FACE('',(#75),#49,.T.);
#670=ADVANCED_FACE('',(#76),#50,.T.);
#671=ADVANCED_FACE('',(#77),#51,.T.);
#672=ADVANCED_FACE('',(#78),#52,.T.);
#673=ADVANCED_FACE('',(#79),#53,.T.);
#674=ADVANCED_FACE('',(#80),#54,.T.);
#675=ADVANCED_FACE('',(#81),#55,.T.);
#676=ADVANCED_FACE('',(#82),#56,.T.);
#677=ADVANCED_FACE('',(#83),#651,.F.);
#678=ADVANCED_FACE('',(#84),#652,.F.);
#679=ADVANCED_FACE('',(#85),#653,.F.);
#680=ADVANCED_FACE('',(#86),#57,.T.);
#681=ADVANCED_FACE('',(#87),#58,.F.);
#682=ADVANCED_FACE('',(#88),#59,.F.);
#683=ADVANCED_FACE('',(#89),#60,.T.);
#684=ADVANCED_FACE('',(#90),#654,.F.);
#685=ADVANCED_FACE('',(#91),#61,.T.);
#686=ADVANCED_FACE('',(#92),#62,.T.);
#687=ADVANCED_FACE('',(#93),#63,.F.);
#688=ADVANCED_FACE('',(#94),#64,.F.);
#689=ADVANCED_FACE('',(#95),#655,.F.);
#690=ADVANCED_FACE('',(#96),#656,.F.);
#691=ADVANCED_FACE('',(#97),#657,.F.);
#692=ADVANCED_FACE('',(#98),#658,.F.);
#693=CLOSED_SHELL('',(#659,#660,#661,#662,#663,#664,#665,#666,#667,#668,
#669,#670,#671,#672,#673,#674,#675,#676,#677,#678,#679,#680,#681,#682,#683,
#684,#685,#686,#687,#688,#689,#690,#691,#692));
#694=DERIVED_UNIT_ELEMENT(#696,1.);
#695=DERIVED_UNIT_ELEMENT(#1147,-3.);
#696=(
MASS_UNIT()
NAMED_UNIT(*)
SI_UNIT(.KILO.,.GRAM.)
);
#697=DERIVED_UNIT((#694,#695));
#698=MEASURE_REPRESENTATION_ITEM('density measure',
POSITIVE_RATIO_MEASURE(7850.),#697);
#699=PROPERTY_DEFINITION_REPRESENTATION(#704,#701);
#700=PROPERTY_DEFINITION_REPRESENTATION(#705,#702);
#701=REPRESENTATION('material name',(#703),#1144);
#702=REPRESENTATION('density',(#698),#1144);
#703=DESCRIPTIVE_REPRESENTATION_ITEM('Steel','Steel');
#704=PROPERTY_DEFINITION('material property','material name',#1154);
#705=PROPERTY_DEFINITION('material property','density of part',#1154);
#706=AXIS2_PLACEMENT_3D('',#957,#769,#770);
#707=AXIS2_PLACEMENT_3D('',#958,#771,#772);
#708=AXIS2_PLACEMENT_3D('',#960,#773,#774);
#709=AXIS2_PLACEMENT_3D('',#963,#776,#777);
#710=AXIS2_PLACEMENT_3D('',#964,#778,#779);
#711=AXIS2_PLACEMENT_3D('',#966,#780,#781);
#712=AXIS2_PLACEMENT_3D('',#967,#782,#783);
#713=AXIS2_PLACEMENT_3D('',#969,#784,#785);
#714=AXIS2_PLACEMENT_3D('',#972,#787,#788);
#715=AXIS2_PLACEMENT_3D('',#973,#789,#790);
#716=AXIS2_PLACEMENT_3D('',#975,#791,#792);
#717=AXIS2_PLACEMENT_3D('',#976,#793,#794);
#718=AXIS2_PLACEMENT_3D('',#978,#795,#796);
#719=AXIS2_PLACEMENT_3D('',#981,#798,#799);
#720=AXIS2_PLACEMENT_3D('',#982,#800,#801);
#721=AXIS2_PLACEMENT_3D('',#984,#802,#803);
#722=AXIS2_PLACEMENT_3D('',#987,#805,#806);
#723=AXIS2_PLACEMENT_3D('',#988,#807,#808);
#724=AXIS2_PLACEMENT_3D('',#990,#809,#810);
#725=AXIS2_PLACEMENT_3D('',#993,#812,#813);
#726=AXIS2_PLACEMENT_3D('',#994,#814,#815);
#727=AXIS2_PLACEMENT_3D('',#996,#816,#817);
#728=AXIS2_PLACEMENT_3D('',#999,#819,#820);
#729=AXIS2_PLACEMENT_3D('',#1000,#821,#822);
#730=AXIS2_PLACEMENT_3D('',#1018,#831,#832);
#731=AXIS2_PLACEMENT_3D('',#1028,#837,#838);
#732=AXIS2_PLACEMENT_3D('',#1030,#839,#840);
#733=AXIS2_PLACEMENT_3D('',#1040,#845,#846);
#734=AXIS2_PLACEMENT_3D('',#1042,#847,#848);
#735=AXIS2_PLACEMENT_3D('',#1044,#849,#850);
#736=AXIS2_PLACEMENT_3D('',#1045,#851,#852);
#737=AXIS2_PLACEMENT_3D('',#1063,#861,#862);
#738=AXIS2_PLACEMENT_3D('',#1065,#863,#864);
#739=AXIS2_PLACEMENT_3D('',#1067,#865,#866);
#740=AXIS2_PLACEMENT_3D('',#1085,#875,#876);
#741=AXIS2_PLACEMENT_3D('',#1087,#877,#878);
#742=AXIS2_PLACEMENT_3D('',#1089,#879,#880);
#743=AXIS2_PLACEMENT_3D('',#1091,#881,#882);
#744=AXIS2_PLACEMENT_3D('',#1093,#883,#884);
#745=AXIS2_PLACEMENT_3D('',#1094,#885,#886);
#746=AXIS2_PLACEMENT_3D('',#1097,#889,#890);
#747=AXIS2_PLACEMENT_3D('',#1099,#892,#893);
#748=AXIS2_PLACEMENT_3D('',#1101,#895,#896);
#749=AXIS2_PLACEMENT_3D('',#1103,#898,#899);
#750=AXIS2_PLACEMENT_3D('',#1105,#901,#902);
#751=AXIS2_PLACEMENT_3D('',#1107,#904,#905);
#752=AXIS2_PLACEMENT_3D('',#1109,#907,#908);
#753=AXIS2_PLACEMENT_3D('',#1110,#909,#910);
#754=AXIS2_PLACEMENT_3D('',#1112,#912,#913);
#755=AXIS2_PLACEMENT_3D('',#1114,#915,#916);
#756=AXIS2_PLACEMENT_3D('',#1116,#918,#919);
#757=AXIS2_PLACEMENT_3D('',#1119,#922,#923);
#758=AXIS2_PLACEMENT_3D('',#1121,#925,#926);
#759=AXIS2_PLACEMENT_3D('',#1123,#928,#929);
#760=AXIS2_PLACEMENT_3D('',#1124,#930,#931);
#761=AXIS2_PLACEMENT_3D('',#1126,#933,#934);
#762=AXIS2_PLACEMENT_3D('',#1129,#937,#938);
#763=AXIS2_PLACEMENT_3D('',#1131,#940,#941);
#764=AXIS2_PLACEMENT_3D('',#1133,#943,#944);
#765=AXIS2_PLACEMENT_3D('',#1134,#945,#946);
#766=AXIS2_PLACEMENT_3D('',#1136,#948,#949);
#767=AXIS2_PLACEMENT_3D('',#1138,#951,#952);
#768=AXIS2_PLACEMENT_3D('',#1140,#954,#955);
#769=DIRECTION('axis',(0.,0.,1.));
#770=DIRECTION('refdir',(1.,0.,0.));
#771=DIRECTION('center_axis',(0.,1.,0.));
#772=DIRECTION('ref_axis',(1.,0.,0.));
#773=DIRECTION('center_axis',(0.,1.,0.));
#774=DIRECTION('ref_axis',(1.,0.,0.));
#775=DIRECTION('',(0.,-1.,0.));
#776=DIRECTION('center_axis',(0.,-1.,0.));
#777=DIRECTION('ref_axis',(1.,0.,0.));
#778=DIRECTION('center_axis',(0.,-1.,0.));
#779=DIRECTION('ref_axis',(1.,0.,0.));
#780=DIRECTION('center_axis',(0.,-1.,0.));
#781=DIRECTION('ref_axis',(1.,0.,0.));
#782=DIRECTION('center_axis',(0.,1.,0.));
#783=DIRECTION('ref_axis',(1.,0.,0.));
#784=DIRECTION('center_axis',(0.,1.,0.));
#785=DIRECTION('ref_axis',(1.,0.,0.));
#786=DIRECTION('',(0.,-1.,0.));
#787=DIRECTION('center_axis',(0.,-1.,0.));
#788=DIRECTION('ref_axis',(1.,0.,0.));
#789=DIRECTION('center_axis',(0.,-1.,0.));
#790=DIRECTION('ref_axis',(1.,0.,0.));
#791=DIRECTION('center_axis',(0.,-1.,0.));
#792=DIRECTION('ref_axis',(1.,0.,0.));
#793=DIRECTION('center_axis',(0.,1.,0.));
#794=DIRECTION('ref_axis',(1.,0.,0.));
#795=DIRECTION('center_axis',(0.,1.,0.));
#796=DIRECTION('ref_axis',(1.,0.,0.));
#797=DIRECTION('',(0.,1.,0.));
#798=DIRECTION('center_axis',(0.,-1.,0.));
#799=DIRECTION('ref_axis',(1.,0.,0.));
#800=DIRECTION('center_axis',(0.,1.,0.));
#801=DIRECTION('ref_axis',(1.,0.,0.));
#802=DIRECTION('center_axis',(0.,1.,0.));
#803=DIRECTION('ref_axis',(1.,0.,0.));
#804=DIRECTION('',(0.,1.,0.));
#805=DIRECTION('center_axis',(0.,-1.,0.));
#806=DIRECTION('ref_axis',(1.,0.,0.));
#807=DIRECTION('center_axis',(0.,1.,0.));
#808=DIRECTION('ref_axis',(1.,0.,0.));
#809=DIRECTION('center_axis',(0.,1.,0.));
#810=DIRECTION('ref_axis',(1.,0.,0.));
#811=DIRECTION('',(0.,1.,0.));
#812=DIRECTION('center_axis',(0.,-1.,0.));
#813=DIRECTION('ref_axis',(1.,0.,0.));
#814=DIRECTION('center_axis',(0.,1.,0.));
#815=DIRECTION('ref_axis',(1.,0.,0.));
#816=DIRECTION('center_axis',(0.,1.,0.));
#817=DIRECTION('ref_axis',(1.,0.,0.));
#818=DIRECTION('',(0.,1.,0.));
#819=DIRECTION('center_axis',(0.,-1.,0.));
#820=DIRECTION('ref_axis',(1.,0.,0.));
#821=DIRECTION('center_axis',(0.,-1.,0.));
#822=DIRECTION('ref_axis',(0.,0.,-1.));
#823=DIRECTION('',(0.707106781186551,0.,-0.707106781186543));
#824=DIRECTION('',(0.,0.,-1.));
#825=DIRECTION('',(-0.707106781186547,0.,-0.707106781186548));
#826=DIRECTION('',(-1.,0.,0.));
#827=DIRECTION('',(-0.707106781186551,0.,0.707106781186544));
#828=DIRECTION('',(0.,0.,1.));
#829=DIRECTION('',(0.707106781186551,0.,0.707106781186543));
#830=DIRECTION('',(1.,0.,0.));
#831=DIRECTION('center_axis',(0.,1.,0.));
#832=DIRECTION('ref_axis',(0.,0.,1.));
#833=DIRECTION('',(0.,0.,1.));
#834=DIRECTION('',(1.,0.,0.));
#835=DIRECTION('',(0.,0.,1.));
#836=DIRECTION('',(1.,0.,0.));
#837=DIRECTION('center_axis',(0.,-1.,0.));
#838=DIRECTION('ref_axis',(0.,0.,-1.));
#839=DIRECTION('center_axis',(0.,-1.,0.));
#840=DIRECTION('ref_axis',(0.,0.,-1.));
#841=DIRECTION('',(0.,0.,1.));
#842=DIRECTION('',(-1.,0.,0.));
#843=DIRECTION('',(0.,0.,1.));
#844=DIRECTION('',(-1.,0.,0.));
#845=DIRECTION('center_axis',(0.,1.,0.));
#846=DIRECTION('ref_axis',(0.,0.,1.));
#847=DIRECTION('center_axis',(0.,1.,0.));
#848=DIRECTION('ref_axis',(0.,0.,1.));
#849=DIRECTION('center_axis',(0.,1.,0.));
#850=DIRECTION('ref_axis',(0.,0.,1.));
#851=DIRECTION('center_axis',(0.,-1.,0.));
#852=DIRECTION('ref_axis',(0.,0.,-1.));
#853=DIRECTION('',(0.707106781186551,0.,-0.707106781186543));
#854=DIRECTION('',(1.,0.,0.));
#855=DIRECTION('',(0.707106781186551,0.,0.707106781186543));
#856=DIRECTION('',(0.,0.,1.));
#857=DIRECTION('',(-0.707106781186551,0.,0.707106781186544));
#858=DIRECTION('',(-1.,0.,0.));
#859=DIRECTION('',(-0.707106781186547,0.,-0.707106781186548));
#860=DIRECTION('',(0.,0.,-1.));
#861=DIRECTION('center_axis',(0.,-1.,0.));
#862=DIRECTION('ref_axis',(0.,0.,-1.));
#863=DIRECTION('center_axis',(0.,-1.,0.));
#864=DIRECTION('ref_axis',(0.,0.,-1.));
#865=DIRECTION('center_axis',(0.,-1.,0.));
#866=DIRECTION('ref_axis',(0.,0.,-1.));
#867=DIRECTION('',(-1.,0.,0.));
#868=DIRECTION('',(0.,0.,-1.));
#869=DIRECTION('',(-1.,0.,0.));
#870=DIRECTION('',(0.,0.,-1.));
#871=DIRECTION('',(1.,0.,0.));
#872=DIRECTION('',(0.,0.,-1.));
#873=DIRECTION('',(1.,0.,0.));
#874=DIRECTION('',(0.,0.,-1.));
#875=DIRECTION('center_axis',(0.,-1.,0.));
#876=DIRECTION('ref_axis',(0.,0.,-1.));
#877=DIRECTION('center_axis',(0.,-1.,0.));
#878=DIRECTION('ref_axis',(0.,0.,-1.));
#879=DIRECTION('center_axis',(0.,-1.,0.));
#880=DIRECTION('ref_axis',(0.,0.,-1.));
#881=DIRECTION('center_axis',(0.,-1.,0.));
#882=DIRECTION('ref_axis',(0.,0.,-1.));
#883=DIRECTION('center_axis',(0.,-1.,0.));
#884=DIRECTION('ref_axis',(0.,0.,-1.));
#885=DIRECTION('center_axis',(-0.707106781186543,0.,-0.707106781186552));
#886=DIRECTION('ref_axis',(-0.707106781186552,0.,0.707106781186543));
#887=DIRECTION('',(0.,-1.,0.));
#888=DIRECTION('',(0.,-1.,0.));
#889=DIRECTION('center_axis',(-1.,0.,0.));
#890=DIRECTION('ref_axis',(0.,0.,1.));
#891=DIRECTION('',(0.,-1.,0.));
#892=DIRECTION('center_axis',(-0.707106781186548,0.,0.707106781186547));
#893=DIRECTION('ref_axis',(0.707106781186547,0.,0.707106781186548));
#894=DIRECTION('',(0.,-1.,0.));
#895=DIRECTION('center_axis',(0.,0.,1.));
#896=DIRECTION('ref_axis',(1.,0.,0.));
#897=DIRECTION('',(0.,-1.,0.));
#898=DIRECTION('center_axis',(0.707106781186544,0.,0.707106781186552));
#899=DIRECTION('ref_axis',(0.707106781186552,0.,-0.707106781186544));
#900=DIRECTION('',(0.,-1.,0.));
#901=DIRECTION('center_axis',(1.,0.,0.));
#902=DIRECTION('ref_axis',(0.,0.,-1.));
#903=DIRECTION('',(0.,-1.,0.));
#904=DIRECTION('center_axis',(0.707106781186543,0.,-0.707106781186552));
#905=DIRECTION('ref_axis',(-0.707106781186552,0.,-0.707106781186543));
#906=DIRECTION('',(0.,-1.,0.));
#907=DIRECTION('center_axis',(0.,0.,-1.));
#908=DIRECTION('ref_axis',(-1.,0.,0.));
#909=DIRECTION('center_axis',(0.,1.,0.));
#910=DIRECTION('ref_axis',(0.,0.,1.));
#911=DIRECTION('',(0.,1.,0.));
#912=DIRECTION('center_axis',(0.,1.,0.));
#913=DIRECTION('ref_axis',(0.,0.,1.));
#914=DIRECTION('',(0.,1.,0.));
#915=DIRECTION('center_axis',(0.,1.,0.));
#916=DIRECTION('ref_axis',(0.,0.,1.));
#917=DIRECTION('',(0.,1.,0.));
#918=DIRECTION('center_axis',(-1.,0.,0.));
#919=DIRECTION('ref_axis',(0.,0.,1.));
#920=DIRECTION('',(0.,1.,0.));
#921=DIRECTION('',(0.,1.,0.));
#922=DIRECTION('center_axis',(0.,0.,1.));
#923=DIRECTION('ref_axis',(1.,0.,0.));
#924=DIRECTION('',(0.,1.,0.));
#925=DIRECTION('center_axis',(-1.,0.,0.));
#926=DIRECTION('ref_axis',(0.,0.,1.));
#927=DIRECTION('',(0.,1.,0.));
#928=DIRECTION('center_axis',(0.,0.,1.));
#929=DIRECTION('ref_axis',(1.,0.,0.));
#930=DIRECTION('center_axis',(0.,1.,0.));
#931=DIRECTION('ref_axis',(0.,0.,1.));
#932=DIRECTION('',(0.,1.,0.));
#933=DIRECTION('center_axis',(-1.,0.,0.));
#934=DIRECTION('ref_axis',(0.,0.,1.));
#935=DIRECTION('',(0.,1.,0.));
#936=DIRECTION('',(0.,1.,0.));
#937=DIRECTION('center_axis',(0.,0.,-1.));
#938=DIRECTION('ref_axis',(-1.,0.,0.));
#939=DIRECTION('',(0.,1.,0.));
#940=DIRECTION('center_axis',(-1.,0.,0.));
#941=DIRECTION('ref_axis',(0.,0.,1.));
#942=DIRECTION('',(0.,1.,0.));
#943=DIRECTION('center_axis',(0.,0.,-1.));
#944=DIRECTION('ref_axis',(-1.,0.,0.));
#945=DIRECTION('center_axis',(0.,1.,0.));
#946=DIRECTION('ref_axis',(0.,0.,1.));
#947=DIRECTION('',(0.,1.,0.));
#948=DIRECTION('center_axis',(0.,1.,0.));
#949=DIRECTION('ref_axis',(0.,0.,1.));
#950=DIRECTION('',(0.,1.,0.));
#951=DIRECTION('center_axis',(0.,1.,0.));
#952=DIRECTION('ref_axis',(0.,0.,1.));
#953=DIRECTION('',(0.,1.,0.));
#954=DIRECTION('center_axis',(0.,1.,0.));
#955=DIRECTION('ref_axis',(0.,0.,1.));
#956=DIRECTION('',(0.,1.,0.));
#957=CARTESIAN_POINT('',(0.,0.,0.));
#958=CARTESIAN_POINT('Origin',(19.7,0.,49.9999999999999));
#959=CARTESIAN_POINT('',(16.2,9.,49.9999999999999));
#960=CARTESIAN_POINT('Origin',(19.7,9.,49.9999999999999));
#961=CARTESIAN_POINT('',(16.2,3.,49.9999999999999));
#962=CARTESIAN_POINT('',(16.2,0.,49.9999999999999));
#963=CARTESIAN_POINT('Origin',(19.7,3.,49.9999999999999));
#964=CARTESIAN_POINT('Origin',(19.7,9.,49.9999999999999));
#965=CARTESIAN_POINT('',(19.7,9.,48.3249999999999));
#966=CARTESIAN_POINT('Origin',(19.7,9.,49.9999999999999));
#967=CARTESIAN_POINT('Origin',(-19.7,0.,49.9999999999999));
#968=CARTESIAN_POINT('',(-23.2,9.,49.9999999999999));
#969=CARTESIAN_POINT('Origin',(-19.7,9.,49.9999999999999));
#970=CARTESIAN_POINT('',(-23.2,3.,49.9999999999999));
#971=CARTESIAN_POINT('',(-23.2,0.,49.9999999999999));
#972=CARTESIAN_POINT('Origin',(-19.7,3.,49.9999999999999));
#973=CARTESIAN_POINT('Origin',(-19.7,9.,49.9999999999999));
#974=CARTESIAN_POINT('',(-19.7,9.,48.3249999999999));
#975=CARTESIAN_POINT('Origin',(-19.7,9.,49.9999999999999));
#976=CARTESIAN_POINT('Origin',(67.,0.,-23.));
#977=CARTESIAN_POINT('',(65.5,0.,-23.));
#978=CARTESIAN_POINT('Origin',(67.,0.,-23.));
#979=CARTESIAN_POINT('',(65.5,3.,-23.));
#980=CARTESIAN_POINT('',(65.5,0.,-23.));
#981=CARTESIAN_POINT('Origin',(67.,3.,-23.));
#982=CARTESIAN_POINT('Origin',(-67.,0.,-23.));
#983=CARTESIAN_POINT('',(-68.5,0.,-23.));
#984=CARTESIAN_POINT('Origin',(-67.,0.,-23.));
#985=CARTESIAN_POINT('',(-68.5,3.,-23.));
#986=CARTESIAN_POINT('',(-68.5,0.,-23.));
#987=CARTESIAN_POINT('Origin',(-67.,3.,-23.));
#988=CARTESIAN_POINT('Origin',(67.,0.,-41.));
#989=CARTESIAN_POINT('',(65.5,0.,-41.));
#990=CARTESIAN_POINT('Origin',(67.,0.,-41.));
#991=CARTESIAN_POINT('',(65.5,3.,-41.));
#992=CARTESIAN_POINT('',(65.5,0.,-41.));
#993=CARTESIAN_POINT('Origin',(67.,3.,-41.));
#994=CARTESIAN_POINT('Origin',(-67.,0.,-41.));
#995=CARTESIAN_POINT('',(-68.5,0.,-41.));
#996=CARTESIAN_POINT('Origin',(-67.,0.,-41.));
#997=CARTESIAN_POINT('',(-68.5,3.,-41.));
#998=CARTESIAN_POINT('',(-68.5,0.,-41.));
#999=CARTESIAN_POINT('Origin',(-67.,3.,-41.));
#1000=CARTESIAN_POINT('Origin',(0.,3.,0.));
#1001=CARTESIAN_POINT('',(-75.,3.,-50.));
#1002=CARTESIAN_POINT('',(-49.9999999999998,3.,-74.9999999999999));
#1003=CARTESIAN_POINT('',(-75.,3.,-50.));
#1004=CARTESIAN_POINT('',(-75.,3.,50.));
#1005=CARTESIAN_POINT('',(-75.,3.,50.));
#1006=CARTESIAN_POINT('',(-50.0000000000001,3.,74.9999999999999));
#1007=CARTESIAN_POINT('',(-50.0000000000001,3.,74.9999999999999));
#1008=CARTESIAN_POINT('',(50.0000000000001,3.,74.9999999999999));
#1009=CARTESIAN_POINT('',(50.0000000000001,3.,74.9999999999999));
#1010=CARTESIAN_POINT('',(75.,3.,50.0000000000003));
#1011=CARTESIAN_POINT('',(75.,3.,50.0000000000003));
#1012=CARTESIAN_POINT('',(75.,3.,-50.));
#1013=CARTESIAN_POINT('',(75.,3.,-50.));
#1014=CARTESIAN_POINT('',(49.9999999999998,3.,-74.9999999999999));
#1015=CARTESIAN_POINT('',(49.9999999999998,3.,-74.9999999999999));
#1016=CARTESIAN_POINT('',(-49.9999999999998,3.,-74.9999999999999));
#1017=CARTESIAN_POINT('',(-42.,3.,-67.7499999999999));
#1018=CARTESIAN_POINT('Origin',(-42.,3.,-65.9999999999999));
#1019=CARTESIAN_POINT('',(-54.,3.,-38.5));
#1020=CARTESIAN_POINT('',(-54.,3.,-25.5));
#1021=CARTESIAN_POINT('',(-54.,3.,-38.5));
#1022=CARTESIAN_POINT('',(-60.,3.,-25.5));
#1023=CARTESIAN_POINT('',(-60.,3.,-25.5));
#1024=CARTESIAN_POINT('',(-60.,3.,-38.5));
#1025=CARTESIAN_POINT('',(-60.,3.,-38.5));
#1026=CARTESIAN_POINT('',(-60.,3.,-38.5));
#1027=CARTESIAN_POINT('',(-0.5,3.,7.325));
#1028=CARTESIAN_POINT('Origin',(-0.5,3.,9.));
#1029=CARTESIAN_POINT('',(-0.5,3.,-10.675));
#1030=CARTESIAN_POINT('Origin',(-0.5,3.,-9.));
#1031=CARTESIAN_POINT('',(60.,3.,-38.5));
#1032=CARTESIAN_POINT('',(60.,3.,-25.5));
#1033=CARTESIAN_POINT('',(60.,3.,-38.5));
#1034=CARTESIAN_POINT('',(54.,3.,-25.5));
#1035=CARTESIAN_POINT('',(60.,3.,-25.5));
#1036=CARTESIAN_POINT('',(54.,3.,-38.5));
#1037=CARTESIAN_POINT('',(54.,3.,-38.5));
#1038=CARTESIAN_POINT('',(60.,3.,-38.5));
#1039=CARTESIAN_POINT('',(45.,3.,-67.7499999999999));
#1040=CARTESIAN_POINT('Origin',(45.,3.,-65.9999999999999));
#1041=CARTESIAN_POINT('',(45.,3.,64.2499999999999));
#1042=CARTESIAN_POINT('Origin',(45.,3.,65.9999999999999));
#1043=CARTESIAN_POINT('',(-42.,3.,64.2499999999999));
#1044=CARTESIAN_POINT('Origin',(-42.,3.,65.9999999999999));
#1045=CARTESIAN_POINT('Origin',(0.,0.,0.));
#1046=CARTESIAN_POINT('',(-75.,0.,-50.));
#1047=CARTESIAN_POINT('',(-49.9999999999998,0.,-74.9999999999999));
#1048=CARTESIAN_POINT('',(-75.,0.,-50.));
#1049=CARTESIAN_POINT('',(49.9999999999998,0.,-74.9999999999999));
#1050=CARTESIAN_POINT('',(-49.9999999999998,0.,-74.9999999999999));
#1051=CARTESIAN_POINT('',(75.,0.,-50.));
#1052=CARTESIAN_POINT('',(49.9999999999998,0.,-74.9999999999999));
#1053=CARTESIAN_POINT('',(75.,0.,50.0000000000003));
#1054=CARTESIAN_POINT('',(75.,0.,-50.));
#1055=CARTESIAN_POINT('',(50.0000000000001,0.,74.9999999999999));
#1056=CARTESIAN_POINT('',(75.,0.,50.0000000000003));
#1057=CARTESIAN_POINT('',(-50.0000000000001,0.,74.9999999999999));
#1058=CARTESIAN_POINT('',(50.0000000000001,0.,74.9999999999999));
#1059=CARTESIAN_POINT('',(-75.,0.,50.));
#1060=CARTESIAN_POINT('',(-50.0000000000001,0.,74.9999999999999));
#1061=CARTESIAN_POINT('',(-75.,0.,50.));
#1062=CARTESIAN_POINT('',(19.7,0.,48.3249999999999));
#1063=CARTESIAN_POINT('Origin',(19.7,0.,49.9999999999999));
#1064=CARTESIAN_POINT('',(-19.7,0.,48.3249999999999));
#1065=CARTESIAN_POINT('Origin',(-19.7,0.,49.9999999999999));
#1066=CARTESIAN_POINT('',(45.,0.,64.2499999999999));
#1067=CARTESIAN_POINT('Origin',(45.,0.,65.9999999999999));
#1068=CARTESIAN_POINT('',(-54.,0.,-25.5));
#1069=CARTESIAN_POINT('',(-60.,0.,-25.5));
#1070=CARTESIAN_POINT('',(-54.,0.,-25.5));
#1071=CARTESIAN_POINT('',(-54.,0.,-38.5));
#1072=CARTESIAN_POINT('',(-54.,0.,-25.5));
#1073=CARTESIAN_POINT('',(-60.,0.,-38.5));
#1074=CARTESIAN_POINT('',(-54.,0.,-38.5));
#1075=CARTESIAN_POINT('',(-60.,0.,-25.5));
#1076=CARTESIAN_POINT('',(54.,0.,-25.5));
#1077=CARTESIAN_POINT('',(60.,0.,-25.5));
#1078=CARTESIAN_POINT('',(54.,0.,-25.5));
#1079=CARTESIAN_POINT('',(60.,0.,-38.5));
#1080=CARTESIAN_POINT('',(60.,0.,-25.5));
#1081=CARTESIAN_POINT('',(54.,0.,-38.5));
#1082=CARTESIAN_POINT('',(54.,0.,-38.5));
#1083=CARTESIAN_POINT('',(54.,0.,-25.5));
#1084=CARTESIAN_POINT('',(-0.5,0.,7.325));
#1085=CARTESIAN_POINT('Origin',(-0.5,0.,9.));
#1086=CARTESIAN_POINT('',(-0.5,0.,-10.675));
#1087=CARTESIAN_POINT('Origin',(-0.5,0.,-9.));
#1088=CARTESIAN_POINT('',(45.,0.,-67.7499999999999));
#1089=CARTESIAN_POINT('Origin',(45.,0.,-65.9999999999999));
#1090=CARTESIAN_POINT('',(-42.,0.,64.2499999999999));
#1091=CARTESIAN_POINT('Origin',(-42.,0.,65.9999999999999));
#1092=CARTESIAN_POINT('',(-42.,0.,-67.7499999999999));
#1093=CARTESIAN_POINT('Origin',(-42.,0.,-65.9999999999999));
#1094=CARTESIAN_POINT('Origin',(-75.,3.,-50.));
#1095=CARTESIAN_POINT('',(-75.,3.,-50.));
#1096=CARTESIAN_POINT('',(-49.9999999999998,3.,-74.9999999999999));
#1097=CARTESIAN_POINT('Origin',(-75.,3.,50.));
#1098=CARTESIAN_POINT('',(-75.,3.,50.));
#1099=CARTESIAN_POINT('Origin',(-50.0000000000001,3.,74.9999999999999));
#1100=CARTESIAN_POINT('',(-50.0000000000001,3.,74.9999999999999));
#1101=CARTESIAN_POINT('Origin',(50.0000000000001,3.,74.9999999999999));
#1102=CARTESIAN_POINT('',(50.0000000000001,3.,74.9999999999999));
#1103=CARTESIAN_POINT('Origin',(75.,3.,50.0000000000003));
#1104=CARTESIAN_POINT('',(75.,3.,50.0000000000003));
#1105=CARTESIAN_POINT('Origin',(75.,3.,-50.));
#1106=CARTESIAN_POINT('',(75.,3.,-50.));
#1107=CARTESIAN_POINT('Origin',(49.9999999999998,3.,-74.9999999999999));
#1108=CARTESIAN_POINT('',(49.9999999999998,3.,-74.9999999999999));
#1109=CARTESIAN_POINT('Origin',(-49.9999999999998,3.,-74.9999999999999));
#1110=CARTESIAN_POINT('Origin',(-42.,-7.,-65.9999999999999));
#1111=CARTESIAN_POINT('',(-42.,-7.,-67.7499999999999));
#1112=CARTESIAN_POINT('Origin',(-42.,-7.,65.9999999999999));
#1113=CARTESIAN_POINT('',(-42.,-7.,64.2499999999999));
#1114=CARTESIAN_POINT('Origin',(45.,-7.,65.9999999999999));
#1115=CARTESIAN_POINT('',(45.,-7.,64.2499999999999));
#1116=CARTESIAN_POINT('Origin',(-54.,-7.,0.));
#1117=CARTESIAN_POINT('',(-54.,0.,-25.5));
#1118=CARTESIAN_POINT('',(-54.,0.,-38.5));
#1119=CARTESIAN_POINT('Origin',(0.,-7.,-25.5));
#1120=CARTESIAN_POINT('',(-60.,0.,-25.5));
#1121=CARTESIAN_POINT('Origin',(-60.,-7.,0.));
#1122=CARTESIAN_POINT('',(-60.,0.,-38.5));
#1123=CARTESIAN_POINT('Origin',(0.,-7.,-38.5));
#1124=CARTESIAN_POINT('Origin',(45.,-7.,-65.9999999999999));
#1125=CARTESIAN_POINT('',(45.,-7.,-67.7499999999999));
#1126=CARTESIAN_POINT('Origin',(60.,-7.,0.));
#1127=CARTESIAN_POINT('',(60.,0.,-25.5));
#1128=CARTESIAN_POINT('',(60.,0.,-38.5));
#1129=CARTESIAN_POINT('Origin',(0.,-7.,-25.5));
#1130=CARTESIAN_POINT('',(54.,0.,-25.5));
#1131=CARTESIAN_POINT('Origin',(54.,-7.,0.));
#1132=CARTESIAN_POINT('',(54.,0.,-38.5));
#1133=CARTESIAN_POINT('Origin',(0.,-7.,-38.5));
#1134=CARTESIAN_POINT('Origin',(-19.7,-7.,49.9999999999999));
#1135=CARTESIAN_POINT('',(-19.7,-7.,48.3249999999999));
#1136=CARTESIAN_POINT('Origin',(19.7,-7.,49.9999999999999));
#1137=CARTESIAN_POINT('',(19.7,-7.,48.3249999999999));
#1138=CARTESIAN_POINT('Origin',(-0.5,-26.,-9.));
#1139=CARTESIAN_POINT('',(-0.500000000000001,-26.,-10.675));
#1140=CARTESIAN_POINT('Origin',(-0.5,-26.,9.));
#1141=CARTESIAN_POINT('',(-0.500000000000001,-26.,7.325));
#1142=UNCERTAINTY_MEASURE_WITH_UNIT(LENGTH_MEASURE(0.01),#1146,
'DISTANCE_ACCURACY_VALUE',
'Maximum model space distance between geometric entities at asserted c
onnectivities');
#1143=UNCERTAINTY_MEASURE_WITH_UNIT(LENGTH_MEASURE(0.01),#1146,
'DISTANCE_ACCURACY_VALUE',
'Maximum model space distance between geometric entities at asserted c
onnectivities');
#1144=(
GEOMETRIC_REPRESENTATION_CONTEXT(3)
GLOBAL_UNCERTAINTY_ASSIGNED_CONTEXT((#1142))
GLOBAL_UNIT_ASSIGNED_CONTEXT((#1146,#1148,#1149))
REPRESENTATION_CONTEXT('','3D')
);
#1145=(
GEOMETRIC_REPRESENTATION_CONTEXT(3)
GLOBAL_UNCERTAINTY_ASSIGNED_CONTEXT((#1143))
GLOBAL_UNIT_ASSIGNED_CONTEXT((#1146,#1148,#1149))
REPRESENTATION_CONTEXT('','3D')
);
#1146=(
LENGTH_UNIT()
NAMED_UNIT(*)
SI_UNIT(.MILLI.,.METRE.)
);
#1147=(
LENGTH_UNIT()
NAMED_UNIT(*)
SI_UNIT($,.METRE.)
);
#1148=(
NAMED_UNIT(*)
PLANE_ANGLE_UNIT()
SI_UNIT($,.RADIAN.)
);
#1149=(
NAMED_UNIT(*)
SI_UNIT($,.STERADIAN.)
SOLID_ANGLE_UNIT()
);
#1150=SHAPE_DEFINITION_REPRESENTATION(#1151,#1152);
#1151=PRODUCT_DEFINITION_SHAPE('',$,#1154);
#1152=SHAPE_REPRESENTATION('',(#706),#1144);
#1153=PRODUCT_DEFINITION_CONTEXT('part definition',#1158,'design');
#1154=PRODUCT_DEFINITION('Nivel_1_N','Nivel_1_N v5',#1155,#1153);
#1155=PRODUCT_DEFINITION_FORMATION('',$,#1160);
#1156=PRODUCT_RELATED_PRODUCT_CATEGORY('Nivel_1_N v5','Nivel_1_N v5',(#1160));
#1157=APPLICATION_PROTOCOL_DEFINITION('international standard',
'automotive_design',2009,#1158);
#1158=APPLICATION_CONTEXT(
'Core Data for Automotive Mechanical Design Process');
#1159=PRODUCT_CONTEXT('part definition',#1158,'mechanical');
#1160=PRODUCT('Nivel_1_N','Nivel_1_N v5',$,(#1159));
#1161=PRESENTATION_STYLE_ASSIGNMENT((#1163));
#1162=PRESENTATION_STYLE_ASSIGNMENT((#1164));
#1163=SURFACE_STYLE_USAGE(.BOTH.,#1165);
#1164=SURFACE_STYLE_USAGE(.BOTH.,#1166);
#1165=SURFACE_SIDE_STYLE('',(#1167));
#1166=SURFACE_SIDE_STYLE('',(#1168));
#1167=SURFACE_STYLE_FILL_AREA(#1169);
#1168=SURFACE_STYLE_FILL_AREA(#1170);
#1169=FILL_AREA_STYLE('Steel - Satin',(#1171));
#1170=FILL_AREA_STYLE('EPX 86FR (with Carbon M2 M3 L1 3D Printers)',(#1172));
#1171=FILL_AREA_STYLE_COLOUR('Steel - Satin',#1173);
#1172=FILL_AREA_STYLE_COLOUR(
'EPX 86FR (with Carbon M2 M3 L1 3D Printers)',#1174);
#1173=COLOUR_RGB('Steel - Satin',0.627450980392157,0.627450980392157,0.627450980392157);
#1174=COLOUR_RGB('EPX 86FR (with Carbon M2 M3 L1 3D Printers)',0.247058823529412,
0.247058823529412,0.247058823529412);
ENDSEC;
END-ISO-10303-21;
