ISO-10303-21;
HEADER;
/* Generated by software containing ST-Developer
 * from STEP Tools, Inc. (www.steptools.com) 
 */

FILE_DESCRIPTION(
/* description */ (''),
/* implementation_level */ '2;1');

FILE_NAME(
/* name */ 'Nivel_2_N.step',
/* time_stamp */ '2026-01-03T11:40:07-04:00',
/* author */ (''),
/* organization */ (''),
/* preprocessor_version */ 'ST-DEVELOPER v20.1',
/* originating_system */ 'Autodesk Translation Framework v14.21.0.0',
/* authorisation */ '');

FILE_SCHEMA (('AUTOMOTIVE_DESIGN { 1 0 10303 214 3 1 1 }'));
ENDSEC;

DATA;
#10=MECHANICAL_DESIGN_GEOMETRIC_PRESENTATION_REPRESENTATION('',(#13),#841);
#11=SHAPE_REPRESENTATION_RELATIONSHIP('SRR','None',#848,#12);
#12=ADVANCED_BREP_SHAPE_REPRESENTATION('',(#14),#840);
#13=STYLED_ITEM('',(#858),#14);
#14=MANIFOLD_SOLID_BREP('Body1',#509);
#15=FACE_BOUND('',#82,.T.);
#16=FACE_BOUND('',#83,.T.);
#17=FACE_BOUND('',#84,.T.);
#18=FACE_BOUND('',#85,.T.);
#19=FACE_BOUND('',#86,.T.);
#20=FACE_BOUND('',#87,.T.);
#21=FACE_BOUND('',#88,.T.);
#22=FACE_BOUND('',#89,.T.);
#23=FACE_BOUND('',#90,.T.);
#24=FACE_BOUND('',#91,.T.);
#25=FACE_BOUND('',#92,.T.);
#26=FACE_BOUND('',#94,.T.);
#27=FACE_BOUND('',#95,.T.);
#28=FACE_BOUND('',#96,.T.);
#29=FACE_BOUND('',#97,.T.);
#30=FACE_BOUND('',#98,.T.);
#31=FACE_BOUND('',#99,.T.);
#32=FACE_BOUND('',#100,.T.);
#33=FACE_BOUND('',#101,.T.);
#34=FACE_BOUND('',#102,.T.);
#35=FACE_BOUND('',#103,.T.);
#36=FACE_BOUND('',#104,.T.);
#37=PLANE('',#541);
#38=PLANE('',#546);
#39=PLANE('',#551);
#40=PLANE('',#552);
#41=PLANE('',#553);
#42=PLANE('',#554);
#43=PLANE('',#555);
#44=PLANE('',#556);
#45=PLANE('',#557);
#46=PLANE('',#558);
#47=PLANE('',#563);
#48=PLANE('',#564);
#49=PLANE('',#565);
#50=PLANE('',#566);
#51=FACE_OUTER_BOUND('',#75,.T.);
#52=FACE_OUTER_BOUND('',#76,.T.);
#53=FACE_OUTER_BOUND('',#77,.T.);
#54=FACE_OUTER_BOUND('',#78,.T.);
#55=FACE_OUTER_BOUND('',#79,.T.);
#56=FACE_OUTER_BOUND('',#80,.T.);
#57=FACE_OUTER_BOUND('',#81,.T.);
#58=FACE_OUTER_BOUND('',#93,.T.);
#59=FACE_OUTER_BOUND('',#105,.T.);
#60=FACE_OUTER_BOUND('',#106,.T.);
#61=FACE_OUTER_BOUND('',#107,.T.);
#62=FACE_OUTER_BOUND('',#108,.T.);
#63=FACE_OUTER_BOUND('',#109,.T.);
#64=FACE_OUTER_BOUND('',#110,.T.);
#65=FACE_OUTER_BOUND('',#111,.T.);
#66=FACE_OUTER_BOUND('',#112,.T.);
#67=FACE_OUTER_BOUND('',#113,.T.);
#68=FACE_OUTER_BOUND('',#114,.T.);
#69=FACE_OUTER_BOUND('',#115,.T.);
#70=FACE_OUTER_BOUND('',#116,.T.);
#71=FACE_OUTER_BOUND('',#117,.T.);
#72=FACE_OUTER_BOUND('',#118,.T.);
#73=FACE_OUTER_BOUND('',#119,.T.);
#74=FACE_OUTER_BOUND('',#120,.T.);
#75=EDGE_LOOP('',(#343,#344,#345,#346));
#76=EDGE_LOOP('',(#347,#348,#349,#350));
#77=EDGE_LOOP('',(#351,#352,#353,#354));
#78=EDGE_LOOP('',(#355,#356,#357,#358));
#79=EDGE_LOOP('',(#359,#360,#361,#362));
#80=EDGE_LOOP('',(#363,#364,#365,#366));
#81=EDGE_LOOP('',(#367,#368,#369,#370,#371,#372,#373,#374));
#82=EDGE_LOOP('',(#375));
#83=EDGE_LOOP('',(#376));
#84=EDGE_LOOP('',(#377));
#85=EDGE_LOOP('',(#378));
#86=EDGE_LOOP('',(#379));
#87=EDGE_LOOP('',(#380));
#88=EDGE_LOOP('',(#381));
#89=EDGE_LOOP('',(#382));
#90=EDGE_LOOP('',(#383,#384,#385,#386));
#91=EDGE_LOOP('',(#387));
#92=EDGE_LOOP('',(#388));
#93=EDGE_LOOP('',(#389,#390,#391,#392,#393,#394,#395,#396));
#94=EDGE_LOOP('',(#397));
#95=EDGE_LOOP('',(#398));
#96=EDGE_LOOP('',(#399));
#97=EDGE_LOOP('',(#400));
#98=EDGE_LOOP('',(#401));
#99=EDGE_LOOP('',(#402));
#100=EDGE_LOOP('',(#403));
#101=EDGE_LOOP('',(#404));
#102=EDGE_LOOP('',(#405));
#103=EDGE_LOOP('',(#406));
#104=EDGE_LOOP('',(#407,#408,#409,#410));
#105=EDGE_LOOP('',(#411,#412,#413,#414));
#106=EDGE_LOOP('',(#415,#416,#417,#418));
#107=EDGE_LOOP('',(#419,#420,#421,#422));
#108=EDGE_LOOP('',(#423,#424,#425,#426));
#109=EDGE_LOOP('',(#427,#428,#429,#430));
#110=EDGE_LOOP('',(#431,#432,#433,#434));
#111=EDGE_LOOP('',(#435,#436,#437,#438));
#112=EDGE_LOOP('',(#439,#440,#441,#442));
#113=EDGE_LOOP('',(#443,#444,#445,#446));
#114=EDGE_LOOP('',(#447,#448,#449,#450));
#115=EDGE_LOOP('',(#451,#452,#453,#454));
#116=EDGE_LOOP('',(#455,#456,#457,#458));
#117=EDGE_LOOP('',(#459,#460,#461,#462));
#118=EDGE_LOOP('',(#463,#464,#465,#466));
#119=EDGE_LOOP('',(#467,#468,#469,#470));
#120=EDGE_LOOP('',(#471,#472,#473,#474));
#121=LINE('',#708,#167);
#122=LINE('',#714,#168);
#123=LINE('',#720,#169);
#124=LINE('',#726,#170);
#125=LINE('',#732,#171);
#126=LINE('',#738,#172);
#127=LINE('',#743,#173);
#128=LINE('',#745,#174);
#129=LINE('',#747,#175);
#130=LINE('',#749,#176);
#131=LINE('',#751,#177);
#132=LINE('',#753,#178);
#133=LINE('',#755,#179);
#134=LINE('',#756,#180);
#135=LINE('',#763,#181);
#136=LINE('',#765,#182);
#137=LINE('',#767,#183);
#138=LINE('',#768,#184);
#139=LINE('',#776,#185);
#140=LINE('',#778,#186);
#141=LINE('',#780,#187);
#142=LINE('',#782,#188);
#143=LINE('',#784,#189);
#144=LINE('',#786,#190);
#145=LINE('',#788,#191);
#146=LINE('',#789,#192);
#147=LINE('',#800,#193);
#148=LINE('',#802,#194);
#149=LINE('',#804,#195);
#150=LINE('',#805,#196);
#151=LINE('',#807,#197);
#152=LINE('',#808,#198);
#153=LINE('',#810,#199);
#154=LINE('',#812,#200);
#155=LINE('',#814,#201);
#156=LINE('',#816,#202);
#157=LINE('',#818,#203);
#158=LINE('',#820,#204);
#159=LINE('',#823,#205);
#160=LINE('',#825,#206);
#161=LINE('',#827,#207);
#162=LINE('',#829,#208);
#163=LINE('',#831,#209);
#164=LINE('',#832,#210);
#165=LINE('',#834,#211);
#166=LINE('',#836,#212);
#167=VECTOR('',#573,1.5);
#168=VECTOR('',#580,1.5);
#169=VECTOR('',#587,1.5);
#170=VECTOR('',#594,1.5);
#171=VECTOR('',#601,1.5);
#172=VECTOR('',#608,1.5);
#173=VECTOR('',#613,99.1715728752533);
#174=VECTOR('',#614,34.5269119345813);
#175=VECTOR('',#615,99.1715728752538);
#176=VECTOR('',#616,34.526911934581);
#177=VECTOR('',#617,99.171572875254);
#178=VECTOR('',#618,34.5269119345808);
#179=VECTOR('',#619,99.1715728752541);
#180=VECTOR('',#620,34.5269119345813);
#181=VECTOR('',#625,18.35);
#182=VECTOR('',#626,11.85);
#183=VECTOR('',#627,18.35);
#184=VECTOR('',#628,11.85);
#185=VECTOR('',#635,99.1715728752533);
#186=VECTOR('',#636,34.5269119345813);
#187=VECTOR('',#637,99.1715728752541);
#188=VECTOR('',#638,34.5269119345808);
#189=VECTOR('',#639,99.171572875254);
#190=VECTOR('',#640,34.526911934581);
#191=VECTOR('',#641,99.1715728752538);
#192=VECTOR('',#642,34.5269119345813);
#193=VECTOR('',#651,11.85);
#194=VECTOR('',#652,18.35);
#195=VECTOR('',#653,11.85);
#196=VECTOR('',#654,18.35);
#197=VECTOR('',#657,3.);
#198=VECTOR('',#658,3.);
#199=VECTOR('',#661,3.);
#200=VECTOR('',#664,3.);
#201=VECTOR('',#667,3.);
#202=VECTOR('',#670,3.);
#203=VECTOR('',#673,3.);
#204=VECTOR('',#676,3.);
#205=VECTOR('',#681,1.95000000000001);
#206=VECTOR('',#684,1.95000000000001);
#207=VECTOR('',#687,1.95000000000001);
#208=VECTOR('',#690,1.95000000000001);
#209=VECTOR('',#693,3.);
#210=VECTOR('',#694,3.);
#211=VECTOR('',#697,3.);
#212=VECTOR('',#700,3.);
#213=CIRCLE('',#524,1.5);
#214=CIRCLE('',#525,1.5);
#215=CIRCLE('',#527,1.5);
#216=CIRCLE('',#528,1.5);
#217=CIRCLE('',#530,1.5);
#218=CIRCLE('',#531,1.5);
#219=CIRCLE('',#533,1.5);
#220=CIRCLE('',#534,1.5);
#221=CIRCLE('',#536,1.5);
#222=CIRCLE('',#537,1.5);
#223=CIRCLE('',#539,1.5);
#224=CIRCLE('',#540,1.5);
#225=CIRCLE('',#542,1.95000000000001);
#226=CIRCLE('',#543,1.95000000000001);
#227=CIRCLE('',#544,1.95000000000001);
#228=CIRCLE('',#545,1.95000000000001);
#229=CIRCLE('',#547,1.95000000000001);
#230=CIRCLE('',#548,1.95000000000001);
#231=CIRCLE('',#549,1.95000000000001);
#232=CIRCLE('',#550,1.95000000000001);
#233=VERTEX_POINT('',#705);
#234=VERTEX_POINT('',#707);
#235=VERTEX_POINT('',#711);
#236=VERTEX_POINT('',#713);
#237=VERTEX_POINT('',#717);
#238=VERTEX_POINT('',#719);
#239=VERTEX_POINT('',#723);
#240=VERTEX_POINT('',#725);
#241=VERTEX_POINT('',#729);
#242=VERTEX_POINT('',#731);
#243=VERTEX_POINT('',#735);
#244=VERTEX_POINT('',#737);
#245=VERTEX_POINT('',#741);
#246=VERTEX_POINT('',#742);
#247=VERTEX_POINT('',#744);
#248=VERTEX_POINT('',#746);
#249=VERTEX_POINT('',#748);
#250=VERTEX_POINT('',#750);
#251=VERTEX_POINT('',#752);
#252=VERTEX_POINT('',#754);
#253=VERTEX_POINT('',#757);
#254=VERTEX_POINT('',#759);
#255=VERTEX_POINT('',#761);
#256=VERTEX_POINT('',#762);
#257=VERTEX_POINT('',#764);
#258=VERTEX_POINT('',#766);
#259=VERTEX_POINT('',#769);
#260=VERTEX_POINT('',#771);
#261=VERTEX_POINT('',#774);
#262=VERTEX_POINT('',#775);
#263=VERTEX_POINT('',#777);
#264=VERTEX_POINT('',#779);
#265=VERTEX_POINT('',#781);
#266=VERTEX_POINT('',#783);
#267=VERTEX_POINT('',#785);
#268=VERTEX_POINT('',#787);
#269=VERTEX_POINT('',#790);
#270=VERTEX_POINT('',#792);
#271=VERTEX_POINT('',#794);
#272=VERTEX_POINT('',#796);
#273=VERTEX_POINT('',#798);
#274=VERTEX_POINT('',#799);
#275=VERTEX_POINT('',#801);
#276=VERTEX_POINT('',#803);
#277=EDGE_CURVE('',#233,#233,#213,.T.);
#278=EDGE_CURVE('',#233,#234,#121,.T.);
#279=EDGE_CURVE('',#234,#234,#214,.T.);
#280=EDGE_CURVE('',#235,#235,#215,.T.);
#281=EDGE_CURVE('',#235,#236,#122,.T.);
#282=EDGE_CURVE('',#236,#236,#216,.T.);
#283=EDGE_CURVE('',#237,#237,#217,.T.);
#284=EDGE_CURVE('',#237,#238,#123,.T.);
#285=EDGE_CURVE('',#238,#238,#218,.T.);
#286=EDGE_CURVE('',#239,#239,#219,.T.);
#287=EDGE_CURVE('',#239,#240,#124,.T.);
#288=EDGE_CURVE('',#240,#240,#220,.T.);
#289=EDGE_CURVE('',#241,#241,#221,.T.);
#290=EDGE_CURVE('',#241,#242,#125,.T.);
#291=EDGE_CURVE('',#242,#242,#222,.T.);
#292=EDGE_CURVE('',#243,#243,#223,.T.);
#293=EDGE_CURVE('',#243,#244,#126,.T.);
#294=EDGE_CURVE('',#244,#244,#224,.T.);
#295=EDGE_CURVE('',#245,#246,#127,.T.);
#296=EDGE_CURVE('',#246,#247,#128,.T.);
#297=EDGE_CURVE('',#247,#248,#129,.T.);
#298=EDGE_CURVE('',#248,#249,#130,.T.);
#299=EDGE_CURVE('',#249,#250,#131,.T.);
#300=EDGE_CURVE('',#250,#251,#132,.T.);
#301=EDGE_CURVE('',#251,#252,#133,.T.);
#302=EDGE_CURVE('',#252,#245,#134,.T.);
#303=EDGE_CURVE('',#253,#253,#225,.T.);
#304=EDGE_CURVE('',#254,#254,#226,.T.);
#305=EDGE_CURVE('',#255,#256,#135,.T.);
#306=EDGE_CURVE('',#257,#255,#136,.T.);
#307=EDGE_CURVE('',#258,#257,#137,.T.);
#308=EDGE_CURVE('',#256,#258,#138,.T.);
#309=EDGE_CURVE('',#259,#259,#227,.T.);
#310=EDGE_CURVE('',#260,#260,#228,.T.);
#311=EDGE_CURVE('',#261,#262,#139,.T.);
#312=EDGE_CURVE('',#263,#261,#140,.T.);
#313=EDGE_CURVE('',#264,#263,#141,.T.);
#314=EDGE_CURVE('',#265,#264,#142,.T.);
#315=EDGE_CURVE('',#266,#265,#143,.T.);
#316=EDGE_CURVE('',#267,#266,#144,.T.);
#317=EDGE_CURVE('',#268,#267,#145,.T.);
#318=EDGE_CURVE('',#262,#268,#146,.T.);
#319=EDGE_CURVE('',#269,#269,#229,.T.);
#320=EDGE_CURVE('',#270,#270,#230,.T.);
#321=EDGE_CURVE('',#271,#271,#231,.T.);
#322=EDGE_CURVE('',#272,#272,#232,.T.);
#323=EDGE_CURVE('',#273,#274,#147,.T.);
#324=EDGE_CURVE('',#274,#275,#148,.T.);
#325=EDGE_CURVE('',#275,#276,#149,.T.);
#326=EDGE_CURVE('',#276,#273,#150,.T.);
#327=EDGE_CURVE('',#246,#262,#151,.T.);
#328=EDGE_CURVE('',#245,#261,#152,.T.);
#329=EDGE_CURVE('',#247,#268,#153,.T.);
#330=EDGE_CURVE('',#248,#267,#154,.T.);
#331=EDGE_CURVE('',#249,#266,#155,.T.);
#332=EDGE_CURVE('',#250,#265,#156,.T.);
#333=EDGE_CURVE('',#251,#264,#157,.T.);
#334=EDGE_CURVE('',#252,#263,#158,.T.);
#335=EDGE_CURVE('',#260,#269,#159,.T.);
#336=EDGE_CURVE('',#253,#270,#160,.T.);
#337=EDGE_CURVE('',#259,#271,#161,.T.);
#338=EDGE_CURVE('',#254,#272,#162,.T.);
#339=EDGE_CURVE('',#275,#256,#163,.T.);
#340=EDGE_CURVE('',#274,#255,#164,.T.);
#341=EDGE_CURVE('',#273,#257,#165,.T.);
#342=EDGE_CURVE('',#276,#258,#166,.T.);
#343=ORIENTED_EDGE('',*,*,#277,.F.);
#344=ORIENTED_EDGE('',*,*,#278,.T.);
#345=ORIENTED_EDGE('',*,*,#279,.F.);
#346=ORIENTED_EDGE('',*,*,#278,.F.);
#347=ORIENTED_EDGE('',*,*,#280,.F.);
#348=ORIENTED_EDGE('',*,*,#281,.T.);
#349=ORIENTED_EDGE('',*,*,#282,.F.);
#350=ORIENTED_EDGE('',*,*,#281,.F.);
#351=ORIENTED_EDGE('',*,*,#283,.F.);
#352=ORIENTED_EDGE('',*,*,#284,.T.);
#353=ORIENTED_EDGE('',*,*,#285,.F.);
#354=ORIENTED_EDGE('',*,*,#284,.F.);
#355=ORIENTED_EDGE('',*,*,#286,.F.);
#356=ORIENTED_EDGE('',*,*,#287,.T.);
#357=ORIENTED_EDGE('',*,*,#288,.F.);
#358=ORIENTED_EDGE('',*,*,#287,.F.);
#359=ORIENTED_EDGE('',*,*,#289,.F.);
#360=ORIENTED_EDGE('',*,*,#290,.T.);
#361=ORIENTED_EDGE('',*,*,#291,.F.);
#362=ORIENTED_EDGE('',*,*,#290,.F.);
#363=ORIENTED_EDGE('',*,*,#292,.F.);
#364=ORIENTED_EDGE('',*,*,#293,.T.);
#365=ORIENTED_EDGE('',*,*,#294,.F.);
#366=ORIENTED_EDGE('',*,*,#293,.F.);
#367=ORIENTED_EDGE('',*,*,#295,.T.);
#368=ORIENTED_EDGE('',*,*,#296,.T.);
#369=ORIENTED_EDGE('',*,*,#297,.T.);
#370=ORIENTED_EDGE('',*,*,#298,.T.);
#371=ORIENTED_EDGE('',*,*,#299,.T.);
#372=ORIENTED_EDGE('',*,*,#300,.T.);
#373=ORIENTED_EDGE('',*,*,#301,.T.);
#374=ORIENTED_EDGE('',*,*,#302,.T.);
#375=ORIENTED_EDGE('',*,*,#279,.T.);
#376=ORIENTED_EDGE('',*,*,#282,.T.);
#377=ORIENTED_EDGE('',*,*,#285,.T.);
#378=ORIENTED_EDGE('',*,*,#288,.T.);
#379=ORIENTED_EDGE('',*,*,#291,.T.);
#380=ORIENTED_EDGE('',*,*,#294,.T.);
#381=ORIENTED_EDGE('',*,*,#303,.F.);
#382=ORIENTED_EDGE('',*,*,#304,.F.);
#383=ORIENTED_EDGE('',*,*,#305,.F.);
#384=ORIENTED_EDGE('',*,*,#306,.F.);
#385=ORIENTED_EDGE('',*,*,#307,.F.);
#386=ORIENTED_EDGE('',*,*,#308,.F.);
#387=ORIENTED_EDGE('',*,*,#309,.F.);
#388=ORIENTED_EDGE('',*,*,#310,.F.);
#389=ORIENTED_EDGE('',*,*,#311,.F.);
#390=ORIENTED_EDGE('',*,*,#312,.F.);
#391=ORIENTED_EDGE('',*,*,#313,.F.);
#392=ORIENTED_EDGE('',*,*,#314,.F.);
#393=ORIENTED_EDGE('',*,*,#315,.F.);
#394=ORIENTED_EDGE('',*,*,#316,.F.);
#395=ORIENTED_EDGE('',*,*,#317,.F.);
#396=ORIENTED_EDGE('',*,*,#318,.F.);
#397=ORIENTED_EDGE('',*,*,#277,.T.);
#398=ORIENTED_EDGE('',*,*,#280,.T.);
#399=ORIENTED_EDGE('',*,*,#283,.T.);
#400=ORIENTED_EDGE('',*,*,#286,.T.);
#401=ORIENTED_EDGE('',*,*,#289,.T.);
#402=ORIENTED_EDGE('',*,*,#292,.T.);
#403=ORIENTED_EDGE('',*,*,#319,.T.);
#404=ORIENTED_EDGE('',*,*,#320,.T.);
#405=ORIENTED_EDGE('',*,*,#321,.T.);
#406=ORIENTED_EDGE('',*,*,#322,.T.);
#407=ORIENTED_EDGE('',*,*,#323,.T.);
#408=ORIENTED_EDGE('',*,*,#324,.T.);
#409=ORIENTED_EDGE('',*,*,#325,.T.);
#410=ORIENTED_EDGE('',*,*,#326,.T.);
#411=ORIENTED_EDGE('',*,*,#311,.T.);
#412=ORIENTED_EDGE('',*,*,#327,.F.);
#413=ORIENTED_EDGE('',*,*,#295,.F.);
#414=ORIENTED_EDGE('',*,*,#328,.T.);
#415=ORIENTED_EDGE('',*,*,#318,.T.);
#416=ORIENTED_EDGE('',*,*,#329,.F.);
#417=ORIENTED_EDGE('',*,*,#296,.F.);
#418=ORIENTED_EDGE('',*,*,#327,.T.);
#419=ORIENTED_EDGE('',*,*,#317,.T.);
#420=ORIENTED_EDGE('',*,*,#330,.F.);
#421=ORIENTED_EDGE('',*,*,#297,.F.);
#422=ORIENTED_EDGE('',*,*,#329,.T.);
#423=ORIENTED_EDGE('',*,*,#316,.T.);
#424=ORIENTED_EDGE('',*,*,#331,.F.);
#425=ORIENTED_EDGE('',*,*,#298,.F.);
#426=ORIENTED_EDGE('',*,*,#330,.T.);
#427=ORIENTED_EDGE('',*,*,#315,.T.);
#428=ORIENTED_EDGE('',*,*,#332,.F.);
#429=ORIENTED_EDGE('',*,*,#299,.F.);
#430=ORIENTED_EDGE('',*,*,#331,.T.);
#431=ORIENTED_EDGE('',*,*,#314,.T.);
#432=ORIENTED_EDGE('',*,*,#333,.F.);
#433=ORIENTED_EDGE('',*,*,#300,.F.);
#434=ORIENTED_EDGE('',*,*,#332,.T.);
#435=ORIENTED_EDGE('',*,*,#313,.T.);
#436=ORIENTED_EDGE('',*,*,#334,.F.);
#437=ORIENTED_EDGE('',*,*,#301,.F.);
#438=ORIENTED_EDGE('',*,*,#333,.T.);
#439=ORIENTED_EDGE('',*,*,#312,.T.);
#440=ORIENTED_EDGE('',*,*,#328,.F.);
#441=ORIENTED_EDGE('',*,*,#302,.F.);
#442=ORIENTED_EDGE('',*,*,#334,.T.);
#443=ORIENTED_EDGE('',*,*,#310,.T.);
#444=ORIENTED_EDGE('',*,*,#335,.T.);
#445=ORIENTED_EDGE('',*,*,#319,.F.);
#446=ORIENTED_EDGE('',*,*,#335,.F.);
#447=ORIENTED_EDGE('',*,*,#303,.T.);
#448=ORIENTED_EDGE('',*,*,#336,.T.);
#449=ORIENTED_EDGE('',*,*,#320,.F.);
#450=ORIENTED_EDGE('',*,*,#336,.F.);
#451=ORIENTED_EDGE('',*,*,#309,.T.);
#452=ORIENTED_EDGE('',*,*,#337,.T.);
#453=ORIENTED_EDGE('',*,*,#321,.F.);
#454=ORIENTED_EDGE('',*,*,#337,.F.);
#455=ORIENTED_EDGE('',*,*,#304,.T.);
#456=ORIENTED_EDGE('',*,*,#338,.T.);
#457=ORIENTED_EDGE('',*,*,#322,.F.);
#458=ORIENTED_EDGE('',*,*,#338,.F.);
#459=ORIENTED_EDGE('',*,*,#305,.T.);
#460=ORIENTED_EDGE('',*,*,#339,.F.);
#461=ORIENTED_EDGE('',*,*,#324,.F.);
#462=ORIENTED_EDGE('',*,*,#340,.T.);
#463=ORIENTED_EDGE('',*,*,#306,.T.);
#464=ORIENTED_EDGE('',*,*,#340,.F.);
#465=ORIENTED_EDGE('',*,*,#323,.F.);
#466=ORIENTED_EDGE('',*,*,#341,.T.);
#467=ORIENTED_EDGE('',*,*,#307,.T.);
#468=ORIENTED_EDGE('',*,*,#341,.F.);
#469=ORIENTED_EDGE('',*,*,#326,.F.);
#470=ORIENTED_EDGE('',*,*,#342,.T.);
#471=ORIENTED_EDGE('',*,*,#308,.T.);
#472=ORIENTED_EDGE('',*,*,#342,.F.);
#473=ORIENTED_EDGE('',*,*,#325,.F.);
#474=ORIENTED_EDGE('',*,*,#339,.T.);
#475=CYLINDRICAL_SURFACE('',#523,1.5);
#476=CYLINDRICAL_SURFACE('',#526,1.5);
#477=CYLINDRICAL_SURFACE('',#529,1.5);
#478=CYLINDRICAL_SURFACE('',#532,1.5);
#479=CYLINDRICAL_SURFACE('',#535,1.5);
#480=CYLINDRICAL_SURFACE('',#538,1.5);
#481=CYLINDRICAL_SURFACE('',#559,1.95000000000001);
#482=CYLINDRICAL_SURFACE('',#560,1.95000000000001);
#483=CYLINDRICAL_SURFACE('',#561,1.95000000000001);
#484=CYLINDRICAL_SURFACE('',#562,1.95000000000001);
#485=ADVANCED_FACE('',(#51),#475,.F.);
#486=ADVANCED_FACE('',(#52),#476,.F.);
#487=ADVANCED_FACE('',(#53),#477,.F.);
#488=ADVANCED_FACE('',(#54),#478,.F.);
#489=ADVANCED_FACE('',(#55),#479,.F.);
#490=ADVANCED_FACE('',(#56),#480,.F.);
#491=ADVANCED_FACE('',(#57,#15,#16,#17,#18,#19,#20,#21,#22,#23,#24,#25),
#37,.T.);
#492=ADVANCED_FACE('',(#58,#26,#27,#28,#29,#30,#31,#32,#33,#34,#35,#36),
#38,.F.);
#493=ADVANCED_FACE('',(#59),#39,.F.);
#494=ADVANCED_FACE('',(#60),#40,.F.);
#495=ADVANCED_FACE('',(#61),#41,.F.);
#496=ADVANCED_FACE('',(#62),#42,.F.);
#497=ADVANCED_FACE('',(#63),#43,.F.);
#498=ADVANCED_FACE('',(#64),#44,.F.);
#499=ADVANCED_FACE('',(#65),#45,.F.);
#500=ADVANCED_FACE('',(#66),#46,.F.);
#501=ADVANCED_FACE('',(#67),#481,.F.);
#502=ADVANCED_FACE('',(#68),#482,.F.);
#503=ADVANCED_FACE('',(#69),#483,.F.);
#504=ADVANCED_FACE('',(#70),#484,.F.);
#505=ADVANCED_FACE('',(#71),#47,.F.);
#506=ADVANCED_FACE('',(#72),#48,.F.);
#507=ADVANCED_FACE('',(#73),#49,.F.);
#508=ADVANCED_FACE('',(#74),#50,.F.);
#509=CLOSED_SHELL('',(#485,#486,#487,#488,#489,#490,#491,#492,#493,#494,
#495,#496,#497,#498,#499,#500,#501,#502,#503,#504,#505,#506,#507,#508));
#510=DERIVED_UNIT_ELEMENT(#512,1.);
#511=DERIVED_UNIT_ELEMENT(#843,-3.);
#512=(
MASS_UNIT()
NAMED_UNIT(*)
SI_UNIT(.KILO.,.GRAM.)
);
#513=DERIVED_UNIT((#510,#511));
#514=MEASURE_REPRESENTATION_ITEM('density measure',
POSITIVE_RATIO_MEASURE(7850.),#513);
#515=PROPERTY_DEFINITION_REPRESENTATION(#520,#517);
#516=PROPERTY_DEFINITION_REPRESENTATION(#521,#518);
#517=REPRESENTATION('material name',(#519),#840);
#518=REPRESENTATION('density',(#514),#840);
#519=DESCRIPTIVE_REPRESENTATION_ITEM('Steel','Steel');
#520=PROPERTY_DEFINITION('material property','material name',#850);
#521=PROPERTY_DEFINITION('material property','density of part',#850);
#522=AXIS2_PLACEMENT_3D('',#703,#567,#568);
#523=AXIS2_PLACEMENT_3D('',#704,#569,#570);
#524=AXIS2_PLACEMENT_3D('',#706,#571,#572);
#525=AXIS2_PLACEMENT_3D('',#709,#574,#575);
#526=AXIS2_PLACEMENT_3D('',#710,#576,#577);
#527=AXIS2_PLACEMENT_3D('',#712,#578,#579);
#528=AXIS2_PLACEMENT_3D('',#715,#581,#582);
#529=AXIS2_PLACEMENT_3D('',#716,#583,#584);
#530=AXIS2_PLACEMENT_3D('',#718,#585,#586);
#531=AXIS2_PLACEMENT_3D('',#721,#588,#589);
#532=AXIS2_PLACEMENT_3D('',#722,#590,#591);
#533=AXIS2_PLACEMENT_3D('',#724,#592,#593);
#534=AXIS2_PLACEMENT_3D('',#727,#595,#596);
#535=AXIS2_PLACEMENT_3D('',#728,#597,#598);
#536=AXIS2_PLACEMENT_3D('',#730,#599,#600);
#537=AXIS2_PLACEMENT_3D('',#733,#602,#603);
#538=AXIS2_PLACEMENT_3D('',#734,#604,#605);
#539=AXIS2_PLACEMENT_3D('',#736,#606,#607);
#540=AXIS2_PLACEMENT_3D('',#739,#609,#610);
#541=AXIS2_PLACEMENT_3D('',#740,#611,#612);
#542=AXIS2_PLACEMENT_3D('',#758,#621,#622);
#543=AXIS2_PLACEMENT_3D('',#760,#623,#624);
#544=AXIS2_PLACEMENT_3D('',#770,#629,#630);
#545=AXIS2_PLACEMENT_3D('',#772,#631,#632);
#546=AXIS2_PLACEMENT_3D('',#773,#633,#634);
#547=AXIS2_PLACEMENT_3D('',#791,#643,#644);
#548=AXIS2_PLACEMENT_3D('',#793,#645,#646);
#549=AXIS2_PLACEMENT_3D('',#795,#647,#648);
#550=AXIS2_PLACEMENT_3D('',#797,#649,#650);
#551=AXIS2_PLACEMENT_3D('',#806,#655,#656);
#552=AXIS2_PLACEMENT_3D('',#809,#659,#660);
#553=AXIS2_PLACEMENT_3D('',#811,#662,#663);
#554=AXIS2_PLACEMENT_3D('',#813,#665,#666);
#555=AXIS2_PLACEMENT_3D('',#815,#668,#669);
#556=AXIS2_PLACEMENT_3D('',#817,#671,#672);
#557=AXIS2_PLACEMENT_3D('',#819,#674,#675);
#558=AXIS2_PLACEMENT_3D('',#821,#677,#678);
#559=AXIS2_PLACEMENT_3D('',#822,#679,#680);
#560=AXIS2_PLACEMENT_3D('',#824,#682,#683);
#561=AXIS2_PLACEMENT_3D('',#826,#685,#686);
#562=AXIS2_PLACEMENT_3D('',#828,#688,#689);
#563=AXIS2_PLACEMENT_3D('',#830,#691,#692);
#564=AXIS2_PLACEMENT_3D('',#833,#695,#696);
#565=AXIS2_PLACEMENT_3D('',#835,#698,#699);
#566=AXIS2_PLACEMENT_3D('',#837,#701,#702);
#567=DIRECTION('axis',(0.,0.,1.));
#568=DIRECTION('refdir',(1.,0.,0.));
#569=DIRECTION('center_axis',(0.,1.,0.));
#570=DIRECTION('ref_axis',(1.,0.,0.));
#571=DIRECTION('center_axis',(0.,1.,0.));
#572=DIRECTION('ref_axis',(1.,0.,0.));
#573=DIRECTION('',(0.,1.,0.));
#574=DIRECTION('center_axis',(0.,-1.,0.));
#575=DIRECTION('ref_axis',(1.,0.,0.));
#576=DIRECTION('center_axis',(0.,1.,0.));
#577=DIRECTION('ref_axis',(1.,0.,0.));
#578=DIRECTION('center_axis',(0.,1.,0.));
#579=DIRECTION('ref_axis',(1.,0.,0.));
#580=DIRECTION('',(0.,1.,0.));
#581=DIRECTION('center_axis',(0.,-1.,0.));
#582=DIRECTION('ref_axis',(1.,0.,0.));
#583=DIRECTION('center_axis',(0.,1.,0.));
#584=DIRECTION('ref_axis',(1.,0.,0.));
#585=DIRECTION('center_axis',(0.,1.,0.));
#586=DIRECTION('ref_axis',(1.,0.,0.));
#587=DIRECTION('',(0.,1.,0.));
#588=DIRECTION('center_axis',(0.,-1.,0.));
#589=DIRECTION('ref_axis',(1.,0.,0.));
#590=DIRECTION('center_axis',(0.,1.,0.));
#591=DIRECTION('ref_axis',(1.,0.,0.));
#592=DIRECTION('center_axis',(0.,1.,0.));
#593=DIRECTION('ref_axis',(1.,0.,0.));
#594=DIRECTION('',(0.,1.,0.));
#595=DIRECTION('center_axis',(0.,-1.,0.));
#596=DIRECTION('ref_axis',(1.,0.,0.));
#597=DIRECTION('center_axis',(0.,1.,0.));
#598=DIRECTION('ref_axis',(1.,0.,0.));
#599=DIRECTION('center_axis',(0.,1.,0.));
#600=DIRECTION('ref_axis',(1.,0.,0.));
#601=DIRECTION('',(0.,1.,0.));
#602=DIRECTION('center_axis',(0.,-1.,0.));
#603=DIRECTION('ref_axis',(1.,0.,0.));
#604=DIRECTION('center_axis',(0.,1.,0.));
#605=DIRECTION('ref_axis',(1.,0.,0.));
#606=DIRECTION('center_axis',(0.,1.,0.));
#607=DIRECTION('ref_axis',(1.,0.,0.));
#608=DIRECTION('',(0.,1.,0.));
#609=DIRECTION('center_axis',(0.,-1.,0.));
#610=DIRECTION('ref_axis',(1.,0.,0.));
#611=DIRECTION('center_axis',(0.,1.,0.));
#612=DIRECTION('ref_axis',(0.,0.,1.));
#613=DIRECTION('',(-1.,0.,0.));
#614=DIRECTION('',(-0.707106781186552,0.,0.707106781186543));
#615=DIRECTION('',(0.,0.,1.));
#616=DIRECTION('',(0.707106781186546,0.,0.707106781186548));
#617=DIRECTION('',(1.,0.,0.));
#618=DIRECTION('',(0.707106781186552,0.,-0.707106781186543));
#619=DIRECTION('',(0.,0.,-1.));
#620=DIRECTION('',(-0.707106781186552,0.,-0.707106781186543));
#621=DIRECTION('center_axis',(0.,1.,0.));
#622=DIRECTION('ref_axis',(0.,0.,1.));
#623=DIRECTION('center_axis',(0.,1.,0.));
#624=DIRECTION('ref_axis',(0.,0.,1.));
#625=DIRECTION('',(0.,0.,1.));
#626=DIRECTION('',(-1.,0.,0.));
#627=DIRECTION('',(0.,0.,-1.));
#628=DIRECTION('',(1.,0.,0.));
#629=DIRECTION('center_axis',(0.,1.,0.));
#630=DIRECTION('ref_axis',(0.,0.,1.));
#631=DIRECTION('center_axis',(0.,1.,0.));
#632=DIRECTION('ref_axis',(0.,0.,1.));
#633=DIRECTION('center_axis',(0.,1.,0.));
#634=DIRECTION('ref_axis',(0.,0.,1.));
#635=DIRECTION('',(-1.,0.,0.));
#636=DIRECTION('',(-0.707106781186552,0.,-0.707106781186543));
#637=DIRECTION('',(0.,0.,-1.));
#638=DIRECTION('',(0.707106781186552,0.,-0.707106781186543));
#639=DIRECTION('',(1.,0.,0.));
#640=DIRECTION('',(0.707106781186546,0.,0.707106781186548));
#641=DIRECTION('',(0.,0.,1.));
#642=DIRECTION('',(-0.707106781186552,0.,0.707106781186543));
#643=DIRECTION('center_axis',(0.,1.,0.));
#644=DIRECTION('ref_axis',(0.,0.,1.));
#645=DIRECTION('center_axis',(0.,1.,0.));
#646=DIRECTION('ref_axis',(0.,0.,1.));
#647=DIRECTION('center_axis',(0.,1.,0.));
#648=DIRECTION('ref_axis',(0.,0.,1.));
#649=DIRECTION('center_axis',(0.,1.,0.));
#650=DIRECTION('ref_axis',(0.,0.,1.));
#651=DIRECTION('',(-1.,0.,0.));
#652=DIRECTION('',(0.,0.,1.));
#653=DIRECTION('',(1.,0.,0.));
#654=DIRECTION('',(0.,0.,-1.));
#655=DIRECTION('center_axis',(0.,0.,1.));
#656=DIRECTION('ref_axis',(1.,0.,0.));
#657=DIRECTION('',(0.,-1.,0.));
#658=DIRECTION('',(0.,-1.,0.));
#659=DIRECTION('center_axis',(0.707106781186543,0.,0.707106781186552));
#660=DIRECTION('ref_axis',(0.707106781186552,0.,-0.707106781186543));
#661=DIRECTION('',(0.,-1.,0.));
#662=DIRECTION('center_axis',(1.,0.,0.));
#663=DIRECTION('ref_axis',(0.,0.,-1.));
#664=DIRECTION('',(0.,-1.,0.));
#665=DIRECTION('center_axis',(0.707106781186549,0.,-0.707106781186547));
#666=DIRECTION('ref_axis',(-0.707106781186546,0.,-0.707106781186548));
#667=DIRECTION('',(0.,-1.,0.));
#668=DIRECTION('center_axis',(0.,0.,-1.));
#669=DIRECTION('ref_axis',(-1.,0.,0.));
#670=DIRECTION('',(0.,-1.,0.));
#671=DIRECTION('center_axis',(-0.707106781186543,0.,-0.707106781186552));
#672=DIRECTION('ref_axis',(-0.707106781186552,0.,0.707106781186543));
#673=DIRECTION('',(0.,-1.,0.));
#674=DIRECTION('center_axis',(-1.,0.,0.));
#675=DIRECTION('ref_axis',(0.,0.,1.));
#676=DIRECTION('',(0.,-1.,0.));
#677=DIRECTION('center_axis',(-0.707106781186543,0.,0.707106781186552));
#678=DIRECTION('ref_axis',(0.707106781186552,0.,0.707106781186543));
#679=DIRECTION('center_axis',(0.,-1.,0.));
#680=DIRECTION('ref_axis',(0.,0.,-1.));
#681=DIRECTION('',(0.,-1.,0.));
#682=DIRECTION('center_axis',(0.,-1.,0.));
#683=DIRECTION('ref_axis',(0.,0.,-1.));
#684=DIRECTION('',(0.,-1.,0.));
#685=DIRECTION('center_axis',(0.,-1.,0.));
#686=DIRECTION('ref_axis',(0.,0.,-1.));
#687=DIRECTION('',(0.,-1.,0.));
#688=DIRECTION('center_axis',(0.,-1.,0.));
#689=DIRECTION('ref_axis',(0.,0.,-1.));
#690=DIRECTION('',(0.,-1.,0.));
#691=DIRECTION('center_axis',(-1.,0.,0.));
#692=DIRECTION('ref_axis',(0.,0.,1.));
#693=DIRECTION('',(0.,1.,0.));
#694=DIRECTION('',(0.,1.,0.));
#695=DIRECTION('center_axis',(0.,0.,-1.));
#696=DIRECTION('ref_axis',(-1.,0.,0.));
#697=DIRECTION('',(0.,1.,0.));
#698=DIRECTION('center_axis',(1.,0.,0.));
#699=DIRECTION('ref_axis',(0.,0.,-1.));
#700=DIRECTION('',(0.,1.,0.));
#701=DIRECTION('center_axis',(0.,0.,1.));
#702=DIRECTION('ref_axis',(1.,0.,0.));
#703=CARTESIAN_POINT('',(0.,0.,0.));
#704=CARTESIAN_POINT('Origin',(-34.,53.,46.4999999999999));
#705=CARTESIAN_POINT('',(-35.5,53.,46.4999999999999));
#706=CARTESIAN_POINT('Origin',(-34.,53.,46.4999999999999));
#707=CARTESIAN_POINT('',(-35.5,56.,46.4999999999999));
#708=CARTESIAN_POINT('',(-35.5,53.,46.4999999999999));
#709=CARTESIAN_POINT('Origin',(-34.,56.,46.4999999999999));
#710=CARTESIAN_POINT('Origin',(11.25,53.,63.9999999999999));
#711=CARTESIAN_POINT('',(9.75,53.,63.9999999999999));
#712=CARTESIAN_POINT('Origin',(11.25,53.,63.9999999999999));
#713=CARTESIAN_POINT('',(9.75,56.,63.9999999999999));
#714=CARTESIAN_POINT('',(9.75,53.,63.9999999999999));
#715=CARTESIAN_POINT('Origin',(11.25,56.,63.9999999999999));
#716=CARTESIAN_POINT('Origin',(-34.,53.,-67.5));
#717=CARTESIAN_POINT('',(-35.5,53.,-67.5));
#718=CARTESIAN_POINT('Origin',(-34.,53.,-67.5));
#719=CARTESIAN_POINT('',(-35.5,56.,-67.5));
#720=CARTESIAN_POINT('',(-35.5,53.,-67.5));
#721=CARTESIAN_POINT('Origin',(-34.,56.,-67.5));
#722=CARTESIAN_POINT('Origin',(34.,53.,46.4999999999999));
#723=CARTESIAN_POINT('',(32.5,53.,46.4999999999999));
#724=CARTESIAN_POINT('Origin',(34.,53.,46.4999999999999));
#725=CARTESIAN_POINT('',(32.5,56.,46.4999999999999));
#726=CARTESIAN_POINT('',(32.5,53.,46.4999999999999));
#727=CARTESIAN_POINT('Origin',(34.,56.,46.4999999999999));
#728=CARTESIAN_POINT('Origin',(-11.25,53.,63.9999999999999));
#729=CARTESIAN_POINT('',(-12.75,53.,63.9999999999999));
#730=CARTESIAN_POINT('Origin',(-11.25,53.,63.9999999999999));
#731=CARTESIAN_POINT('',(-12.75,56.,63.9999999999999));
#732=CARTESIAN_POINT('',(-12.75,53.,63.9999999999999));
#733=CARTESIAN_POINT('Origin',(-11.25,56.,63.9999999999999));
#734=CARTESIAN_POINT('Origin',(34.,53.,-67.5000000000001));
#735=CARTESIAN_POINT('',(32.5,53.,-67.5000000000001));
#736=CARTESIAN_POINT('Origin',(34.,53.,-67.5000000000001));
#737=CARTESIAN_POINT('',(32.5,56.,-67.5000000000001));
#738=CARTESIAN_POINT('',(32.5,53.,-67.5000000000001));
#739=CARTESIAN_POINT('Origin',(34.,56.,-67.5000000000001));
#740=CARTESIAN_POINT('Origin',(0.,56.,0.));
#741=CARTESIAN_POINT('',(49.5857864376267,56.,-73.9999999999999));
#742=CARTESIAN_POINT('',(-49.5857864376267,56.,-73.9999999999999));
#743=CARTESIAN_POINT('',(49.5857864376267,56.,-73.9999999999999));
#744=CARTESIAN_POINT('',(-73.9999999999999,56.,-49.5857864376269));
#745=CARTESIAN_POINT('',(-49.5857864376267,56.,-73.9999999999999));
#746=CARTESIAN_POINT('',(-73.9999999999999,56.,49.5857864376269));
#747=CARTESIAN_POINT('',(-73.9999999999999,56.,-49.5857864376269));
#748=CARTESIAN_POINT('',(-49.585786437627,56.,73.9999999999999));
#749=CARTESIAN_POINT('',(-73.9999999999999,56.,49.5857864376269));
#750=CARTESIAN_POINT('',(49.585786437627,56.,73.9999999999999));
#751=CARTESIAN_POINT('',(-49.585786437627,56.,73.9999999999999));
#752=CARTESIAN_POINT('',(74.,56.,49.5857864376272));
#753=CARTESIAN_POINT('',(49.585786437627,56.,73.9999999999999));
#754=CARTESIAN_POINT('',(74.,56.,-49.5857864376269));
#755=CARTESIAN_POINT('',(74.,56.,49.5857864376272));
#756=CARTESIAN_POINT('',(74.,56.,-49.5857864376269));
#757=CARTESIAN_POINT('',(-42.,56.,67.9499999999999));
#758=CARTESIAN_POINT('Origin',(-42.,56.,65.9999999999999));
#759=CARTESIAN_POINT('',(-42.,56.,-64.0499999999999));
#760=CARTESIAN_POINT('Origin',(-42.,56.,-65.9999999999999));
#761=CARTESIAN_POINT('',(-65.85,56.,23.6499999999999));
#762=CARTESIAN_POINT('',(-65.85,56.,41.9999999999999));
#763=CARTESIAN_POINT('',(-65.85,56.,23.6499999999999));
#764=CARTESIAN_POINT('',(-54.,56.,23.6499999999999));
#765=CARTESIAN_POINT('',(-54.,56.,23.6499999999999));
#766=CARTESIAN_POINT('',(-54.,56.,41.9999999999999));
#767=CARTESIAN_POINT('',(-54.,56.,41.9999999999999));
#768=CARTESIAN_POINT('',(-65.85,56.,41.9999999999999));
#769=CARTESIAN_POINT('',(45.,56.,67.9499999999999));
#770=CARTESIAN_POINT('Origin',(45.,56.,65.9999999999999));
#771=CARTESIAN_POINT('',(45.,56.,-64.0499999999999));
#772=CARTESIAN_POINT('Origin',(45.,56.,-65.9999999999999));
#773=CARTESIAN_POINT('Origin',(0.,53.,0.));
#774=CARTESIAN_POINT('',(49.5857864376267,53.,-73.9999999999999));
#775=CARTESIAN_POINT('',(-49.5857864376267,53.,-73.9999999999999));
#776=CARTESIAN_POINT('',(49.5857864376267,53.,-73.9999999999999));
#777=CARTESIAN_POINT('',(74.,53.,-49.5857864376269));
#778=CARTESIAN_POINT('',(74.,53.,-49.5857864376269));
#779=CARTESIAN_POINT('',(74.,53.,49.5857864376272));
#780=CARTESIAN_POINT('',(74.,53.,49.5857864376272));
#781=CARTESIAN_POINT('',(49.585786437627,53.,73.9999999999999));
#782=CARTESIAN_POINT('',(49.585786437627,53.,73.9999999999999));
#783=CARTESIAN_POINT('',(-49.585786437627,53.,73.9999999999999));
#784=CARTESIAN_POINT('',(-49.585786437627,53.,73.9999999999999));
#785=CARTESIAN_POINT('',(-73.9999999999999,53.,49.5857864376269));
#786=CARTESIAN_POINT('',(-73.9999999999999,53.,49.5857864376269));
#787=CARTESIAN_POINT('',(-73.9999999999999,53.,-49.5857864376269));
#788=CARTESIAN_POINT('',(-73.9999999999999,53.,-49.5857864376269));
#789=CARTESIAN_POINT('',(-49.5857864376267,53.,-73.9999999999999));
#790=CARTESIAN_POINT('',(45.,53.,-64.0499999999999));
#791=CARTESIAN_POINT('Origin',(45.,53.,-65.9999999999999));
#792=CARTESIAN_POINT('',(-42.,53.,67.9499999999999));
#793=CARTESIAN_POINT('Origin',(-42.,53.,65.9999999999999));
#794=CARTESIAN_POINT('',(45.,53.,67.9499999999999));
#795=CARTESIAN_POINT('Origin',(45.,53.,65.9999999999999));
#796=CARTESIAN_POINT('',(-42.,53.,-64.0499999999999));
#797=CARTESIAN_POINT('Origin',(-42.,53.,-65.9999999999999));
#798=CARTESIAN_POINT('',(-54.,53.,23.6499999999999));
#799=CARTESIAN_POINT('',(-65.85,53.,23.6499999999999));
#800=CARTESIAN_POINT('',(-54.,53.,23.6499999999999));
#801=CARTESIAN_POINT('',(-65.85,53.,41.9999999999999));
#802=CARTESIAN_POINT('',(-65.85,53.,23.6499999999999));
#803=CARTESIAN_POINT('',(-54.,53.,41.9999999999999));
#804=CARTESIAN_POINT('',(-65.85,53.,41.9999999999999));
#805=CARTESIAN_POINT('',(-54.,53.,41.9999999999999));
#806=CARTESIAN_POINT('Origin',(49.5857864376267,56.,-73.9999999999999));
#807=CARTESIAN_POINT('',(-49.5857864376267,56.,-73.9999999999999));
#808=CARTESIAN_POINT('',(49.5857864376267,56.,-73.9999999999999));
#809=CARTESIAN_POINT('Origin',(-49.5857864376267,56.,-73.9999999999999));
#810=CARTESIAN_POINT('',(-73.9999999999999,56.,-49.5857864376269));
#811=CARTESIAN_POINT('Origin',(-73.9999999999999,56.,-49.5857864376269));
#812=CARTESIAN_POINT('',(-73.9999999999999,56.,49.5857864376269));
#813=CARTESIAN_POINT('Origin',(-73.9999999999999,56.,49.5857864376269));
#814=CARTESIAN_POINT('',(-49.585786437627,56.,73.9999999999999));
#815=CARTESIAN_POINT('Origin',(-49.585786437627,56.,73.9999999999999));
#816=CARTESIAN_POINT('',(49.585786437627,56.,73.9999999999999));
#817=CARTESIAN_POINT('Origin',(49.585786437627,56.,73.9999999999999));
#818=CARTESIAN_POINT('',(74.,56.,49.5857864376272));
#819=CARTESIAN_POINT('Origin',(74.,56.,49.5857864376272));
#820=CARTESIAN_POINT('',(74.,56.,-49.5857864376269));
#821=CARTESIAN_POINT('Origin',(74.,56.,-49.5857864376269));
#822=CARTESIAN_POINT('Origin',(45.,56.,-65.9999999999999));
#823=CARTESIAN_POINT('',(45.,56.,-64.0499999999999));
#824=CARTESIAN_POINT('Origin',(-42.,56.,65.9999999999999));
#825=CARTESIAN_POINT('',(-42.,56.,67.9499999999999));
#826=CARTESIAN_POINT('Origin',(45.,56.,65.9999999999999));
#827=CARTESIAN_POINT('',(45.,56.,67.9499999999999));
#828=CARTESIAN_POINT('Origin',(-42.,56.,-65.9999999999999));
#829=CARTESIAN_POINT('',(-42.,56.,-64.0499999999999));
#830=CARTESIAN_POINT('Origin',(-65.85,53.,23.6499999999999));
#831=CARTESIAN_POINT('',(-65.85,53.,41.9999999999999));
#832=CARTESIAN_POINT('',(-65.85,53.,23.6499999999999));
#833=CARTESIAN_POINT('Origin',(-65.85,53.,23.6499999999999));
#834=CARTESIAN_POINT('',(-54.,53.,23.6499999999999));
#835=CARTESIAN_POINT('Origin',(-54.,53.,23.6499999999999));
#836=CARTESIAN_POINT('',(-54.,53.,41.9999999999999));
#837=CARTESIAN_POINT('Origin',(-65.85,53.,41.9999999999999));
#838=UNCERTAINTY_MEASURE_WITH_UNIT(LENGTH_MEASURE(0.01),#842,
'DISTANCE_ACCURACY_VALUE',
'Maximum model space distance between geometric entities at asserted c
onnectivities');
#839=UNCERTAINTY_MEASURE_WITH_UNIT(LENGTH_MEASURE(0.01),#842,
'DISTANCE_ACCURACY_VALUE',
'Maximum model space distance between geometric entities at asserted c
onnectivities');
#840=(
GEOMETRIC_REPRESENTATION_CONTEXT(3)
GLOBAL_UNCERTAINTY_ASSIGNED_CONTEXT((#838))
GLOBAL_UNIT_ASSIGNED_CONTEXT((#842,#844,#845))
REPRESENTATION_CONTEXT('','3D')
);
#841=(
GEOMETRIC_REPRESENTATION_CONTEXT(3)
GLOBAL_UNCERTAINTY_ASSIGNED_CONTEXT((#839))
GLOBAL_UNIT_ASSIGNED_CONTEXT((#842,#844,#845))
REPRESENTATION_CONTEXT('','3D')
);
#842=(
LENGTH_UNIT()
NAMED_UNIT(*)
SI_UNIT(.MILLI.,.METRE.)
);
#843=(
LENGTH_UNIT()
NAMED_UNIT(*)
SI_UNIT($,.METRE.)
);
#844=(
NAMED_UNIT(*)
PLANE_ANGLE_UNIT()
SI_UNIT($,.RADIAN.)
);
#845=(
NAMED_UNIT(*)
SI_UNIT($,.STERADIAN.)
SOLID_ANGLE_UNIT()
);
#846=SHAPE_DEFINITION_REPRESENTATION(#847,#848);
#847=PRODUCT_DEFINITION_SHAPE('',$,#850);
#848=SHAPE_REPRESENTATION('',(#522),#840);
#849=PRODUCT_DEFINITION_CONTEXT('part definition',#854,'design');
#850=PRODUCT_DEFINITION('Nivel_2_N','Nivel_2_N v4',#851,#849);
#851=PRODUCT_DEFINITION_FORMATION('',$,#856);
#852=PRODUCT_RELATED_PRODUCT_CATEGORY('Nivel_2_N v4','Nivel_2_N v4',(#856));
#853=APPLICATION_PROTOCOL_DEFINITION('international standard',
'automotive_design',2009,#854);
#854=APPLICATION_CONTEXT(
'Core Data for Automotive Mechanical Design Process');
#855=PRODUCT_CONTEXT('part definition',#854,'mechanical');
#856=PRODUCT('Nivel_2_N','Nivel_2_N v4',$,(#855));
#857=PRESENTATION_STYLE_ASSIGNMENT((#859));
#858=PRESENTATION_STYLE_ASSIGNMENT((#860));
#859=SURFACE_STYLE_USAGE(.BOTH.,#861);
#860=SURFACE_STYLE_USAGE(.BOTH.,#862);
#861=SURFACE_SIDE_STYLE('',(#863));
#862=SURFACE_SIDE_STYLE('',(#864));
#863=SURFACE_STYLE_FILL_AREA(#865);
#864=SURFACE_STYLE_FILL_AREA(#866);
#865=FILL_AREA_STYLE('Steel - Satin',(#867));
#866=FILL_AREA_STYLE('EPX 86FR (with Carbon M2 M3 L1 3D Printers)',(#868));
#867=FILL_AREA_STYLE_COLOUR('Steel - Satin',#869);
#868=FILL_AREA_STYLE_COLOUR(
'EPX 86FR (with Carbon M2 M3 L1 3D Printers)',#870);
#869=COLOUR_RGB('Steel - Satin',0.627450980392157,0.627450980392157,0.627450980392157);
#870=COLOUR_RGB('EPX 86FR (with Carbon M2 M3 L1 3D Printers)',0.247058823529412,
0.247058823529412,0.247058823529412);
ENDSEC;
END-ISO-10303-21;
