ISO-10303-21;
HEADER;
/* Generated by software containing ST-Developer
 * from STEP Tools, Inc. (www.steptools.com) 
 */

FILE_DESCRIPTION(
/* description */ (''),
/* implementation_level */ '2;1');

FILE_NAME(
/* name */ 'servo.step',
/* time_stamp */ '2026-01-03T11:39:47-04:00',
/* author */ (''),
/* organization */ (''),
/* preprocessor_version */ 'ST-DEVELOPER v20.1',
/* originating_system */ 'Autodesk Translation Framework v14.21.0.0',
/* authorisation */ '');

FILE_SCHEMA (('AUTOMOTIVE_DESIGN { 1 0 10303 214 3 1 1 }'));
ENDSEC;

DATA;
#10=MECHANICAL_DESIGN_GEOMETRIC_PRESENTATION_REPRESENTATION('',(#13),#1061);
#11=SHAPE_REPRESENTATION_RELATIONSHIP('SRR','None',#1068,#12);
#12=ADVANCED_BREP_SHAPE_REPRESENTATION('',(#14),#1060);
#13=STYLED_ITEM('',(#1078),#14);
#14=MANIFOLD_SOLID_BREP('Body1',#649);
#15=FACE_BOUND('',#80,.T.);
#16=FACE_BOUND('',#88,.T.);
#17=FACE_BOUND('',#96,.T.);
#18=FACE_BOUND('',#98,.T.);
#19=CIRCLE('',#668,1.5);
#20=CIRCLE('',#669,1.5);
#21=CIRCLE('',#672,1.);
#22=CIRCLE('',#673,1.);
#23=CIRCLE('',#677,1.);
#24=CIRCLE('',#678,1.);
#25=CIRCLE('',#681,1.5);
#26=CIRCLE('',#682,1.5);
#27=CIRCLE('',#685,1.);
#28=CIRCLE('',#686,1.);
#29=CIRCLE('',#690,1.);
#30=CIRCLE('',#691,1.);
#31=CYLINDRICAL_SURFACE('',#667,1.5);
#32=CYLINDRICAL_SURFACE('',#671,1.);
#33=CYLINDRICAL_SURFACE('',#676,1.);
#34=CYLINDRICAL_SURFACE('',#680,1.5);
#35=CYLINDRICAL_SURFACE('',#684,1.);
#36=CYLINDRICAL_SURFACE('',#689,1.);
#37=FACE_OUTER_BOUND('',#69,.T.);
#38=FACE_OUTER_BOUND('',#70,.T.);
#39=FACE_OUTER_BOUND('',#71,.T.);
#40=FACE_OUTER_BOUND('',#72,.T.);
#41=FACE_OUTER_BOUND('',#73,.T.);
#42=FACE_OUTER_BOUND('',#74,.T.);
#43=FACE_OUTER_BOUND('',#75,.T.);
#44=FACE_OUTER_BOUND('',#76,.T.);
#45=FACE_OUTER_BOUND('',#77,.T.);
#46=FACE_OUTER_BOUND('',#78,.T.);
#47=FACE_OUTER_BOUND('',#79,.T.);
#48=FACE_OUTER_BOUND('',#81,.T.);
#49=FACE_OUTER_BOUND('',#82,.T.);
#50=FACE_OUTER_BOUND('',#83,.T.);
#51=FACE_OUTER_BOUND('',#84,.T.);
#52=FACE_OUTER_BOUND('',#85,.T.);
#53=FACE_OUTER_BOUND('',#86,.T.);
#54=FACE_OUTER_BOUND('',#87,.T.);
#55=FACE_OUTER_BOUND('',#89,.T.);
#56=FACE_OUTER_BOUND('',#90,.T.);
#57=FACE_OUTER_BOUND('',#91,.T.);
#58=FACE_OUTER_BOUND('',#92,.T.);
#59=FACE_OUTER_BOUND('',#93,.T.);
#60=FACE_OUTER_BOUND('',#94,.T.);
#61=FACE_OUTER_BOUND('',#95,.T.);
#62=FACE_OUTER_BOUND('',#97,.T.);
#63=FACE_OUTER_BOUND('',#99,.T.);
#64=FACE_OUTER_BOUND('',#100,.T.);
#65=FACE_OUTER_BOUND('',#101,.T.);
#66=FACE_OUTER_BOUND('',#102,.T.);
#67=FACE_OUTER_BOUND('',#103,.T.);
#68=FACE_OUTER_BOUND('',#104,.T.);
#69=EDGE_LOOP('',(#411,#412,#413,#414,#415,#416,#417,#418,#419,#420,#421,
#422));
#70=EDGE_LOOP('',(#423,#424,#425,#426));
#71=EDGE_LOOP('',(#427,#428,#429,#430));
#72=EDGE_LOOP('',(#431,#432,#433,#434));
#73=EDGE_LOOP('',(#435,#436,#437,#438));
#74=EDGE_LOOP('',(#439,#440,#441,#442));
#75=EDGE_LOOP('',(#443,#444,#445,#446));
#76=EDGE_LOOP('',(#447,#448,#449,#450));
#77=EDGE_LOOP('',(#451,#452,#453,#454));
#78=EDGE_LOOP('',(#455,#456,#457,#458));
#79=EDGE_LOOP('',(#459,#460,#461,#462,#463,#464));
#80=EDGE_LOOP('',(#465));
#81=EDGE_LOOP('',(#466,#467,#468,#469));
#82=EDGE_LOOP('',(#470,#471,#472,#473));
#83=EDGE_LOOP('',(#474,#475,#476,#477));
#84=EDGE_LOOP('',(#478,#479,#480,#481));
#85=EDGE_LOOP('',(#482,#483,#484,#485));
#86=EDGE_LOOP('',(#486,#487,#488,#489));
#87=EDGE_LOOP('',(#490,#491,#492,#493,#494,#495));
#88=EDGE_LOOP('',(#496));
#89=EDGE_LOOP('',(#497,#498,#499,#500));
#90=EDGE_LOOP('',(#501,#502,#503,#504));
#91=EDGE_LOOP('',(#505,#506,#507,#508));
#92=EDGE_LOOP('',(#509,#510,#511,#512));
#93=EDGE_LOOP('',(#513,#514,#515,#516));
#94=EDGE_LOOP('',(#517,#518,#519,#520));
#95=EDGE_LOOP('',(#521,#522,#523,#524,#525,#526,#527,#528,#529,#530,#531,
#532,#533,#534));
#96=EDGE_LOOP('',(#535));
#97=EDGE_LOOP('',(#536,#537,#538,#539,#540,#541,#542,#543,#544,#545,#546,
#547,#548,#549));
#98=EDGE_LOOP('',(#550));
#99=EDGE_LOOP('',(#551,#552,#553,#554,#555,#556,#557,#558));
#100=EDGE_LOOP('',(#559,#560,#561,#562));
#101=EDGE_LOOP('',(#563,#564,#565,#566));
#102=EDGE_LOOP('',(#567,#568,#569,#570,#571,#572,#573,#574));
#103=EDGE_LOOP('',(#575,#576,#577,#578,#579,#580,#581,#582));
#104=EDGE_LOOP('',(#583,#584,#585,#586,#587,#588,#589,#590));
#105=LINE('',#879,#183);
#106=LINE('',#881,#184);
#107=LINE('',#883,#185);
#108=LINE('',#885,#186);
#109=LINE('',#887,#187);
#110=LINE('',#889,#188);
#111=LINE('',#891,#189);
#112=LINE('',#893,#190);
#113=LINE('',#895,#191);
#114=LINE('',#897,#192);
#115=LINE('',#899,#193);
#116=LINE('',#900,#194);
#117=LINE('',#903,#195);
#118=LINE('',#905,#196);
#119=LINE('',#906,#197);
#120=LINE('',#909,#198);
#121=LINE('',#911,#199);
#122=LINE('',#912,#200);
#123=LINE('',#915,#201);
#124=LINE('',#917,#202);
#125=LINE('',#918,#203);
#126=LINE('',#923,#204);
#127=LINE('',#928,#205);
#128=LINE('',#930,#206);
#129=LINE('',#932,#207);
#130=LINE('',#933,#208);
#131=LINE('',#939,#209);
#132=LINE('',#942,#210);
#133=LINE('',#944,#211);
#134=LINE('',#945,#212);
#135=LINE('',#949,#213);
#136=LINE('',#951,#214);
#137=LINE('',#953,#215);
#138=LINE('',#954,#216);
#139=LINE('',#959,#217);
#140=LINE('',#964,#218);
#141=LINE('',#969,#219);
#142=LINE('',#971,#220);
#143=LINE('',#973,#221);
#144=LINE('',#974,#222);
#145=LINE('',#980,#223);
#146=LINE('',#983,#224);
#147=LINE('',#985,#225);
#148=LINE('',#986,#226);
#149=LINE('',#990,#227);
#150=LINE('',#992,#228);
#151=LINE('',#994,#229);
#152=LINE('',#995,#230);
#153=LINE('',#1000,#231);
#154=LINE('',#1004,#232);
#155=LINE('',#1006,#233);
#156=LINE('',#1008,#234);
#157=LINE('',#1009,#235);
#158=LINE('',#1012,#236);
#159=LINE('',#1014,#237);
#160=LINE('',#1015,#238);
#161=LINE('',#1018,#239);
#162=LINE('',#1020,#240);
#163=LINE('',#1021,#241);
#164=LINE('',#1024,#242);
#165=LINE('',#1025,#243);
#166=LINE('',#1027,#244);
#167=LINE('',#1030,#245);
#168=LINE('',#1031,#246);
#169=LINE('',#1034,#247);
#170=LINE('',#1035,#248);
#171=LINE('',#1037,#249);
#172=LINE('',#1038,#250);
#173=LINE('',#1039,#251);
#174=LINE('',#1041,#252);
#175=LINE('',#1043,#253);
#176=LINE('',#1044,#254);
#177=LINE('',#1046,#255);
#178=LINE('',#1047,#256);
#179=LINE('',#1049,#257);
#180=LINE('',#1050,#258);
#181=LINE('',#1052,#259);
#182=LINE('',#1054,#260);
#183=VECTOR('',#711,10.);
#184=VECTOR('',#712,10.);
#185=VECTOR('',#713,10.);
#186=VECTOR('',#714,10.);
#187=VECTOR('',#715,10.);
#188=VECTOR('',#716,10.);
#189=VECTOR('',#717,10.);
#190=VECTOR('',#718,10.);
#191=VECTOR('',#719,10.);
#192=VECTOR('',#720,10.);
#193=VECTOR('',#721,10.);
#194=VECTOR('',#722,10.);
#195=VECTOR('',#725,10.);
#196=VECTOR('',#726,10.);
#197=VECTOR('',#727,10.);
#198=VECTOR('',#730,10.);
#199=VECTOR('',#731,10.);
#200=VECTOR('',#732,10.);
#201=VECTOR('',#735,10.);
#202=VECTOR('',#736,10.);
#203=VECTOR('',#737,10.);
#204=VECTOR('',#742,1.5);
#205=VECTOR('',#747,10.);
#206=VECTOR('',#748,10.);
#207=VECTOR('',#749,10.);
#208=VECTOR('',#750,10.);
#209=VECTOR('',#757,10.);
#210=VECTOR('',#760,10.);
#211=VECTOR('',#761,10.);
#212=VECTOR('',#762,10.);
#213=VECTOR('',#765,10.);
#214=VECTOR('',#766,10.);
#215=VECTOR('',#767,10.);
#216=VECTOR('',#768,10.);
#217=VECTOR('',#777,10.);
#218=VECTOR('',#782,1.5);
#219=VECTOR('',#787,10.);
#220=VECTOR('',#788,10.);
#221=VECTOR('',#789,10.);
#222=VECTOR('',#790,10.);
#223=VECTOR('',#797,10.);
#224=VECTOR('',#800,10.);
#225=VECTOR('',#801,10.);
#226=VECTOR('',#802,10.);
#227=VECTOR('',#805,10.);
#228=VECTOR('',#806,10.);
#229=VECTOR('',#807,10.);
#230=VECTOR('',#808,10.);
#231=VECTOR('',#817,10.);
#232=VECTOR('',#820,10.);
#233=VECTOR('',#821,10.);
#234=VECTOR('',#822,10.);
#235=VECTOR('',#823,10.);
#236=VECTOR('',#826,10.);
#237=VECTOR('',#827,10.);
#238=VECTOR('',#828,10.);
#239=VECTOR('',#831,10.);
#240=VECTOR('',#832,10.);
#241=VECTOR('',#833,10.);
#242=VECTOR('',#836,10.);
#243=VECTOR('',#837,10.);
#244=VECTOR('',#840,10.);
#245=VECTOR('',#843,10.);
#246=VECTOR('',#844,10.);
#247=VECTOR('',#847,10.);
#248=VECTOR('',#848,10.);
#249=VECTOR('',#849,10.);
#250=VECTOR('',#850,10.);
#251=VECTOR('',#851,10.);
#252=VECTOR('',#854,10.);
#253=VECTOR('',#855,10.);
#254=VECTOR('',#856,10.);
#255=VECTOR('',#857,10.);
#256=VECTOR('',#858,10.);
#257=VECTOR('',#861,10.);
#258=VECTOR('',#862,10.);
#259=VECTOR('',#865,10.);
#260=VECTOR('',#868,10.);
#261=VERTEX_POINT('',#877);
#262=VERTEX_POINT('',#878);
#263=VERTEX_POINT('',#880);
#264=VERTEX_POINT('',#882);
#265=VERTEX_POINT('',#884);
#266=VERTEX_POINT('',#886);
#267=VERTEX_POINT('',#888);
#268=VERTEX_POINT('',#890);
#269=VERTEX_POINT('',#892);
#270=VERTEX_POINT('',#894);
#271=VERTEX_POINT('',#896);
#272=VERTEX_POINT('',#898);
#273=VERTEX_POINT('',#902);
#274=VERTEX_POINT('',#904);
#275=VERTEX_POINT('',#908);
#276=VERTEX_POINT('',#910);
#277=VERTEX_POINT('',#914);
#278=VERTEX_POINT('',#916);
#279=VERTEX_POINT('',#920);
#280=VERTEX_POINT('',#922);
#281=VERTEX_POINT('',#926);
#282=VERTEX_POINT('',#927);
#283=VERTEX_POINT('',#929);
#284=VERTEX_POINT('',#931);
#285=VERTEX_POINT('',#935);
#286=VERTEX_POINT('',#937);
#287=VERTEX_POINT('',#941);
#288=VERTEX_POINT('',#943);
#289=VERTEX_POINT('',#947);
#290=VERTEX_POINT('',#948);
#291=VERTEX_POINT('',#950);
#292=VERTEX_POINT('',#952);
#293=VERTEX_POINT('',#961);
#294=VERTEX_POINT('',#963);
#295=VERTEX_POINT('',#967);
#296=VERTEX_POINT('',#968);
#297=VERTEX_POINT('',#970);
#298=VERTEX_POINT('',#972);
#299=VERTEX_POINT('',#976);
#300=VERTEX_POINT('',#978);
#301=VERTEX_POINT('',#982);
#302=VERTEX_POINT('',#984);
#303=VERTEX_POINT('',#988);
#304=VERTEX_POINT('',#989);
#305=VERTEX_POINT('',#991);
#306=VERTEX_POINT('',#993);
#307=VERTEX_POINT('',#1002);
#308=VERTEX_POINT('',#1003);
#309=VERTEX_POINT('',#1005);
#310=VERTEX_POINT('',#1007);
#311=VERTEX_POINT('',#1011);
#312=VERTEX_POINT('',#1013);
#313=VERTEX_POINT('',#1017);
#314=VERTEX_POINT('',#1019);
#315=VERTEX_POINT('',#1023);
#316=VERTEX_POINT('',#1029);
#317=VERTEX_POINT('',#1033);
#318=VERTEX_POINT('',#1036);
#319=VERTEX_POINT('',#1042);
#320=VERTEX_POINT('',#1045);
#321=EDGE_CURVE('',#261,#262,#105,.T.);
#322=EDGE_CURVE('',#262,#263,#106,.T.);
#323=EDGE_CURVE('',#263,#264,#107,.T.);
#324=EDGE_CURVE('',#264,#265,#108,.T.);
#325=EDGE_CURVE('',#265,#266,#109,.T.);
#326=EDGE_CURVE('',#266,#267,#110,.T.);
#327=EDGE_CURVE('',#267,#268,#111,.T.);
#328=EDGE_CURVE('',#268,#269,#112,.T.);
#329=EDGE_CURVE('',#269,#270,#113,.T.);
#330=EDGE_CURVE('',#270,#271,#114,.T.);
#331=EDGE_CURVE('',#271,#272,#115,.T.);
#332=EDGE_CURVE('',#272,#261,#116,.T.);
#333=EDGE_CURVE('',#268,#273,#117,.T.);
#334=EDGE_CURVE('',#274,#273,#118,.T.);
#335=EDGE_CURVE('',#274,#269,#119,.T.);
#336=EDGE_CURVE('',#275,#267,#120,.T.);
#337=EDGE_CURVE('',#276,#266,#121,.T.);
#338=EDGE_CURVE('',#276,#275,#122,.T.);
#339=EDGE_CURVE('',#262,#277,#123,.T.);
#340=EDGE_CURVE('',#277,#278,#124,.T.);
#341=EDGE_CURVE('',#278,#263,#125,.T.);
#342=EDGE_CURVE('',#279,#279,#19,.T.);
#343=EDGE_CURVE('',#279,#280,#126,.T.);
#344=EDGE_CURVE('',#280,#280,#20,.T.);
#345=EDGE_CURVE('',#281,#282,#127,.T.);
#346=EDGE_CURVE('',#282,#283,#128,.T.);
#347=EDGE_CURVE('',#284,#283,#129,.T.);
#348=EDGE_CURVE('',#281,#284,#130,.T.);
#349=EDGE_CURVE('',#281,#285,#21,.T.);
#350=EDGE_CURVE('',#286,#284,#22,.T.);
#351=EDGE_CURVE('',#285,#286,#131,.T.);
#352=EDGE_CURVE('',#287,#285,#132,.T.);
#353=EDGE_CURVE('',#288,#286,#133,.T.);
#354=EDGE_CURVE('',#287,#288,#134,.T.);
#355=EDGE_CURVE('',#289,#290,#135,.T.);
#356=EDGE_CURVE('',#291,#290,#136,.T.);
#357=EDGE_CURVE('',#292,#291,#137,.T.);
#358=EDGE_CURVE('',#289,#292,#138,.T.);
#359=EDGE_CURVE('',#289,#282,#23,.T.);
#360=EDGE_CURVE('',#283,#292,#24,.T.);
#361=EDGE_CURVE('',#288,#291,#139,.T.);
#362=EDGE_CURVE('',#293,#293,#25,.T.);
#363=EDGE_CURVE('',#293,#294,#140,.T.);
#364=EDGE_CURVE('',#294,#294,#26,.T.);
#365=EDGE_CURVE('',#295,#296,#141,.T.);
#366=EDGE_CURVE('',#295,#297,#142,.T.);
#367=EDGE_CURVE('',#298,#297,#143,.T.);
#368=EDGE_CURVE('',#296,#298,#144,.T.);
#369=EDGE_CURVE('',#296,#299,#27,.T.);
#370=EDGE_CURVE('',#300,#298,#28,.T.);
#371=EDGE_CURVE('',#299,#300,#145,.T.);
#372=EDGE_CURVE('',#299,#301,#146,.T.);
#373=EDGE_CURVE('',#302,#300,#147,.T.);
#374=EDGE_CURVE('',#301,#302,#148,.T.);
#375=EDGE_CURVE('',#303,#304,#149,.T.);
#376=EDGE_CURVE('',#305,#303,#150,.T.);
#377=EDGE_CURVE('',#306,#305,#151,.T.);
#378=EDGE_CURVE('',#304,#306,#152,.T.);
#379=EDGE_CURVE('',#304,#295,#29,.T.);
#380=EDGE_CURVE('',#297,#306,#30,.T.);
#381=EDGE_CURVE('',#302,#305,#153,.T.);
#382=EDGE_CURVE('',#307,#308,#154,.T.);
#383=EDGE_CURVE('',#307,#309,#155,.T.);
#384=EDGE_CURVE('',#310,#309,#156,.T.);
#385=EDGE_CURVE('',#308,#310,#157,.T.);
#386=EDGE_CURVE('',#308,#311,#158,.T.);
#387=EDGE_CURVE('',#312,#310,#159,.T.);
#388=EDGE_CURVE('',#311,#312,#160,.T.);
#389=EDGE_CURVE('',#313,#307,#161,.T.);
#390=EDGE_CURVE('',#314,#313,#162,.T.);
#391=EDGE_CURVE('',#309,#314,#163,.T.);
#392=EDGE_CURVE('',#315,#261,#164,.T.);
#393=EDGE_CURVE('',#277,#315,#165,.T.);
#394=EDGE_CURVE('',#273,#275,#166,.T.);
#395=EDGE_CURVE('',#316,#272,#167,.T.);
#396=EDGE_CURVE('',#315,#316,#168,.T.);
#397=EDGE_CURVE('',#317,#276,#169,.T.);
#398=EDGE_CURVE('',#311,#317,#170,.T.);
#399=EDGE_CURVE('',#312,#318,#171,.T.);
#400=EDGE_CURVE('',#318,#290,#172,.T.);
#401=EDGE_CURVE('',#287,#274,#173,.T.);
#402=EDGE_CURVE('',#316,#303,#174,.T.);
#403=EDGE_CURVE('',#301,#319,#175,.T.);
#404=EDGE_CURVE('',#319,#314,#176,.T.);
#405=EDGE_CURVE('',#320,#313,#177,.T.);
#406=EDGE_CURVE('',#278,#320,#178,.T.);
#407=EDGE_CURVE('',#319,#271,#179,.T.);
#408=EDGE_CURVE('',#318,#270,#180,.T.);
#409=EDGE_CURVE('',#320,#264,#181,.T.);
#410=EDGE_CURVE('',#317,#265,#182,.T.);
#411=ORIENTED_EDGE('',*,*,#321,.T.);
#412=ORIENTED_EDGE('',*,*,#322,.T.);
#413=ORIENTED_EDGE('',*,*,#323,.T.);
#414=ORIENTED_EDGE('',*,*,#324,.T.);
#415=ORIENTED_EDGE('',*,*,#325,.T.);
#416=ORIENTED_EDGE('',*,*,#326,.T.);
#417=ORIENTED_EDGE('',*,*,#327,.T.);
#418=ORIENTED_EDGE('',*,*,#328,.T.);
#419=ORIENTED_EDGE('',*,*,#329,.T.);
#420=ORIENTED_EDGE('',*,*,#330,.T.);
#421=ORIENTED_EDGE('',*,*,#331,.T.);
#422=ORIENTED_EDGE('',*,*,#332,.T.);
#423=ORIENTED_EDGE('',*,*,#333,.T.);
#424=ORIENTED_EDGE('',*,*,#334,.F.);
#425=ORIENTED_EDGE('',*,*,#335,.T.);
#426=ORIENTED_EDGE('',*,*,#328,.F.);
#427=ORIENTED_EDGE('',*,*,#336,.T.);
#428=ORIENTED_EDGE('',*,*,#326,.F.);
#429=ORIENTED_EDGE('',*,*,#337,.F.);
#430=ORIENTED_EDGE('',*,*,#338,.T.);
#431=ORIENTED_EDGE('',*,*,#339,.T.);
#432=ORIENTED_EDGE('',*,*,#340,.T.);
#433=ORIENTED_EDGE('',*,*,#341,.T.);
#434=ORIENTED_EDGE('',*,*,#322,.F.);
#435=ORIENTED_EDGE('',*,*,#342,.F.);
#436=ORIENTED_EDGE('',*,*,#343,.T.);
#437=ORIENTED_EDGE('',*,*,#344,.F.);
#438=ORIENTED_EDGE('',*,*,#343,.F.);
#439=ORIENTED_EDGE('',*,*,#345,.T.);
#440=ORIENTED_EDGE('',*,*,#346,.T.);
#441=ORIENTED_EDGE('',*,*,#347,.F.);
#442=ORIENTED_EDGE('',*,*,#348,.F.);
#443=ORIENTED_EDGE('',*,*,#349,.F.);
#444=ORIENTED_EDGE('',*,*,#348,.T.);
#445=ORIENTED_EDGE('',*,*,#350,.F.);
#446=ORIENTED_EDGE('',*,*,#351,.F.);
#447=ORIENTED_EDGE('',*,*,#352,.T.);
#448=ORIENTED_EDGE('',*,*,#351,.T.);
#449=ORIENTED_EDGE('',*,*,#353,.F.);
#450=ORIENTED_EDGE('',*,*,#354,.F.);
#451=ORIENTED_EDGE('',*,*,#355,.T.);
#452=ORIENTED_EDGE('',*,*,#356,.F.);
#453=ORIENTED_EDGE('',*,*,#357,.F.);
#454=ORIENTED_EDGE('',*,*,#358,.F.);
#455=ORIENTED_EDGE('',*,*,#359,.F.);
#456=ORIENTED_EDGE('',*,*,#358,.T.);
#457=ORIENTED_EDGE('',*,*,#360,.F.);
#458=ORIENTED_EDGE('',*,*,#346,.F.);
#459=ORIENTED_EDGE('',*,*,#360,.T.);
#460=ORIENTED_EDGE('',*,*,#357,.T.);
#461=ORIENTED_EDGE('',*,*,#361,.F.);
#462=ORIENTED_EDGE('',*,*,#353,.T.);
#463=ORIENTED_EDGE('',*,*,#350,.T.);
#464=ORIENTED_EDGE('',*,*,#347,.T.);
#465=ORIENTED_EDGE('',*,*,#342,.T.);
#466=ORIENTED_EDGE('',*,*,#362,.F.);
#467=ORIENTED_EDGE('',*,*,#363,.T.);
#468=ORIENTED_EDGE('',*,*,#364,.F.);
#469=ORIENTED_EDGE('',*,*,#363,.F.);
#470=ORIENTED_EDGE('',*,*,#365,.F.);
#471=ORIENTED_EDGE('',*,*,#366,.T.);
#472=ORIENTED_EDGE('',*,*,#367,.F.);
#473=ORIENTED_EDGE('',*,*,#368,.F.);
#474=ORIENTED_EDGE('',*,*,#369,.F.);
#475=ORIENTED_EDGE('',*,*,#368,.T.);
#476=ORIENTED_EDGE('',*,*,#370,.F.);
#477=ORIENTED_EDGE('',*,*,#371,.F.);
#478=ORIENTED_EDGE('',*,*,#372,.F.);
#479=ORIENTED_EDGE('',*,*,#371,.T.);
#480=ORIENTED_EDGE('',*,*,#373,.F.);
#481=ORIENTED_EDGE('',*,*,#374,.F.);
#482=ORIENTED_EDGE('',*,*,#375,.F.);
#483=ORIENTED_EDGE('',*,*,#376,.F.);
#484=ORIENTED_EDGE('',*,*,#377,.F.);
#485=ORIENTED_EDGE('',*,*,#378,.F.);
#486=ORIENTED_EDGE('',*,*,#379,.F.);
#487=ORIENTED_EDGE('',*,*,#378,.T.);
#488=ORIENTED_EDGE('',*,*,#380,.F.);
#489=ORIENTED_EDGE('',*,*,#366,.F.);
#490=ORIENTED_EDGE('',*,*,#380,.T.);
#491=ORIENTED_EDGE('',*,*,#377,.T.);
#492=ORIENTED_EDGE('',*,*,#381,.F.);
#493=ORIENTED_EDGE('',*,*,#373,.T.);
#494=ORIENTED_EDGE('',*,*,#370,.T.);
#495=ORIENTED_EDGE('',*,*,#367,.T.);
#496=ORIENTED_EDGE('',*,*,#362,.T.);
#497=ORIENTED_EDGE('',*,*,#382,.F.);
#498=ORIENTED_EDGE('',*,*,#383,.T.);
#499=ORIENTED_EDGE('',*,*,#384,.F.);
#500=ORIENTED_EDGE('',*,*,#385,.F.);
#501=ORIENTED_EDGE('',*,*,#386,.F.);
#502=ORIENTED_EDGE('',*,*,#385,.T.);
#503=ORIENTED_EDGE('',*,*,#387,.F.);
#504=ORIENTED_EDGE('',*,*,#388,.F.);
#505=ORIENTED_EDGE('',*,*,#389,.F.);
#506=ORIENTED_EDGE('',*,*,#390,.F.);
#507=ORIENTED_EDGE('',*,*,#391,.F.);
#508=ORIENTED_EDGE('',*,*,#383,.F.);
#509=ORIENTED_EDGE('',*,*,#339,.F.);
#510=ORIENTED_EDGE('',*,*,#321,.F.);
#511=ORIENTED_EDGE('',*,*,#392,.F.);
#512=ORIENTED_EDGE('',*,*,#393,.F.);
#513=ORIENTED_EDGE('',*,*,#336,.F.);
#514=ORIENTED_EDGE('',*,*,#394,.F.);
#515=ORIENTED_EDGE('',*,*,#333,.F.);
#516=ORIENTED_EDGE('',*,*,#327,.F.);
#517=ORIENTED_EDGE('',*,*,#392,.T.);
#518=ORIENTED_EDGE('',*,*,#332,.F.);
#519=ORIENTED_EDGE('',*,*,#395,.F.);
#520=ORIENTED_EDGE('',*,*,#396,.F.);
#521=ORIENTED_EDGE('',*,*,#394,.T.);
#522=ORIENTED_EDGE('',*,*,#338,.F.);
#523=ORIENTED_EDGE('',*,*,#397,.F.);
#524=ORIENTED_EDGE('',*,*,#398,.F.);
#525=ORIENTED_EDGE('',*,*,#388,.T.);
#526=ORIENTED_EDGE('',*,*,#399,.T.);
#527=ORIENTED_EDGE('',*,*,#400,.T.);
#528=ORIENTED_EDGE('',*,*,#355,.F.);
#529=ORIENTED_EDGE('',*,*,#359,.T.);
#530=ORIENTED_EDGE('',*,*,#345,.F.);
#531=ORIENTED_EDGE('',*,*,#349,.T.);
#532=ORIENTED_EDGE('',*,*,#352,.F.);
#533=ORIENTED_EDGE('',*,*,#401,.T.);
#534=ORIENTED_EDGE('',*,*,#334,.T.);
#535=ORIENTED_EDGE('',*,*,#344,.T.);
#536=ORIENTED_EDGE('',*,*,#393,.T.);
#537=ORIENTED_EDGE('',*,*,#396,.T.);
#538=ORIENTED_EDGE('',*,*,#402,.T.);
#539=ORIENTED_EDGE('',*,*,#375,.T.);
#540=ORIENTED_EDGE('',*,*,#379,.T.);
#541=ORIENTED_EDGE('',*,*,#365,.T.);
#542=ORIENTED_EDGE('',*,*,#369,.T.);
#543=ORIENTED_EDGE('',*,*,#372,.T.);
#544=ORIENTED_EDGE('',*,*,#403,.T.);
#545=ORIENTED_EDGE('',*,*,#404,.T.);
#546=ORIENTED_EDGE('',*,*,#390,.T.);
#547=ORIENTED_EDGE('',*,*,#405,.F.);
#548=ORIENTED_EDGE('',*,*,#406,.F.);
#549=ORIENTED_EDGE('',*,*,#340,.F.);
#550=ORIENTED_EDGE('',*,*,#364,.T.);
#551=ORIENTED_EDGE('',*,*,#387,.T.);
#552=ORIENTED_EDGE('',*,*,#384,.T.);
#553=ORIENTED_EDGE('',*,*,#391,.T.);
#554=ORIENTED_EDGE('',*,*,#404,.F.);
#555=ORIENTED_EDGE('',*,*,#407,.T.);
#556=ORIENTED_EDGE('',*,*,#330,.F.);
#557=ORIENTED_EDGE('',*,*,#408,.F.);
#558=ORIENTED_EDGE('',*,*,#399,.F.);
#559=ORIENTED_EDGE('',*,*,#406,.T.);
#560=ORIENTED_EDGE('',*,*,#409,.T.);
#561=ORIENTED_EDGE('',*,*,#323,.F.);
#562=ORIENTED_EDGE('',*,*,#341,.F.);
#563=ORIENTED_EDGE('',*,*,#397,.T.);
#564=ORIENTED_EDGE('',*,*,#337,.T.);
#565=ORIENTED_EDGE('',*,*,#325,.F.);
#566=ORIENTED_EDGE('',*,*,#410,.F.);
#567=ORIENTED_EDGE('',*,*,#386,.T.);
#568=ORIENTED_EDGE('',*,*,#398,.T.);
#569=ORIENTED_EDGE('',*,*,#410,.T.);
#570=ORIENTED_EDGE('',*,*,#324,.F.);
#571=ORIENTED_EDGE('',*,*,#409,.F.);
#572=ORIENTED_EDGE('',*,*,#405,.T.);
#573=ORIENTED_EDGE('',*,*,#389,.T.);
#574=ORIENTED_EDGE('',*,*,#382,.T.);
#575=ORIENTED_EDGE('',*,*,#356,.T.);
#576=ORIENTED_EDGE('',*,*,#400,.F.);
#577=ORIENTED_EDGE('',*,*,#408,.T.);
#578=ORIENTED_EDGE('',*,*,#329,.F.);
#579=ORIENTED_EDGE('',*,*,#335,.F.);
#580=ORIENTED_EDGE('',*,*,#401,.F.);
#581=ORIENTED_EDGE('',*,*,#354,.T.);
#582=ORIENTED_EDGE('',*,*,#361,.T.);
#583=ORIENTED_EDGE('',*,*,#376,.T.);
#584=ORIENTED_EDGE('',*,*,#402,.F.);
#585=ORIENTED_EDGE('',*,*,#395,.T.);
#586=ORIENTED_EDGE('',*,*,#331,.F.);
#587=ORIENTED_EDGE('',*,*,#407,.F.);
#588=ORIENTED_EDGE('',*,*,#403,.F.);
#589=ORIENTED_EDGE('',*,*,#374,.T.);
#590=ORIENTED_EDGE('',*,*,#381,.T.);
#591=PLANE('',#663);
#592=PLANE('',#664);
#593=PLANE('',#665);
#594=PLANE('',#666);
#595=PLANE('',#670);
#596=PLANE('',#674);
#597=PLANE('',#675);
#598=PLANE('',#679);
#599=PLANE('',#683);
#600=PLANE('',#687);
#601=PLANE('',#688);
#602=PLANE('',#692);
#603=PLANE('',#693);
#604=PLANE('',#694);
#605=PLANE('',#695);
#606=PLANE('',#696);
#607=PLANE('',#697);
#608=PLANE('',#698);
#609=PLANE('',#699);
#610=PLANE('',#700);
#611=PLANE('',#701);
#612=PLANE('',#702);
#613=PLANE('',#703);
#614=PLANE('',#704);
#615=PLANE('',#705);
#616=PLANE('',#706);
#617=ADVANCED_FACE('',(#37),#591,.T.);
#618=ADVANCED_FACE('',(#38),#592,.T.);
#619=ADVANCED_FACE('',(#39),#593,.T.);
#620=ADVANCED_FACE('',(#40),#594,.T.);
#621=ADVANCED_FACE('',(#41),#31,.F.);
#622=ADVANCED_FACE('',(#42),#595,.T.);
#623=ADVANCED_FACE('',(#43),#32,.T.);
#624=ADVANCED_FACE('',(#44),#596,.T.);
#625=ADVANCED_FACE('',(#45),#597,.T.);
#626=ADVANCED_FACE('',(#46),#33,.T.);
#627=ADVANCED_FACE('',(#47,#15),#598,.F.);
#628=ADVANCED_FACE('',(#48),#34,.F.);
#629=ADVANCED_FACE('',(#49),#599,.T.);
#630=ADVANCED_FACE('',(#50),#35,.T.);
#631=ADVANCED_FACE('',(#51),#600,.T.);
#632=ADVANCED_FACE('',(#52),#601,.T.);
#633=ADVANCED_FACE('',(#53),#36,.T.);
#634=ADVANCED_FACE('',(#54,#16),#602,.F.);
#635=ADVANCED_FACE('',(#55),#603,.F.);
#636=ADVANCED_FACE('',(#56),#604,.F.);
#637=ADVANCED_FACE('',(#57),#605,.F.);
#638=ADVANCED_FACE('',(#58),#606,.F.);
#639=ADVANCED_FACE('',(#59),#607,.F.);
#640=ADVANCED_FACE('',(#60),#608,.T.);
#641=ADVANCED_FACE('',(#61,#17),#609,.F.);
#642=ADVANCED_FACE('',(#62,#18),#610,.F.);
#643=ADVANCED_FACE('',(#63),#611,.T.);
#644=ADVANCED_FACE('',(#64),#612,.T.);
#645=ADVANCED_FACE('',(#65),#613,.T.);
#646=ADVANCED_FACE('',(#66),#614,.T.);
#647=ADVANCED_FACE('',(#67),#615,.T.);
#648=ADVANCED_FACE('',(#68),#616,.T.);
#649=CLOSED_SHELL('',(#617,#618,#619,#620,#621,#622,#623,#624,#625,#626,
#627,#628,#629,#630,#631,#632,#633,#634,#635,#636,#637,#638,#639,#640,#641,
#642,#643,#644,#645,#646,#647,#648));
#650=DERIVED_UNIT_ELEMENT(#652,1.);
#651=DERIVED_UNIT_ELEMENT(#1063,-3.);
#652=(
MASS_UNIT()
NAMED_UNIT(*)
SI_UNIT(.KILO.,.GRAM.)
);
#653=DERIVED_UNIT((#650,#651));
#654=MEASURE_REPRESENTATION_ITEM('density measure',
POSITIVE_RATIO_MEASURE(7850.),#653);
#655=PROPERTY_DEFINITION_REPRESENTATION(#660,#657);
#656=PROPERTY_DEFINITION_REPRESENTATION(#661,#658);
#657=REPRESENTATION('material name',(#659),#1060);
#658=REPRESENTATION('density',(#654),#1060);
#659=DESCRIPTIVE_REPRESENTATION_ITEM('Steel','Steel');
#660=PROPERTY_DEFINITION('material property','material name',#1070);
#661=PROPERTY_DEFINITION('material property','density of part',#1070);
#662=AXIS2_PLACEMENT_3D('',#875,#707,#708);
#663=AXIS2_PLACEMENT_3D('',#876,#709,#710);
#664=AXIS2_PLACEMENT_3D('',#901,#723,#724);
#665=AXIS2_PLACEMENT_3D('',#907,#728,#729);
#666=AXIS2_PLACEMENT_3D('',#913,#733,#734);
#667=AXIS2_PLACEMENT_3D('',#919,#738,#739);
#668=AXIS2_PLACEMENT_3D('',#921,#740,#741);
#669=AXIS2_PLACEMENT_3D('',#924,#743,#744);
#670=AXIS2_PLACEMENT_3D('',#925,#745,#746);
#671=AXIS2_PLACEMENT_3D('',#934,#751,#752);
#672=AXIS2_PLACEMENT_3D('',#936,#753,#754);
#673=AXIS2_PLACEMENT_3D('',#938,#755,#756);
#674=AXIS2_PLACEMENT_3D('',#940,#758,#759);
#675=AXIS2_PLACEMENT_3D('',#946,#763,#764);
#676=AXIS2_PLACEMENT_3D('',#955,#769,#770);
#677=AXIS2_PLACEMENT_3D('',#956,#771,#772);
#678=AXIS2_PLACEMENT_3D('',#957,#773,#774);
#679=AXIS2_PLACEMENT_3D('',#958,#775,#776);
#680=AXIS2_PLACEMENT_3D('',#960,#778,#779);
#681=AXIS2_PLACEMENT_3D('',#962,#780,#781);
#682=AXIS2_PLACEMENT_3D('',#965,#783,#784);
#683=AXIS2_PLACEMENT_3D('',#966,#785,#786);
#684=AXIS2_PLACEMENT_3D('',#975,#791,#792);
#685=AXIS2_PLACEMENT_3D('',#977,#793,#794);
#686=AXIS2_PLACEMENT_3D('',#979,#795,#796);
#687=AXIS2_PLACEMENT_3D('',#981,#798,#799);
#688=AXIS2_PLACEMENT_3D('',#987,#803,#804);
#689=AXIS2_PLACEMENT_3D('',#996,#809,#810);
#690=AXIS2_PLACEMENT_3D('',#997,#811,#812);
#691=AXIS2_PLACEMENT_3D('',#998,#813,#814);
#692=AXIS2_PLACEMENT_3D('',#999,#815,#816);
#693=AXIS2_PLACEMENT_3D('',#1001,#818,#819);
#694=AXIS2_PLACEMENT_3D('',#1010,#824,#825);
#695=AXIS2_PLACEMENT_3D('',#1016,#829,#830);
#696=AXIS2_PLACEMENT_3D('',#1022,#834,#835);
#697=AXIS2_PLACEMENT_3D('',#1026,#838,#839);
#698=AXIS2_PLACEMENT_3D('',#1028,#841,#842);
#699=AXIS2_PLACEMENT_3D('',#1032,#845,#846);
#700=AXIS2_PLACEMENT_3D('',#1040,#852,#853);
#701=AXIS2_PLACEMENT_3D('',#1048,#859,#860);
#702=AXIS2_PLACEMENT_3D('',#1051,#863,#864);
#703=AXIS2_PLACEMENT_3D('',#1053,#866,#867);
#704=AXIS2_PLACEMENT_3D('',#1055,#869,#870);
#705=AXIS2_PLACEMENT_3D('',#1056,#871,#872);
#706=AXIS2_PLACEMENT_3D('',#1057,#873,#874);
#707=DIRECTION('axis',(0.,0.,1.));
#708=DIRECTION('refdir',(1.,0.,0.));
#709=DIRECTION('center_axis',(0.,0.,1.));
#710=DIRECTION('ref_axis',(1.,0.,0.));
#711=DIRECTION('',(0.,1.,0.));
#712=DIRECTION('',(-1.,1.77635683940025E-16,0.));
#713=DIRECTION('',(-2.89623397728302E-16,1.,0.));
#714=DIRECTION('',(1.,-1.77635683940025E-16,0.));
#715=DIRECTION('',(4.82705662880503E-17,-1.,0.));
#716=DIRECTION('',(-1.,1.77635683940025E-16,0.));
#717=DIRECTION('',(0.,-1.,0.));
#718=DIRECTION('',(1.,-1.34572487833352E-16,0.));
#719=DIRECTION('',(0.,1.,0.));
#720=DIRECTION('',(-1.,1.34572487833352E-16,0.));
#721=DIRECTION('',(3.28954970259306E-16,-1.,0.));
#722=DIRECTION('',(1.,-1.34572487833352E-16,0.));
#723=DIRECTION('center_axis',(-1.34572487833352E-16,-1.,0.));
#724=DIRECTION('ref_axis',(1.,-1.34572487833352E-16,0.));
#725=DIRECTION('',(0.,0.,-1.));
#726=DIRECTION('',(-1.,1.34572487833352E-16,0.));
#727=DIRECTION('',(0.,0.,1.));
#728=DIRECTION('center_axis',(1.77635683940025E-16,1.,0.));
#729=DIRECTION('ref_axis',(-1.,1.77635683940025E-16,0.));
#730=DIRECTION('',(0.,0.,1.));
#731=DIRECTION('',(0.,0.,1.));
#732=DIRECTION('',(-1.,1.77635683940025E-16,0.));
#733=DIRECTION('center_axis',(1.77635683940025E-16,1.,0.));
#734=DIRECTION('ref_axis',(-1.,1.77635683940025E-16,0.));
#735=DIRECTION('',(0.,0.,-1.));
#736=DIRECTION('',(-1.,1.77635683940025E-16,0.));
#737=DIRECTION('',(0.,0.,1.));
#738=DIRECTION('center_axis',(0.,0.,1.));
#739=DIRECTION('ref_axis',(1.,0.,0.));
#740=DIRECTION('center_axis',(0.,0.,-1.));
#741=DIRECTION('ref_axis',(1.,0.,0.));
#742=DIRECTION('',(0.,0.,-1.));
#743=DIRECTION('center_axis',(0.,0.,1.));
#744=DIRECTION('ref_axis',(1.,0.,0.));
#745=DIRECTION('center_axis',(1.,0.,0.));
#746=DIRECTION('ref_axis',(0.,1.,0.));
#747=DIRECTION('',(0.,1.,0.));
#748=DIRECTION('',(0.,0.,1.));
#749=DIRECTION('',(0.,1.,0.));
#750=DIRECTION('',(0.,0.,1.));
#751=DIRECTION('center_axis',(0.,0.,1.));
#752=DIRECTION('ref_axis',(1.,-2.22044604925031E-15,0.));
#753=DIRECTION('center_axis',(0.,0.,-1.));
#754=DIRECTION('ref_axis',(1.,-2.22044604925031E-15,0.));
#755=DIRECTION('center_axis',(0.,0.,1.));
#756=DIRECTION('ref_axis',(1.,-2.22044604925031E-15,0.));
#757=DIRECTION('',(0.,0.,1.));
#758=DIRECTION('center_axis',(0.,-1.,0.));
#759=DIRECTION('ref_axis',(1.,0.,0.));
#760=DIRECTION('',(1.,0.,0.));
#761=DIRECTION('',(1.,0.,0.));
#762=DIRECTION('',(0.,0.,1.));
#763=DIRECTION('center_axis',(0.,1.,0.));
#764=DIRECTION('ref_axis',(-1.,0.,0.));
#765=DIRECTION('',(-1.,0.,0.));
#766=DIRECTION('',(0.,0.,-1.));
#767=DIRECTION('',(-1.,0.,0.));
#768=DIRECTION('',(0.,0.,1.));
#769=DIRECTION('center_axis',(0.,0.,1.));
#770=DIRECTION('ref_axis',(0.,1.,0.));
#771=DIRECTION('center_axis',(0.,0.,-1.));
#772=DIRECTION('ref_axis',(0.,1.,0.));
#773=DIRECTION('center_axis',(0.,0.,1.));
#774=DIRECTION('ref_axis',(0.,1.,0.));
#775=DIRECTION('center_axis',(0.,0.,-1.));
#776=DIRECTION('ref_axis',(1.,0.,0.));
#777=DIRECTION('',(0.,1.,0.));
#778=DIRECTION('center_axis',(0.,0.,1.));
#779=DIRECTION('ref_axis',(1.,0.,0.));
#780=DIRECTION('center_axis',(0.,0.,-1.));
#781=DIRECTION('ref_axis',(1.,0.,0.));
#782=DIRECTION('',(0.,0.,-1.));
#783=DIRECTION('center_axis',(0.,0.,1.));
#784=DIRECTION('ref_axis',(1.,0.,0.));
#785=DIRECTION('center_axis',(-1.,0.,0.));
#786=DIRECTION('ref_axis',(0.,-1.,0.));
#787=DIRECTION('',(0.,1.,0.));
#788=DIRECTION('',(0.,0.,1.));
#789=DIRECTION('',(0.,-1.,0.));
#790=DIRECTION('',(0.,0.,1.));
#791=DIRECTION('center_axis',(0.,0.,1.));
#792=DIRECTION('ref_axis',(-1.,2.22044604925031E-15,0.));
#793=DIRECTION('center_axis',(0.,0.,-1.));
#794=DIRECTION('ref_axis',(-1.,2.22044604925031E-15,0.));
#795=DIRECTION('center_axis',(0.,0.,1.));
#796=DIRECTION('ref_axis',(-1.,2.22044604925031E-15,0.));
#797=DIRECTION('',(0.,0.,1.));
#798=DIRECTION('center_axis',(0.,1.,0.));
#799=DIRECTION('ref_axis',(-1.,0.,0.));
#800=DIRECTION('',(1.,0.,0.));
#801=DIRECTION('',(-1.,0.,0.));
#802=DIRECTION('',(0.,0.,1.));
#803=DIRECTION('center_axis',(0.,-1.,0.));
#804=DIRECTION('ref_axis',(1.,0.,0.));
#805=DIRECTION('',(-1.,0.,0.));
#806=DIRECTION('',(0.,0.,-1.));
#807=DIRECTION('',(1.,0.,0.));
#808=DIRECTION('',(0.,0.,1.));
#809=DIRECTION('center_axis',(0.,0.,1.));
#810=DIRECTION('ref_axis',(0.,-1.,0.));
#811=DIRECTION('center_axis',(0.,0.,-1.));
#812=DIRECTION('ref_axis',(0.,-1.,0.));
#813=DIRECTION('center_axis',(0.,0.,1.));
#814=DIRECTION('ref_axis',(0.,-1.,0.));
#815=DIRECTION('center_axis',(0.,0.,-1.));
#816=DIRECTION('ref_axis',(1.,0.,0.));
#817=DIRECTION('',(3.28954970259306E-16,-1.,0.));
#818=DIRECTION('center_axis',(0.,0.,1.));
#819=DIRECTION('ref_axis',(1.,0.,0.));
#820=DIRECTION('',(1.,-1.77635683940025E-16,0.));
#821=DIRECTION('',(0.,1.,0.));
#822=DIRECTION('',(-1.,1.34572487833352E-16,0.));
#823=DIRECTION('',(0.,1.,0.));
#824=DIRECTION('center_axis',(1.,0.,0.));
#825=DIRECTION('ref_axis',(0.,0.,-1.));
#826=DIRECTION('',(0.,0.,-1.));
#827=DIRECTION('',(0.,0.,1.));
#828=DIRECTION('',(0.,1.,0.));
#829=DIRECTION('center_axis',(-1.,0.,0.));
#830=DIRECTION('ref_axis',(0.,0.,1.));
#831=DIRECTION('',(0.,0.,1.));
#832=DIRECTION('',(0.,-1.,0.));
#833=DIRECTION('',(0.,0.,-1.));
#834=DIRECTION('center_axis',(-1.,0.,0.));
#835=DIRECTION('ref_axis',(0.,0.,1.));
#836=DIRECTION('',(0.,0.,1.));
#837=DIRECTION('',(0.,-1.,0.));
#838=DIRECTION('center_axis',(1.,0.,0.));
#839=DIRECTION('ref_axis',(0.,0.,-1.));
#840=DIRECTION('',(0.,1.,0.));
#841=DIRECTION('center_axis',(-1.34572487833352E-16,-1.,0.));
#842=DIRECTION('ref_axis',(1.,-1.34572487833352E-16,0.));
#843=DIRECTION('',(0.,0.,1.));
#844=DIRECTION('',(-1.,1.34572487833352E-16,0.));
#845=DIRECTION('center_axis',(0.,0.,1.));
#846=DIRECTION('ref_axis',(1.,0.,0.));
#847=DIRECTION('',(4.82705662880503E-17,-1.,0.));
#848=DIRECTION('',(1.,-1.77635683940025E-16,0.));
#849=DIRECTION('',(1.,-1.34572487833352E-16,0.));
#850=DIRECTION('',(0.,-1.,0.));
#851=DIRECTION('',(0.,-1.,0.));
#852=DIRECTION('center_axis',(0.,0.,1.));
#853=DIRECTION('ref_axis',(1.,0.,0.));
#854=DIRECTION('',(-3.28954970259306E-16,1.,0.));
#855=DIRECTION('',(-3.28954970259306E-16,1.,0.));
#856=DIRECTION('',(1.,-1.34572487833352E-16,0.));
#857=DIRECTION('',(1.,-1.77635683940025E-16,0.));
#858=DIRECTION('',(-2.89623397728302E-16,1.,0.));
#859=DIRECTION('center_axis',(1.34572487833352E-16,1.,0.));
#860=DIRECTION('ref_axis',(-1.,1.34572487833352E-16,0.));
#861=DIRECTION('',(0.,0.,1.));
#862=DIRECTION('',(0.,0.,1.));
#863=DIRECTION('center_axis',(1.,2.89623397728302E-16,0.));
#864=DIRECTION('ref_axis',(-2.89623397728302E-16,1.,0.));
#865=DIRECTION('',(0.,0.,1.));
#866=DIRECTION('center_axis',(-1.,-4.82705662880503E-17,0.));
#867=DIRECTION('ref_axis',(4.82705662880503E-17,-1.,0.));
#868=DIRECTION('',(0.,0.,1.));
#869=DIRECTION('center_axis',(-1.77635683940025E-16,-1.,0.));
#870=DIRECTION('ref_axis',(1.,-1.77635683940025E-16,0.));
#871=DIRECTION('center_axis',(1.,0.,0.));
#872=DIRECTION('ref_axis',(0.,1.,0.));
#873=DIRECTION('center_axis',(-1.,-3.28954970259306E-16,0.));
#874=DIRECTION('ref_axis',(3.28954970259306E-16,-1.,0.));
#875=CARTESIAN_POINT('',(0.,0.,0.));
#876=CARTESIAN_POINT('Origin',(-1.11022302462516E-15,4.44089209850063E-15,
16.));
#877=CARTESIAN_POINT('',(-3.,-13.5,16.));
#878=CARTESIAN_POINT('',(-3.,-11.5,16.));
#879=CARTESIAN_POINT('',(-3.,-5.74999999999999,16.));
#880=CARTESIAN_POINT('',(-6.24999999999999,-11.5,16.));
#881=CARTESIAN_POINT('',(6.25,-11.5,16.));
#882=CARTESIAN_POINT('',(-6.25,11.5,16.));
#883=CARTESIAN_POINT('',(-6.24999999999999,-11.5,16.));
#884=CARTESIAN_POINT('',(6.25,11.5,16.));
#885=CARTESIAN_POINT('',(-6.25,11.5,16.));
#886=CARTESIAN_POINT('',(6.25,-11.5,16.));
#887=CARTESIAN_POINT('',(6.25,11.5,16.));
#888=CARTESIAN_POINT('',(3.,-11.5,16.));
#889=CARTESIAN_POINT('',(6.25,-11.5,16.));
#890=CARTESIAN_POINT('',(3.,-13.5,16.));
#891=CARTESIAN_POINT('',(3.,-6.75,16.));
#892=CARTESIAN_POINT('',(8.25,-13.5,16.));
#893=CARTESIAN_POINT('',(8.25,-13.5,16.));
#894=CARTESIAN_POINT('',(8.25,13.5,16.));
#895=CARTESIAN_POINT('',(8.25,13.5,16.));
#896=CARTESIAN_POINT('',(-8.25,13.5,16.));
#897=CARTESIAN_POINT('',(-8.25,13.5,16.));
#898=CARTESIAN_POINT('',(-8.24999999999999,-13.5,16.));
#899=CARTESIAN_POINT('',(-8.24999999999999,-13.5,16.));
#900=CARTESIAN_POINT('',(8.25,-13.5,16.));
#901=CARTESIAN_POINT('Origin',(-8.24999999999999,-13.5,0.));
#902=CARTESIAN_POINT('',(3.,-13.5,0.));
#903=CARTESIAN_POINT('',(3.,-13.5,4.));
#904=CARTESIAN_POINT('',(8.25,-13.5,0.));
#905=CARTESIAN_POINT('',(8.25,-13.5,0.));
#906=CARTESIAN_POINT('',(8.25,-13.5,0.));
#907=CARTESIAN_POINT('Origin',(6.25,-11.5,0.));
#908=CARTESIAN_POINT('',(3.,-11.5,0.));
#909=CARTESIAN_POINT('',(3.,-11.5,4.));
#910=CARTESIAN_POINT('',(6.25,-11.5,0.));
#911=CARTESIAN_POINT('',(6.25,-11.5,0.));
#912=CARTESIAN_POINT('',(6.25,-11.5,0.));
#913=CARTESIAN_POINT('Origin',(6.25,-11.5,0.));
#914=CARTESIAN_POINT('',(-3.,-11.5,0.));
#915=CARTESIAN_POINT('',(-3.,-11.5,4.));
#916=CARTESIAN_POINT('',(-6.24999999999999,-11.5,0.));
#917=CARTESIAN_POINT('',(6.25,-11.5,0.));
#918=CARTESIAN_POINT('',(-6.24999999999999,-11.5,0.));
#919=CARTESIAN_POINT('Origin',(11.25,8.,0.));
#920=CARTESIAN_POINT('',(9.75,8.,3.));
#921=CARTESIAN_POINT('Origin',(11.25,8.,3.));
#922=CARTESIAN_POINT('',(9.75,8.,0.));
#923=CARTESIAN_POINT('',(9.75,8.,0.));
#924=CARTESIAN_POINT('Origin',(11.25,8.,0.));
#925=CARTESIAN_POINT('Origin',(14.25,6.5,0.));
#926=CARTESIAN_POINT('',(14.25,6.5,0.));
#927=CARTESIAN_POINT('',(14.25,9.50000000000001,0.));
#928=CARTESIAN_POINT('',(14.25,6.5,0.));
#929=CARTESIAN_POINT('',(14.25,9.50000000000001,3.));
#930=CARTESIAN_POINT('',(14.25,9.50000000000001,0.));
#931=CARTESIAN_POINT('',(14.25,6.5,3.));
#932=CARTESIAN_POINT('',(14.25,6.5,3.));
#933=CARTESIAN_POINT('',(14.25,6.5,0.));
#934=CARTESIAN_POINT('Origin',(13.25,6.50000000000001,0.));
#935=CARTESIAN_POINT('',(13.25,5.50000000000001,0.));
#936=CARTESIAN_POINT('Origin',(13.25,6.50000000000001,0.));
#937=CARTESIAN_POINT('',(13.25,5.50000000000001,3.));
#938=CARTESIAN_POINT('Origin',(13.25,6.50000000000001,3.));
#939=CARTESIAN_POINT('',(13.25,5.50000000000001,0.));
#940=CARTESIAN_POINT('Origin',(8.25,5.5,0.));
#941=CARTESIAN_POINT('',(8.25,5.5,0.));
#942=CARTESIAN_POINT('',(8.25,5.5,0.));
#943=CARTESIAN_POINT('',(8.25,5.5,3.));
#944=CARTESIAN_POINT('',(8.25,5.5,3.));
#945=CARTESIAN_POINT('',(8.25,5.5,0.));
#946=CARTESIAN_POINT('Origin',(13.25,10.5,0.));
#947=CARTESIAN_POINT('',(13.25,10.5,0.));
#948=CARTESIAN_POINT('',(8.25,10.5,0.));
#949=CARTESIAN_POINT('',(13.25,10.5,0.));
#950=CARTESIAN_POINT('',(8.25,10.5,3.));
#951=CARTESIAN_POINT('',(8.25,10.5,0.));
#952=CARTESIAN_POINT('',(13.25,10.5,3.));
#953=CARTESIAN_POINT('',(13.25,10.5,3.));
#954=CARTESIAN_POINT('',(13.25,10.5,0.));
#955=CARTESIAN_POINT('Origin',(13.25,9.5,0.));
#956=CARTESIAN_POINT('Origin',(13.25,9.5,0.));
#957=CARTESIAN_POINT('Origin',(13.25,9.5,3.));
#958=CARTESIAN_POINT('Origin',(11.25,8.00000000000001,3.));
#959=CARTESIAN_POINT('',(8.25,-2.75,3.));
#960=CARTESIAN_POINT('Origin',(-11.25,8.00000000000001,0.));
#961=CARTESIAN_POINT('',(-12.75,8.00000000000001,3.));
#962=CARTESIAN_POINT('Origin',(-11.25,8.00000000000001,3.));
#963=CARTESIAN_POINT('',(-12.75,8.00000000000001,0.));
#964=CARTESIAN_POINT('',(-12.75,8.00000000000001,0.));
#965=CARTESIAN_POINT('Origin',(-11.25,8.00000000000001,0.));
#966=CARTESIAN_POINT('Origin',(-14.25,9.50000000000001,0.));
#967=CARTESIAN_POINT('',(-14.25,6.5,0.));
#968=CARTESIAN_POINT('',(-14.25,9.50000000000001,0.));
#969=CARTESIAN_POINT('',(-14.25,6.5,0.));
#970=CARTESIAN_POINT('',(-14.25,6.5,3.));
#971=CARTESIAN_POINT('',(-14.25,6.5,0.));
#972=CARTESIAN_POINT('',(-14.25,9.50000000000001,3.));
#973=CARTESIAN_POINT('',(-14.25,6.5,3.));
#974=CARTESIAN_POINT('',(-14.25,9.50000000000001,0.));
#975=CARTESIAN_POINT('Origin',(-13.25,9.5,0.));
#976=CARTESIAN_POINT('',(-13.25,10.5,0.));
#977=CARTESIAN_POINT('Origin',(-13.25,9.5,0.));
#978=CARTESIAN_POINT('',(-13.25,10.5,3.));
#979=CARTESIAN_POINT('Origin',(-13.25,9.5,3.));
#980=CARTESIAN_POINT('',(-13.25,10.5,0.));
#981=CARTESIAN_POINT('Origin',(-8.25,10.5,0.));
#982=CARTESIAN_POINT('',(-8.25,10.5,0.));
#983=CARTESIAN_POINT('',(-13.25,10.5,0.));
#984=CARTESIAN_POINT('',(-8.25,10.5,3.));
#985=CARTESIAN_POINT('',(-13.25,10.5,3.));
#986=CARTESIAN_POINT('',(-8.25,10.5,0.));
#987=CARTESIAN_POINT('Origin',(-13.25,5.5,0.));
#988=CARTESIAN_POINT('',(-8.25,5.5,0.));
#989=CARTESIAN_POINT('',(-13.25,5.5,0.));
#990=CARTESIAN_POINT('',(-8.25,5.5,0.));
#991=CARTESIAN_POINT('',(-8.25,5.5,3.));
#992=CARTESIAN_POINT('',(-8.25,5.50000000000001,0.));
#993=CARTESIAN_POINT('',(-13.25,5.5,3.));
#994=CARTESIAN_POINT('',(-8.25,5.5,3.));
#995=CARTESIAN_POINT('',(-13.25,5.5,0.));
#996=CARTESIAN_POINT('Origin',(-13.25,6.50000000000001,0.));
#997=CARTESIAN_POINT('Origin',(-13.25,6.50000000000001,0.));
#998=CARTESIAN_POINT('Origin',(-13.25,6.50000000000001,3.));
#999=CARTESIAN_POINT('Origin',(-11.25,8.00000000000001,3.));
#1000=CARTESIAN_POINT('',(-8.25,10.75,3.));
#1001=CARTESIAN_POINT('Origin',(-3.,-13.5,8.));
#1002=CARTESIAN_POINT('',(-3.,11.5,8.));
#1003=CARTESIAN_POINT('',(3.,11.5,8.));
#1004=CARTESIAN_POINT('',(-4.625,11.5,8.));
#1005=CARTESIAN_POINT('',(-3.,13.5,8.));
#1006=CARTESIAN_POINT('',(-3.,-13.5,8.));
#1007=CARTESIAN_POINT('',(3.,13.5,8.));
#1008=CARTESIAN_POINT('',(2.625,13.5,8.));
#1009=CARTESIAN_POINT('',(3.,-13.5,8.));
#1010=CARTESIAN_POINT('Origin',(3.,-13.5,8.));
#1011=CARTESIAN_POINT('',(3.,11.5,0.));
#1012=CARTESIAN_POINT('',(3.,11.5,4.));
#1013=CARTESIAN_POINT('',(3.,13.5,0.));
#1014=CARTESIAN_POINT('',(3.,13.5,4.));
#1015=CARTESIAN_POINT('',(3.,-6.75,0.));
#1016=CARTESIAN_POINT('Origin',(-3.,-13.5,0.));
#1017=CARTESIAN_POINT('',(-3.,11.5,0.));
#1018=CARTESIAN_POINT('',(-3.,11.5,0.));
#1019=CARTESIAN_POINT('',(-3.,13.5,0.));
#1020=CARTESIAN_POINT('',(-3.,-6.75,0.));
#1021=CARTESIAN_POINT('',(-3.,13.5,0.));
#1022=CARTESIAN_POINT('Origin',(-3.,-13.5,0.));
#1023=CARTESIAN_POINT('',(-3.,-13.5,0.));
#1024=CARTESIAN_POINT('',(-3.,-13.5,4.));
#1025=CARTESIAN_POINT('',(-3.,-6.75,0.));
#1026=CARTESIAN_POINT('Origin',(3.,-13.5,8.));
#1027=CARTESIAN_POINT('',(3.,-6.75,0.));
#1028=CARTESIAN_POINT('Origin',(-8.24999999999999,-13.5,0.));
#1029=CARTESIAN_POINT('',(-8.24999999999999,-13.5,0.));
#1030=CARTESIAN_POINT('',(-8.24999999999999,-13.5,0.));
#1031=CARTESIAN_POINT('',(8.25,-13.5,0.));
#1032=CARTESIAN_POINT('Origin',(-1.11022302462516E-15,4.44089209850063E-15,
0.));
#1033=CARTESIAN_POINT('',(6.25,11.5,0.));
#1034=CARTESIAN_POINT('',(6.25,11.5,0.));
#1035=CARTESIAN_POINT('',(-6.25,11.5,0.));
#1036=CARTESIAN_POINT('',(8.25,13.5,0.));
#1037=CARTESIAN_POINT('',(-8.25,13.5,0.));
#1038=CARTESIAN_POINT('',(8.25,13.5,0.));
#1039=CARTESIAN_POINT('',(8.25,13.5,0.));
#1040=CARTESIAN_POINT('Origin',(-1.11022302462516E-15,4.44089209850063E-15,
0.));
#1041=CARTESIAN_POINT('',(-8.24999999999999,-13.5,0.));
#1042=CARTESIAN_POINT('',(-8.25,13.5,0.));
#1043=CARTESIAN_POINT('',(-8.24999999999999,-13.5,0.));
#1044=CARTESIAN_POINT('',(-8.25,13.5,0.));
#1045=CARTESIAN_POINT('',(-6.25,11.5,0.));
#1046=CARTESIAN_POINT('',(-6.25,11.5,0.));
#1047=CARTESIAN_POINT('',(-6.24999999999999,-11.5,0.));
#1048=CARTESIAN_POINT('Origin',(8.25,13.5,0.));
#1049=CARTESIAN_POINT('',(-8.25,13.5,0.));
#1050=CARTESIAN_POINT('',(8.25,13.5,0.));
#1051=CARTESIAN_POINT('Origin',(-6.24999999999999,-11.5,0.));
#1052=CARTESIAN_POINT('',(-6.25,11.5,0.));
#1053=CARTESIAN_POINT('Origin',(6.25,11.5,0.));
#1054=CARTESIAN_POINT('',(6.25,11.5,0.));
#1055=CARTESIAN_POINT('Origin',(-6.25,11.5,0.));
#1056=CARTESIAN_POINT('Origin',(8.25,-13.5,0.));
#1057=CARTESIAN_POINT('Origin',(-8.25,13.5,0.));
#1058=UNCERTAINTY_MEASURE_WITH_UNIT(LENGTH_MEASURE(0.01),#1062,
'DISTANCE_ACCURACY_VALUE',
'Maximum model space distance between geometric entities at asserted c
onnectivities');
#1059=UNCERTAINTY_MEASURE_WITH_UNIT(LENGTH_MEASURE(0.01),#1062,
'DISTANCE_ACCURACY_VALUE',
'Maximum model space distance between geometric entities at asserted c
onnectivities');
#1060=(
GEOMETRIC_REPRESENTATION_CONTEXT(3)
GLOBAL_UNCERTAINTY_ASSIGNED_CONTEXT((#1058))
GLOBAL_UNIT_ASSIGNED_CONTEXT((#1062,#1064,#1065))
REPRESENTATION_CONTEXT('','3D')
);
#1061=(
GEOMETRIC_REPRESENTATION_CONTEXT(3)
GLOBAL_UNCERTAINTY_ASSIGNED_CONTEXT((#1059))
GLOBAL_UNIT_ASSIGNED_CONTEXT((#1062,#1064,#1065))
REPRESENTATION_CONTEXT('','3D')
);
#1062=(
LENGTH_UNIT()
NAMED_UNIT(*)
SI_UNIT(.MILLI.,.METRE.)
);
#1063=(
LENGTH_UNIT()
NAMED_UNIT(*)
SI_UNIT($,.METRE.)
);
#1064=(
NAMED_UNIT(*)
PLANE_ANGLE_UNIT()
SI_UNIT($,.RADIAN.)
);
#1065=(
NAMED_UNIT(*)
SI_UNIT($,.STERADIAN.)
SOLID_ANGLE_UNIT()
);
#1066=SHAPE_DEFINITION_REPRESENTATION(#1067,#1068);
#1067=PRODUCT_DEFINITION_SHAPE('',$,#1070);
#1068=SHAPE_REPRESENTATION('',(#662),#1060);
#1069=PRODUCT_DEFINITION_CONTEXT('part definition',#1074,'design');
#1070=PRODUCT_DEFINITION('servo','servo v3',#1071,#1069);
#1071=PRODUCT_DEFINITION_FORMATION('',$,#1076);
#1072=PRODUCT_RELATED_PRODUCT_CATEGORY('servo v3','servo v3',(#1076));
#1073=APPLICATION_PROTOCOL_DEFINITION('international standard',
'automotive_design',2009,#1074);
#1074=APPLICATION_CONTEXT(
'Core Data for Automotive Mechanical Design Process');
#1075=PRODUCT_CONTEXT('part definition',#1074,'mechanical');
#1076=PRODUCT('servo','servo v3',$,(#1075));
#1077=PRESENTATION_STYLE_ASSIGNMENT((#1079));
#1078=PRESENTATION_STYLE_ASSIGNMENT((#1080));
#1079=SURFACE_STYLE_USAGE(.BOTH.,#1081);
#1080=SURFACE_STYLE_USAGE(.BOTH.,#1082);
#1081=SURFACE_SIDE_STYLE('',(#1083));
#1082=SURFACE_SIDE_STYLE('',(#1084));
#1083=SURFACE_STYLE_FILL_AREA(#1085);
#1084=SURFACE_STYLE_FILL_AREA(#1086);
#1085=FILL_AREA_STYLE('Steel - Satin',(#1087));
#1086=FILL_AREA_STYLE(
'PA 12 - Nylon - PA 603-CF (with EOS P 3D Printers)',(#1088));
#1087=FILL_AREA_STYLE_COLOUR('Steel - Satin',#1089);
#1088=FILL_AREA_STYLE_COLOUR(
'PA 12 - Nylon - PA 603-CF (with EOS P 3D Printers)',#1090);
#1089=COLOUR_RGB('Steel - Satin',0.627450980392157,0.627450980392157,0.627450980392157);
#1090=COLOUR_RGB('PA 12 - Nylon - PA 603-CF (with EOS P 3D Printers)',0.247058823529412,
0.247058823529412,0.247058823529412);
ENDSEC;
END-ISO-10303-21;
